<?xml version="1.0" standalone="no"?>
<!DOCTYPE svg PUBLIC "-//W3C//DTD SVG 1.1//EN" "http://www.w3.org/Graphics/SVG/1.1/DTD/svg11.dtd" >
<svg>
<metadata>
Created by FontForge 20120731 at Wed Aug 10 12:10:43 2016
 By ,,,
Copyright (c) 2013 by Josep Patau Bellart. All rights reserved.
</metadata>
<defs>
<font id="BoxedMedium-Italic" horiz-adv-x="490" >
  <font-face 
    font-family="Boxed Medium"
    font-weight="600"
    font-style="italic"
    font-stretch="normal"
    units-per-em="1000"
    panose-1="2 0 5 6 3 0 0 9 0 4"
    ascent="800"
    descent="-200"
    x-height="550"
    cap-height="701"
    bbox="-85 -361 998.18 997"
    underline-thickness="50"
    underline-position="-50"
    slope="-9"
    unicode-range="U+000D-FB02"
  />
<missing-glyph horiz-adv-x="279" 
 />
    <glyph glyph-name="fi" unicode="fi" horiz-adv-x="485" 
d="M61 -28l76 482h-46l15 96h47l3 22q14 86 71 132t141 46h169l-15 -94h-175q-33 0 -60.5 -24t-33.5 -60l-4 -22h256l-87 -550h-97l72 454h-159l-76 -482q-13 -86 -70 -132t-142 -46l16 94q35 0 64.5 24t34.5 60z" />
    <glyph glyph-name="fl" unicode="fl" horiz-adv-x="485" 
d="M61 -28l76 482h-46l15 96h47l3 22q14 86 71 132t141 46h169l-119 -750h-97l104 656h-72q-35 0 -64.5 -24t-35.5 -60l-4 -22h83l-14 -96h-84l-76 -482q-13 -86 -70 -132t-142 -46l16 94q35 0 64.5 24t34.5 60z" />
    <glyph glyph-name="lgeminada" unicode="l&#xb7;l" horiz-adv-x="513" 
d="M185 750h97l-119 -750h-97zM468 750h97l-119 -750h-97zM275 426h97l-22 -134h-96z" />
    <glyph glyph-name="Lgeminada" unicode="L&#xb7;L" horiz-adv-x="905" 
d="M442 99l-15 -99h-357l111 701h100l-96 -602h257zM894 99l-15 -99h-357l111 701h100l-96 -602h257zM364 426h97l-22 -134h-96z" />
    <glyph glyph-name=".notdef" horiz-adv-x="279" 
 />
    <glyph glyph-name=".null" horiz-adv-x="0" 
 />
    <glyph glyph-name="nonmarkingreturn" horiz-adv-x="333" 
 />
    <glyph glyph-name="NULL" horiz-adv-x="0" 
 />
    <glyph glyph-name="NULL" horiz-adv-x="0" 
 />
    <glyph glyph-name="CR" unicode="&#xd;" horiz-adv-x="279" 
 />
    <glyph glyph-name="space" unicode=" " horiz-adv-x="279" 
 />
    <glyph glyph-name="exclam" unicode="!" horiz-adv-x="228" 
d="M196 213h-97l86 538h97zM163 0h-97l21 133h97z" />
    <glyph glyph-name="quotedbl" unicode="&#x22;" horiz-adv-x="327" 
d="M214 553h-78l24 217h99zM366 553h-79l24 217h98z" />
    <glyph glyph-name="numbersign" unicode="#" horiz-adv-x="669" 
d="M200 0h-101l47 157h-97l16 100h111l54 178h-107l15 100h122l50 166h101l-50 -166h172l50 166h100l-50 -166h95l-15 -100h-110l-54 -178h107l-16 -100h-121l-47 -157h-100l47 157h-172zM331 435l-54 -178h172l54 178h-172z" />
    <glyph glyph-name="dollar" unicode="$" horiz-adv-x="546" 
d="M82 205h101l-5 -32q-7 -36 15 -58t59 -22h19q31 197 31 204q-37 18 -62 34.5t-51 40.5t-36.5 55.5t-4.5 68.5l10 64q9 59 60.5 102.5t122.5 43.5h27l18 109h40l-18 -109h12q77 0 116.5 -44.5t29.5 -107.5l-11 -77h-100l8 53q5 35 -15 56t-55 21l-33 -205l53 -26.5
t46.5 -28t43 -36t23 -41.5t5.5 -53l-11 -71q-10 -65 -66 -108.5t-136 -43.5h-22l-17 -106h-40l17 106h-26q-81 0 -124 46t-33 110zM429 200q3 21 -19.5 38.5t-68.5 39.5l-30 -185h12q39 0 67.5 20t33.5 57zM250 505q-6 -43 73 -85l30 187h-12q-32 0 -57 -19.5t-30 -51.5z
" />
    <glyph glyph-name="percent" unicode="%" horiz-adv-x="694" 
d="M229 463h20q13 0 23 9.5t13 25.5l13 86q2 15 -5 24.5t-20 9.5h-20q-12 0 -22.5 -9.5t-13.5 -24.5l-13 -86q-2 -16 5 -25.5t20 -9.5zM241 376h-28q-51 0 -77.5 31.5t-20.5 75.5l18 115q7 44 44 76t88 32h28q50 0 75 -32t18 -76l-18 -115q-7 -44 -42 -75.5t-85 -31.5z
M269 0h-92l361 701h92zM535 81h20q13 0 23.5 9.5t13.5 25.5l14 86q2 15 -5.5 24.5t-20.5 9.5h-20q-13 0 -23 -9t-13 -25l-14 -86q-2 -16 5 -25.5t20 -9.5zM547 -6h-28q-51 0 -77.5 31.5t-19.5 75.5l18 115q7 44 44 76t88 32h28q50 0 75 -32t18 -76l-18 -115
q-7 -44 -42.5 -75.5t-85.5 -31.5z" />
    <glyph glyph-name="ampersand" unicode="&#x26;" horiz-adv-x="576" 
d="M537 517h-97l3 23q4 32 -11 51t-41 19h-55q-26 0 -47 -19t-27 -51l-6 -40q-5 -32 10 -51.5t41 -19.5h302l-14 -96h-66l-29 -183q-10 -64 -61.5 -110t-123.5 -46h-95q-74 0 -112.5 46t-28.5 110l20 124q10 65 79 107q-33 43 -24 99l13 81q9 59 60 102.5t121 43.5h68
q67 0 102 -43t26 -103zM322 90q31 0 54.5 22t29.5 58l25 163h-154q-30 0 -54 -22t-30 -58l-14 -83q-5 -36 12.5 -58t47.5 -22h83z" />
    <glyph glyph-name="quotesingle" unicode="'" horiz-adv-x="175" 
d="M214 553h-78l24 217h99z" />
    <glyph glyph-name="parenleft" unicode="(" horiz-adv-x="288" 
d="M256 -12l-16 -95h-15q-85 0 -126.5 46t-27.5 131l73 459q13 86 69 131.5t141 45.5h15l-14 -94h-16q-35 0 -63.5 -23.5t-33.5 -59.5l-73 -459q-6 -36 15 -59t56 -23h16z" />
    <glyph glyph-name="parenright" unicode=")" horiz-adv-x="288" 
d="M20 -107l14 95h16q36 0 65 23t34 59l72 459q7 36 -15 59.5t-57 23.5h-16l16 94h15q85 0 126.5 -45.5t28.5 -131.5l-72 -459q-13 -85 -70 -131t-142 -46h-15z" />
    <glyph glyph-name="asterisk" unicode="*" horiz-adv-x="432" 
d="M126 566l43 98l100 -38l20 124h92l-20 -124l112 38l13 -98l-110 -38l49 -99l-84 -62l-50 101l-83 -103l-62 64l79 99z" />
    <glyph glyph-name="plus" unicode="+" horiz-adv-x="426" 
d="M243 481h92l-22 -138h125l-17 -102h-124l-22 -138h-92l22 138h-125l17 102h124z" />
    <glyph glyph-name="comma" unicode="," horiz-adv-x="223" 
d="M-10 -166l16 102q21 4 37.5 24t19.5 40l22 133h96l-21 -133q-12 -71 -60.5 -115.5t-109.5 -50.5z" />
    <glyph glyph-name="hyphen" unicode="-" horiz-adv-x="361" 
d="M367 347l-15 -97h-263l16 97h262z" />
    <glyph glyph-name="period" unicode="." horiz-adv-x="223" 
d="M85 133h96l-21 -133h-97z" />
    <glyph glyph-name="slash" unicode="/" horiz-adv-x="497" 
d="M133 0h-107l442 700h106z" />
    <glyph glyph-name="zero" unicode="0" horiz-adv-x="530" 
d="M251 93h58q32 0 58 22t31 58l57 354q5 36 -13.5 58t-50.5 22h-58q-32 0 -58 -22t-31 -58l-57 -354q-5 -36 13.5 -58t50.5 -22zM304 -6h-75q-76 0 -116.5 46t-30.5 110l64 400q10 64 65 110t131 46h75q75 0 113.5 -46t28.5 -110l-64 -400q-10 -64 -63 -110t-128 -46z" />
    <glyph glyph-name="one" unicode="1" horiz-adv-x="396" 
d="M261 700h99l-96 -601h119l-16 -99h-337l15 99h120l80 501l-131 -69l16 100z" />
    <glyph glyph-name="two" unicode="2" horiz-adv-x="511" 
d="M390 422q38 30 45 74l4 31q6 36 -12.5 58t-51.5 22h-35q-32 0 -58 -22t-31 -58l-5 -31h-100l9 54q10 64 63.5 110t129.5 46h51q76 0 115 -49.5t28 -119.5l-13 -81q-9 -63 -70 -108q-15 -14 -123 -75t-122 -76q-31 -25 -38 -70l-5 -27h311l-16 -100h-412l24 150
q13 82 82 130q15 15 115.5 71.5t114.5 70.5z" />
    <glyph glyph-name="three" unicode="3" horiz-adv-x="524" 
d="M492 154q-10 -65 -63.5 -112.5t-127.5 -47.5h-75q-76 0 -116.5 46t-30.5 110l8 48h100l-3 -25q-6 -36 12.5 -57.5t50.5 -21.5h58q33 0 58.5 22.5t32.5 60.5l8 54q6 36 -14 58t-55 22h-60l16 100h50q31 0 54 19.5t29 52.5l8 51q5 33 -11.5 53t-45.5 20h-33
q-29 0 -51.5 -20t-27.5 -53l-4 -22h-100l7 44q9 61 61 105.5t124 44.5h51q70 0 107 -44.5t27 -105.5l-14 -92q-9 -58 -62 -98q61 -42 48 -111z" />
    <glyph glyph-name="four" unicode="4" horiz-adv-x="474" 
d="M391 700h101l-70 -437h68l-16 -99h-67l-26 -164h-101l26 164h-249l16 99zM173 263h148l42 260z" />
    <glyph glyph-name="five" unicode="5" horiz-adv-x="524" 
d="M488 154q-10 -65 -63 -112.5t-127 -47.5h-69q-76 0 -116.5 46t-30.5 110l8 48h101l-4 -25q-5 -36 13.5 -57.5t50.5 -21.5h51q33 0 59 23t31 60l14 90q5 36 -11.5 57.5t-47.5 21.5h-207l56 354h350l-15 -99h-250l-25 -156h118q71 0 108.5 -46.5t27.5 -108.5z" />
    <glyph glyph-name="six" unicode="6" horiz-adv-x="530" 
d="M304 -6h-75q-76 0 -116.5 46t-30.5 110l64 400q10 64 65 110t131 46h75q75 0 113.5 -46t28.5 -110l-7 -43h-101l4 20q5 36 -13.5 58t-50.5 22h-58q-32 0 -58 -22t-31 -58l-19 -118q36 27 74 27h75q75 0 113.5 -46t28.5 -110l-21 -130q-10 -64 -63 -110t-128 -46zM203 267
l-16 -94q-5 -36 13.5 -58t50.5 -22h58q32 0 58 22t31 58l14 84q5 36 -13.5 58t-50.5 22h-58q-31 0 -56.5 -19t-30.5 -51z" />
    <glyph glyph-name="seven" unicode="7" horiz-adv-x="451" 
d="M133 603l15 99h385l-15 -99l-368 -603h-100l367 603h-284z" />
    <glyph glyph-name="eight" unicode="8" horiz-adv-x="524" 
d="M301 -6h-75q-76 0 -116.5 46t-30.5 110l15 98q6 36 31.5 68.5t64.5 53.5q-54 44 -41 118l10 62q10 64 62.5 110t125.5 46h53q74 0 112.5 -46t28.5 -110l-10 -62q-12 -73 -78 -117q32 -20 46 -53t8 -70l-15 -98q-10 -64 -63.5 -110t-127.5 -46zM247 93h58q33 0 58 22
t32 58l10 64q6 36 -12.5 57.5t-51.5 21.5h-58q-33 0 -58 -21.5t-31 -57.5l-10 -64q-7 -36 11.5 -58t51.5 -22zM432 495l6 32q6 36 -10.5 58t-45.5 22h-45q-29 0 -52 -22t-29 -58l-6 -32q-6 -36 11 -58t46 -22h45q28 0 51 22t29 58z" />
    <glyph glyph-name="nine" unicode="9" horiz-adv-x="530" 
d="M337 706h75q76 0 116.5 -46t30.5 -110l-64 -400q-10 -64 -65 -110t-131 -46h-75q-74 0 -113 46t-29 110l7 43h101l-3 -20q-5 -36 13.5 -58t50.5 -22h58q32 0 58 22t31 58l18 113q-39 -22 -74 -22h-75q-74 0 -113 46t-29 110l21 130q10 64 63.5 110t127.5 46zM439 432
l16 95q5 36 -13.5 58t-50.5 22h-58q-32 0 -58 -22t-31 -58l-14 -84q-5 -36 13.5 -58t50.5 -22h58q30 0 56 19t31 50z" />
    <glyph glyph-name="colon" unicode=":" horiz-adv-x="223" 
d="M85 133h96l-21 -133h-97zM149 542h97l-21 -133h-97z" />
    <glyph glyph-name="semicolon" unicode=";" horiz-adv-x="223" 
d="M148 542h97l-20 -133h-97zM6 -64l-16 -102q61 6 109.5 50.5t60.5 115.5l20 133h-95l-22 -133q-3 -20 -19.5 -40t-37.5 -24z" />
    <glyph glyph-name="less" unicode="&#x3c;" horiz-adv-x="474" 
d="M95 335l416 174l-17 -111l-307 -124l269 -119l-18 -111l-362 170z" />
    <glyph glyph-name="equal" unicode="=" horiz-adv-x="423" 
d="M455 425l-16 -96h-351l16 96h351zM422 215l-16 -96h-351l16 96h351z" />
    <glyph glyph-name="greater" unicode="&#x3e;" horiz-adv-x="474" 
d="M485 335l-20 -121l-415 -170l17 111l306 120l-268 123l18 111z" />
    <glyph glyph-name="question" unicode="?" horiz-adv-x="493" 
d="M391 439q18 16 22 44l7 44q5 36 -13.5 58t-50.5 22h-39q-33 0 -59 -22t-31 -58l-9 -54h-100l12 77q10 64 63.5 110t127.5 46h56q76 0 117 -46t31 -110l-15 -90q-10 -61 -60 -102q-7 -8 -56.5 -45.5t-57.5 -45.5q-26 -23 -30 -53l-5 -35h-101l11 73q10 60 57 95
q6 6 60.5 44t62.5 48zM193 133h100l-21 -133h-100z" />
    <glyph glyph-name="at" unicode="@" horiz-adv-x="906" 
d="M168 -210q-62 0 -94 43t-23 104l108 680q9 60 54.5 103t108.5 43h504q63 0 95 -43t22 -103l-75 -471q-9 -60 -54.5 -103t-108.5 -43h-136l-5 51q-65 -57 -128 -57h-48q-59 0 -89 40t-21 95l45 287q9 55 51.5 94.5t101.5 39.5h248l-73 -454h52q25 0 46 19t25 48l70 437
q4 29 -11 48t-40 19h-469q-26 0 -46.5 -18.5t-24.5 -48.5l-103 -646q-4 -30 10.5 -49t39.5 -19h468l-15 -96h-485zM457 90q57 0 103 49l50 316h-132q-20 0 -38 -16t-22 -41l-41 -252q-4 -24 9.5 -40t33.5 -16h37z" />
    <glyph glyph-name="A" unicode="A" horiz-adv-x="593" 
d="M357 703h101l103 -703h-101l-23 173h-228l-77 -173h-100zM384 565l-131 -292h170z" />
    <glyph glyph-name="B" unicode="B" horiz-adv-x="556" 
d="M70 0l111 700h235q74 0 112 -50t27 -121l-7 -49q-11 -67 -68 -110q39 -21 57 -61t10 -86l-6 -39q-13 -77 -67.5 -130.5t-128.5 -53.5h-275zM378 310h-159l-34 -211h164q33 0 59 22t31 58l8 50q5 37 -14.5 59t-54.5 22zM390 601h-125l-30 -191h125q33 0 58.5 20.5
t29.5 54.5l6 39q5 35 -13.5 56t-50.5 21z" />
    <glyph glyph-name="C" unicode="C" horiz-adv-x="556" 
d="M434 233h100l-13 -83q-10 -64 -63.5 -110t-128.5 -46h-100q-76 0 -116.5 46t-30.5 110l64 400q10 64 65 110t131 46h100q75 0 114 -46t29 -110l-13 -80h-101l10 57q5 36 -13.5 58t-51.5 22h-83q-32 0 -58 -22t-31 -58l-57 -354q-5 -36 13.5 -58t50.5 -22h83q33 0 59 22
t31 58z" />
    <glyph glyph-name="D" unicode="D" horiz-adv-x="576" 
d="M70 0l111 700h281q75 0 113.5 -46t28.5 -110l-62 -388q-10 -64 -63 -110t-128 -46h-281zM436 601h-171l-80 -502h171q33 0 59 22t31 58l54 342q6 36 -13 58t-51 22z" />
    <glyph glyph-name="E" unicode="E" horiz-adv-x="516" 
d="M469 99l-16 -99h-383l111 701h374l-15 -100h-275l-30 -192h246l-16 -100h-246l-34 -210h284z" />
    <glyph glyph-name="F" unicode="F" horiz-adv-x="502" 
d="M170 0h-100l111 701h377l-16 -100h-277l-33 -209h261l-16 -100h-261z" />
    <glyph glyph-name="G" unicode="G" horiz-adv-x="566" 
d="M582 470h-101l10 57q5 36 -14 58t-51 22h-93q-32 0 -58 -22t-31 -58l-57 -354q-5 -36 13.5 -58t50.5 -22h93q33 0 59 22t31 58l15 98h-128l16 99h229l-35 -220q-10 -64 -63.5 -110t-128.5 -46h-110q-76 0 -116.5 46t-30.5 110l64 400q10 64 65 110t131 46h110
q75 0 114 -46t29 -110z" />
    <glyph glyph-name="H" unicode="H" horiz-adv-x="587" 
d="M170 0h-100l111 701h100l-46 -288h248l46 288h100l-111 -701h-100l49 313h-248z" />
    <glyph glyph-name="I" unicode="I" horiz-adv-x="240" 
d="M170 0h-100l111 701h100z" />
    <glyph glyph-name="J" unicode="J" horiz-adv-x="250" 
d="M190 700h100l-112 -712q-15 -93 -75 -144t-149 -51h-39l15 98h39q40 0 71 26.5t38 70.5z" />
    <glyph glyph-name="K" unicode="K" horiz-adv-x="555" 
d="M170 0h-100l111 700h100l-48 -299h73l186 299h112l-218 -341l144 -359h-113l-115 302h-84z" />
    <glyph glyph-name="L" unicode="L" horiz-adv-x="453" 
d="M442 99l-15 -99h-357l111 701h100l-96 -602h257z" />
    <glyph glyph-name="M" unicode="M" horiz-adv-x="695" 
d="M170 0h-100l111 701h105l107 -427l241 427h102l-111 -701h-100l75 477l-186 -327h-86l-83 328z" />
    <glyph glyph-name="N" unicode="N" horiz-adv-x="587" 
d="M170 0h-100l111 701h100l169 -496l79 496h100l-111 -701h-102l-168 493z" />
    <glyph glyph-name="O" unicode="O" horiz-adv-x="566" 
d="M251 93h93q33 0 59 22t31 58l57 354q5 36 -14 58t-51 22h-93q-32 0 -58 -22t-31 -58l-57 -354q-5 -36 13.5 -58t50.5 -22zM339 -6h-110q-76 0 -116.5 46t-30.5 110l64 400q10 64 65 110t131 46h110q75 0 114 -46t29 -110l-64 -400q-10 -64 -63.5 -110t-128.5 -46z" />
    <glyph glyph-name="P" unicode="P" horiz-adv-x="546" 
d="M170 0h-100l111 700h255q76 0 116.5 -44t30.5 -106l-24 -147q-9 -63 -62.5 -109t-127.5 -46h-160zM408 601h-143l-40 -254h149q32 0 58 22t31 57l16 101q6 34 -14.5 54t-56.5 20z" />
    <glyph glyph-name="Q" unicode="Q" horiz-adv-x="566" 
d="M406 -161l-97 -46l-57 201h-23q-76 0 -116.5 46t-30.5 110l64 400q10 64 65 110t131 46h110q75 0 114 -46t29 -110l-64 -400q-9 -59 -56 -103.5t-114 -51.5zM251 93h93q33 0 59 22t31 58l57 354q5 36 -14 58t-51 22h-93q-32 0 -58 -22t-31 -58l-57 -354q-5 -36 13.5 -58
t50.5 -22z" />
    <glyph glyph-name="R" unicode="R" horiz-adv-x="564" 
d="M170 0h-100l111 700h261q77 0 117.5 -44t30.5 -106l-24 -148q-7 -43 -40 -81t-82 -56l68 -265h-106l-65 254h-131zM416 601h-151l-40 -248h156q33 0 58.5 20.5t30.5 52.5l15 101q6 34 -14 54t-55 20z" />
    <glyph glyph-name="S" unicode="S" horiz-adv-x="546" 
d="M82 205h101l-5 -32q-7 -36 15 -58t59 -22h71q39 0 67.5 20t33.5 57l5 30q1 6 -0.5 12t-6 12t-9 10.5t-13 10.5t-15 10t-19 10t-20 10t-22 11t-22.5 11q-37 18 -62 34.5t-51 40.5t-36.5 55.5t-4.5 68.5l10 64q9 59 60.5 102.5t122.5 43.5h79q77 0 116.5 -44.5t29.5 -107.5
l-11 -77h-100l8 53q5 35 -15 56t-55 21h-52q-32 0 -57 -19.5t-30 -51.5l-4 -31q-4 -29 21.5 -51t75.5 -45q38 -17 55.5 -26t50 -29.5t47 -37.5t25.5 -43.5t6 -55.5l-11 -71q-10 -65 -66 -108.5t-136 -43.5h-88q-81 0 -124 46t-33 110z" />
    <glyph glyph-name="T" unicode="T" horiz-adv-x="462" 
d="M287 0h-100l95 601h-161l15 100h412l-16 -100h-150z" />
    <glyph glyph-name="U" unicode="U" horiz-adv-x="578" 
d="M536 150q-10 -64 -63.5 -110t-127.5 -46h-108q-76 0 -116.5 46t-30.5 110l87 551h101l-83 -528q-6 -36 12.5 -58t50.5 -22h91q33 0 58.5 22t30.5 58l84 528h101z" />
    <glyph glyph-name="V" unicode="V" horiz-adv-x="593" 
d="M347 0h-101l-103 700h100l76 -556l252 556h101z" />
    <glyph glyph-name="W" unicode="W" horiz-adv-x="871" 
d="M309 0h-100l-66 700h105l37 -536l211 536h102l41 -538l207 538h105l-288 -700h-101l-47 499z" />
    <glyph glyph-name="X" unicode="X" horiz-adv-x="580" 
d="M531 700h111l-233 -344l137 -356h-113l-101 263l-188 -263h-111l260 365l-127 335h112l91 -240z" />
    <glyph glyph-name="Y" unicode="Y" horiz-adv-x="563" 
d="M335 0h-100l43 280l-135 421h103l100 -315l197 315h100l-264 -421z" />
    <glyph glyph-name="Z" unicode="Z" horiz-adv-x="532" 
d="M497 99l-15 -99h-432l15 99l393 502h-306l16 100h418l-15 -100l-384 -502h310z" />
    <glyph glyph-name="bracketleft" unicode="[" horiz-adv-x="287" 
d="M256 -25l-16 -100h-190l131 825h187l-15 -99h-88l-99 -626h90z" />
    <glyph glyph-name="backslash" unicode="\" horiz-adv-x="497" 
d="M463 0h-106l-220 700h107z" />
    <glyph glyph-name="bracketright" unicode="]" horiz-adv-x="287" 
d="M7 -125l16 100h91l99 626h-87l16 99h186l-129 -825h-192z" />
    <glyph glyph-name="asciicircum" unicode="^" horiz-adv-x="383" 
d="M257 750h100l79 -222h-101l-43 121l-77 -121h-99z" />
    <glyph glyph-name="underscore" unicode="_" horiz-adv-x="404" 
d="M395 -61l-16 -96h-404l16 96h404z" />
    <glyph glyph-name="grave" unicode="`" horiz-adv-x="318" 
d="M145 687l47 91l194 -111l-39 -77z" />
    <glyph glyph-name="a" unicode="a" horiz-adv-x="496" 
d="M457 550h62l-87 -550h-67l-5 47q-59 -53 -118 -53h-56q-60 0 -89.5 52t-17.5 124l33 211q12 73 57.5 124t105.5 51h50q62 0 107 -56zM262 90q49 0 93 47l45 278q-26 46 -77 46h-31q-29 0 -53.5 -23t-30.5 -59l-32 -207q-7 -37 9.5 -59.5t46.5 -22.5h30z" />
    <glyph glyph-name="b" unicode="b" horiz-adv-x="501" 
d="M134 0h-68l119 750h97l-37 -233q51 39 104 39h49q61 0 90 -51t17 -124l-33 -211q-12 -73 -57 -124.5t-106 -51.5h-55q-59 0 -101 53zM320 461q-49 0 -92 -46l-44 -278q29 -47 81 -47h28q29 0 52.5 22.5t30.5 59.5l32 207q6 37 -11 59.5t-46 22.5h-31z" />
    <glyph glyph-name="c" unicode="c" horiz-adv-x="481" 
d="M483 358h-98l4 22q6 36 -11.5 58.5t-47.5 22.5h-33q-30 0 -54.5 -22.5t-30.5 -58.5l-33 -210q-6 -36 11.5 -58t47.5 -22h33q30 0 54 22t31 58l4 22h97l-5 -33q-12 -68 -62 -116.5t-118 -48.5h-60q-70 0 -106 48.5t-25 116.5l36 229q11 70 62.5 119t122.5 49h60
q68 0 102.5 -49t23.5 -119z" />
    <glyph glyph-name="d" unicode="d" horiz-adv-x="501" 
d="M435 0h-67l-5 48q-59 -54 -119 -54h-55q-60 0 -89.5 51.5t-18.5 124.5l34 211q12 73 57.5 124t105.5 51h50q50 0 90 -38l37 232h98zM264 90q51 0 95 47l43 278q-28 46 -76 46h-31q-29 0 -53.5 -23t-30.5 -59l-33 -207q-6 -37 11 -59.5t46 -22.5h29z" />
    <glyph glyph-name="e" unicode="e" 
d="M497 388l-25 -156h-284l-9 -62q-6 -36 11.5 -58t47.5 -22h42q31 0 56.5 22t28.5 58v1h98l-2 -12q-11 -68 -61.5 -116.5t-118.5 -48.5h-69q-70 0 -106 48.5t-25 116.5l36 229q11 70 62.5 119t122.5 49h69q68 0 102.5 -49t23.5 -119zM212 380l-10 -62h186l10 62
q5 37 -12 59t-47 22h-42q-30 0 -54.5 -22.5t-30.5 -58.5z" />
    <glyph glyph-name="f" unicode="f" horiz-adv-x="255" 
d="M61 -28l76 482h-46l15 96h47l3 22q14 86 71 132t141 46l-15 -94q-35 0 -64.5 -24t-35.5 -60l-4 -22h83l-14 -96h-84l-76 -482q-13 -86 -70 -132t-142 -46l16 94q35 0 64.5 24t34.5 60z" />
    <glyph glyph-name="g" unicode="g" horiz-adv-x="501" 
d="M522 550l-95 -601q-10 -64 -63.5 -110t-127.5 -46h-41q-76 0 -117 44t-32 106l2 13h97l-1 -6q-4 -29 15.5 -48.5t51.5 -19.5h30q33 0 59 22t32 59l11 68q-49 -37 -99 -37h-55q-60 0 -89 51.5t-18 124.5l33 211q12 73 57.5 124t106.5 51h50q62 0 106 -55l21 49h66zM265 90
q50 0 94 47l44 278q-25 46 -76 46h-32q-29 0 -53.5 -23t-29.5 -59l-33 -207q-6 -37 11 -59.5t46 -22.5h29z" />
    <glyph glyph-name="h" unicode="h" horiz-adv-x="500" 
d="M435 0h-97l62 385q5 36 -11.5 56t-46.5 20h-20q-53 0 -94 -47l-65 -414h-97l119 750h97l-37 -234q54 40 108 40h33q63 0 93 -47t18 -118z" />
    <glyph glyph-name="i" unicode="i" horiz-adv-x="229" 
d="M153 550h97l-87 -550h-97zM185 750h97l-22 -133h-97z" />
    <glyph glyph-name="j" unicode="j" horiz-adv-x="230" 
d="M154 550h97l-92 -582q-13 -85 -70.5 -130t-144.5 -45l14 94q38 0 68 22.5t36 58.5zM185 750h97l-22 -133h-97z" />
    <glyph glyph-name="k" unicode="k" horiz-adv-x="481" 
d="M470 0h-109l-108 264h-48l-42 -264h-97l119 750h97l-62 -391h49l147 191h116l-196 -233z" />
    <glyph glyph-name="l" unicode="l" horiz-adv-x="229" 
d="M185 750h97l-119 -750h-97z" />
    <glyph glyph-name="m" unicode="m" horiz-adv-x="772" 
d="M435 0h-97l62 385q5 36 -11.5 56t-46.5 20h-20q-54 0 -95 -49l-64 -412h-97l87 550h68l4 -50q64 56 128 56h33q74 0 102 -64q67 64 138 64h32q63 0 93.5 -47t18.5 -118l-63 -391h-97l61 385q6 36 -10.5 56t-47.5 20h-20q-52 0 -94 -48q0 -8 -2 -22z" />
    <glyph glyph-name="n" unicode="n" horiz-adv-x="500" 
d="M435 0h-97l62 385q5 36 -11.5 56t-46.5 20h-20q-54 0 -95 -49l-64 -412h-97l87 550h68l4 -50q64 56 128 56h33q63 0 93 -47t18 -118z" />
    <glyph glyph-name="o" unicode="o" 
d="M238 90h42q30 0 54.5 22t30.5 58l33 210q6 36 -11.5 58.5t-47.5 22.5h-42q-30 0 -54.5 -22.5t-30.5 -58.5l-33 -210q-6 -36 11.5 -58t47.5 -22zM281 -6h-69q-70 0 -106 48.5t-25 116.5l36 229q11 70 62.5 119t122.5 49h69q68 0 102 -49t23 -119l-35 -229
q-11 -68 -61.5 -116.5t-118.5 -48.5z" />
    <glyph glyph-name="p" unicode="p" horiz-adv-x="501" 
d="M153 550h68l3 -49q63 55 125 55h49q61 0 90 -51t17 -124l-33 -211q-12 -73 -57 -124.5t-106 -51.5h-55q-50 0 -87 37l-37 -238h-97zM320 461q-50 0 -93 -48l-43 -275q27 -48 80 -48h28q29 0 53 22.5t31 59.5l32 207q6 37 -11 59.5t-46 22.5h-31z" />
    <glyph glyph-name="q" unicode="q" horiz-adv-x="501" 
d="M455 550h67l-120 -757h-98l37 238q-48 -37 -97 -37h-55q-60 0 -89.5 51.5t-18.5 124.5l34 211q12 73 57.5 124t105.5 51h50q61 0 106 -56zM264 90q52 0 94 47l44 278q-28 46 -76 46h-31q-29 0 -53.5 -23t-30.5 -59l-33 -207q-6 -37 11 -59.5t46 -22.5h29z" />
    <glyph glyph-name="r" unicode="r" horiz-adv-x="344" 
d="M420 555l-16 -96h-63q-30 0 -62 -18t-55 -48l-61 -393h-97l87 550h68l3 -64q72 69 145 69h51z" />
    <glyph glyph-name="s" unicode="s" horiz-adv-x="480" 
d="M353 139l4 21q2 11 -5 20.5t-23.5 19t-31 15.5t-40.5 15q-29 11 -51 23t-43 30t-30.5 43.5t-4.5 56.5l7 40q9 55 54.5 94t109.5 39h55q64 0 97.5 -42.5t23.5 -103.5l-3 -21h-92l3 16q4 26 -11.5 41t-39.5 15h-37q-22 0 -39.5 -12.5t-21.5 -32.5l-3 -21q-4 -22 15 -35.5
t64 -32.5q29 -12 43 -19t39 -22.5t36.5 -30t19.5 -38t4 -50.5l-6 -36q-9 -55 -57 -96t-113 -41h-69q-69 0 -104 42.5t-26 101.5l4 26h96l-4 -19q-4 -24 13 -39.5t46 -15.5h52q25 0 45 14t24 35z" />
    <glyph glyph-name="t" unicode="t" horiz-adv-x="281" 
d="M341 550l-16 -95h-86l-45 -285q-6 -36 14.5 -59t56.5 -23l-14 -94q-87 0 -127 44.5t-27 131.5l46 285h-61l15 95h62l52 150h67l-24 -150h87z" />
    <glyph glyph-name="u" unicode="u" horiz-adv-x="497" 
d="M152 550h97l-62 -385q-5 -36 11 -56t46 -20h22q47 0 87 43l67 418h97l-87 -550h-67l-5 47q-61 -53 -125 -53h-32q-63 0 -93 47.5t-18 117.5z" />
    <glyph glyph-name="v" unicode="v" horiz-adv-x="445" 
d="M280 0h-109l-73 550h99l48 -419l176 419h100z" />
    <glyph glyph-name="w" unicode="w" horiz-adv-x="718" 
d="M260 0h-108l-54 550h99l31 -407l165 407h105l37 -410l159 410h100l-224 -550h-110l-39 391z" />
    <glyph glyph-name="x" unicode="x" horiz-adv-x="479" 
d="M127 0h-110l213 283l-113 267h110l74 -175l123 175h112l-194 -271l119 -279h-110l-81 189z" />
    <glyph glyph-name="y" unicode="y" horiz-adv-x="476" 
d="M190 -207h-99l99 210l-90 547h100l63 -393l187 393h100z" />
    <glyph glyph-name="z" unicode="z" horiz-adv-x="445" 
d="M478 550l-15 -95l-292 -359h246l-15 -96h-358l15 96l291 359h-223l15 95h336z" />
    <glyph glyph-name="braceleft" unicode="{" horiz-adv-x="322" 
d="M115 42l22 142q4 26 -11.5 43.5t-41.5 19.5h-19l15 95h14q28 0 51 18t27 45l23 143q12 78 66 118t136 40h4l-15 -94h-4q-33 0 -59 -18t-30 -46l-24 -149q-9 -57 -69 -105q45 -48 37 -103l-24 -149q-5 -28 15 -46t53 -18h5l-15 -94h-4q-83 0 -123.5 40t-28.5 118z" />
    <glyph glyph-name="bar" unicode="|" horiz-adv-x="237" 
d="M131 -230h-97l158 1000h97z" />
    <glyph glyph-name="braceright" unicode="}" horiz-adv-x="322" 
d="M242 184l-22 -142q-12 -78 -66 -118t-136 -40h-3l14 94h4q33 0 59 18t30 46l24 149q9 56 69 104q-45 48 -36 104l23 149q4 28 -16 46t-53 18h-3l15 94h4q82 0 122.5 -40t28.5 -118l-23 -143q-4 -27 13 -45t45 -18h14l-14 -95h-20q-27 -2 -48 -19.5t-25 -43.5z" />
    <glyph glyph-name="asciitilde" unicode="~" horiz-adv-x="417" 
d="M147 215h-75l9 52q7 49 25 72.5t57 23.5q36 0 98 -31q50 -26 73 -26q19 0 22 21l5 34h74l-10 -65q-13 -80 -79 -80q-38 0 -92 24q-64 30 -79 30q-18 0 -23 -28z" />
    <glyph glyph-name="exclamdown" unicode="&#xa1;" horiz-adv-x="228" 
d="M153 550h97l-21 -132h-97zM120 338h97l-84 -526h-97z" />
    <glyph glyph-name="cent" unicode="&#xa2;" horiz-adv-x="489" 
d="M265 -159h-81l24 154q-69 4 -104 49t-25 106l40 251q9 61 58.5 105.5t119.5 48.5l25 157h80l-25 -157q64 -5 97.5 -49.5t24.5 -104.5l-7 -43h-98l4 22q6 36 -11.5 58.5t-47.5 22.5h-42q-30 0 -54.5 -22.5t-30.5 -58.5l-34 -210q-5 -36 12.5 -58t47.5 -22h42q30 0 54 22
t30 58l4 22h97l-6 -42q-10 -60 -57 -105t-113 -50z" />
    <glyph glyph-name="sterling" unicode="&#xa3;" horiz-adv-x="549" 
d="M436 205h101l-33 -205h-487l16 99h75l33 206h-76l16 100h76l23 145q10 64 65 110t131 46h55q74 0 113 -46t29 -110l-13 -80h-100l9 57q5 36 -13 58t-52 22h-37q-33 0 -59 -22t-31 -58l-20 -122h115l-15 -100h-116l-32 -206h210z" />
    <glyph glyph-name="yen" unicode="&#xa5;" horiz-adv-x="563" 
d="M335 0h-100l16 101h-151l16 97h150l12 74h-150l15 97h114l-114 332h103l102 -301l195 301h100l-215 -332h111l-16 -97h-145l-12 -74h145l-15 -97h-145z" />
    <glyph glyph-name="section" unicode="&#xa7;" horiz-adv-x="546" 
d="M515 182q-11 -63 -53 -105q33 -41 26 -91l-6 -41q-9 -64 -65.5 -107.5t-136.5 -43.5h-89q-80 0 -122.5 45.5t-33.5 109.5l7 45h100l-4 -22q-5 -35 16.5 -57t58.5 -22h72q38 0 65.5 17.5t32.5 49.5l4 18q1 6 0 12t-5.5 12t-9 11t-13 11t-15 10t-19 10.5t-20 10t-22 10.5
t-22.5 11q-38 19 -63 35t-51 41t-36.5 56.5t-4.5 69.5l7 45q9 58 52 101q-29 42 -21 94l7 42q9 59 62 102.5t127 43.5h64q78 0 119.5 -44.5t32.5 -107.5l-6 -44h-101l3 20q5 35 -15 56t-55 21h-48q-32 0 -56 -17t-28 -45l-3 -19q-4 -6 0 -14t3.5 -12.5t7 -11.5t10.5 -10.5
t13 -10.5t15.5 -10.5t17.5 -10t18.5 -10t20 -10t20.5 -10.5q37 -19 60 -34t49 -38.5t36 -52.5t4 -64zM328 313q-66 32 -88 46q-25 -20 -29 -50l-4 -31q-5 -30 21.5 -52t82.5 -50l71 -37q29 22 34 57l5 31q3 23 -20.5 42t-72.5 44z" />
    <glyph glyph-name="dieresis" unicode="&#xa8;" horiz-adv-x="364" 
d="M157 759h98l-22 -133h-98zM351 759h99l-21 -133h-99z" />
    <glyph glyph-name="copyright" unicode="&#xa9;" horiz-adv-x="697" 
d="M214 57h287q36 0 66.5 28.5t36.5 68.5l63 391q6 41 -15 70t-57 29h-288q-37 0 -67 -29t-37 -70l-62 -391q-6 -41 15 -69t58 -28zM491 -6h-288q-59 0 -94 47t-25 113l63 391q10 67 60 114t109 47h288q59 0 94.5 -47.5t25.5 -113.5l-62 -391q-10 -66 -61 -113t-110 -47z
M476 285h57l-7 -47q-7 -48 -43.5 -82t-80.5 -34h-73q-43 0 -68.5 34t-17.5 82l34 218q8 48 44 82t80 34h73q43 0 69 -34.5t18 -81.5l-7 -45h-58l7 45q4 21 -7.5 37.5t-31.5 16.5h-74q-19 0 -36 -16.5t-20 -37.5l-35 -218q-4 -22 8 -38t32 -16h73q21 0 37.5 15.5t19.5 38.5z
" />
    <glyph glyph-name="ordfeminine" unicode="&#xaa;" horiz-adv-x="276" 
d="M266 701q34 0 54 -24.5t15 -58.5l-35 -214h-47l-2 23q-37 -26 -68 -26h-10q-32 0 -51.5 24t-14.5 55l4 26q4 27 30 46.5t60 25.5l65 10l4 26q2 7 -2 12t-11 5h-38q-13 0 -13 -11l-3 -9h-64l3 18q5 32 32 52t61 20h31zM202 469q19 0 49 24l4 29l-63 -12q-15 -3 -19 -15
l-1 -8q-2 -18 15 -18h15z" />
    <glyph glyph-name="guillemotleft" unicode="&#xab;" horiz-adv-x="643" 
d="M79 217l19 115l301 176l-18 -113l-204 -120l166 -120l-18 -113zM355 217l18 115l301 176l-18 -113l-204 -121l166 -119l-18 -113z" />
    <glyph glyph-name="registered" unicode="&#xae;" horiz-adv-x="697" 
d="M491 -6h-288q-59 0 -94 47t-25 113l63 391q10 67 60 114t109 47h288q59 0 94.5 -47.5t25.5 -113.5l-62 -391q-10 -66 -61 -113t-110 -47zM214 57h287q36 0 66.5 28.5t36.5 68.5l63 391q6 41 -15 70t-57 29h-288q-37 0 -67 -29t-37 -70l-62 -391q-6 -41 15 -69t58 -28z
M288 123h-57l72 449h157q49 0 77 -31t21 -79l-9 -55q-5 -31 -30 -59.5t-58 -41.5l53 -183h-66l-51 177h-81zM450 510h-100l-24 -148h109q20 0 37 14t19 31l9 55q4 20 -11 34t-39 14z" />
    <glyph glyph-name="macron" unicode="&#xaf;" horiz-adv-x="375" 
d="M436 713l-15 -96h-263l16 96h262z" />
    <glyph glyph-name="degree" unicode="&#xb0;" horiz-adv-x="398" 
d="M285 356h-54q-63 0 -94.5 39t-22.5 94l13 85q9 55 53 94t107 39h53q61 0 91.5 -39t21.5 -94l-13 -85q-9 -55 -51.5 -94t-103.5 -39zM275 611q-19 0 -34 -12.5t-19 -35.5l-10 -63q-4 -23 7 -35.5t30 -12.5h43q20 0 34.5 12.5t18.5 35.5l10 63q4 23 -7 35.5t-30 12.5h-43z
" />
    <glyph glyph-name="twosuperior" unicode="&#xb2;" horiz-adv-x="313" 
d="M360 563q-6 -40 -44 -68q-18 -15 -63 -39t-61 -36q-11 -7 -14 -22l-1 -6h160l-12 -79h-237l15 92q7 47 49 78q16 12 58 35t59 38q15 12 18 27l2 16q1 13 -5.5 20.5t-17.5 7.5h-18q-12 0 -21 -8t-11 -20l-5 -30h-77l7 42q6 39 38 67t76 28h27q45 0 68.5 -29.5t16.5 -72.5z
" />
    <glyph glyph-name="threesuperior" unicode="&#xb3;" horiz-adv-x="316" 
d="M342 404q-6 -40 -38 -69t-76 -29h-40q-45 0 -68.5 28.5t-17.5 67.5l6 39h78l-4 -27q-2 -13 4.5 -20.5t17.5 -7.5h30q11 0 20.5 8.5t11.5 21.5l4 23q3 13 -5 21t-21 8h-43l13 80h39q24 0 27 24l5 30q2 10 -3.5 17t-15.5 7h-17q-22 0 -27 -24l-4 -26h-78l6 38
q5 37 37.5 64.5t75.5 27.5h26q43 0 64.5 -27.5t15.5 -64.5l-9 -53q-4 -27 -36 -50q35 -26 30 -59z" />
    <glyph glyph-name="acute" unicode="&#xb4;" horiz-adv-x="318" 
d="M371 778l19 -91l-232 -97l-17 77z" />
    <glyph glyph-name="mu" unicode="&#xb5;" horiz-adv-x="508" 
d="M153 550h97l-63 -394q-2 -32 14.5 -49t44.5 -17h23q53 0 97 46l66 414h97l-87 -550h-67l-5 53q-70 -59 -141 -59h-34q-13 0 -33 4l-32 -204h-97z" />
    <glyph glyph-name="paragraph" unicode="&#xb6;" horiz-adv-x="733" 
d="M428 -191h-100l68 428h-143q-73 0 -111.5 46.5t-28.5 108.5l24 158q10 63 64.5 107t130.5 44h474l-16 -100h-64l-125 -792h-101l126 792h-72z" />
    <glyph glyph-name="periodcentered" unicode="&#xb7;" horiz-adv-x="223" 
d="M120 354h97l-22 -134h-96z" />
    <glyph glyph-name="cedilla" unicode="&#xb8;" horiz-adv-x="230" 
d="M88 7h63l-24 -44q49 -13 49 -67q0 -45 -29 -74t-93 -29h-50l11 63h53q49 0 49 30q0 11 -8 20t-25 9h-44z" />
    <glyph glyph-name="onesuperior" unicode="&#xb9;" horiz-adv-x="274" 
d="M220 700h68l-49 -308h60l-13 -79h-198l13 79h61l35 220l-67 -36l13 83z" />
    <glyph glyph-name="ordmasculine" unicode="&#xba;" horiz-adv-x="276" 
d="M218 401h-41q-34 0 -54.5 24t-15.5 57l22 136q5 34 33 58.5t62 24.5h42q34 0 54 -24.5t15 -58.5l-22 -136q-5 -33 -33 -57t-62 -24zM213 631q-16 0 -22 -19l-19 -124q-2 -16 16 -16h41q19 0 21 16l20 124q2 8 -3 13.5t-12 5.5h-42z" />
    <glyph glyph-name="guillemotright" unicode="&#xbb;" horiz-adv-x="643" 
d="M650 332l-19 -115l-300 -175l18 113l203 119l-165 121l17 113zM374 332l-18 -115l-300 -175l18 113l203 119l-165 121l17 113z" />
    <glyph glyph-name="onequarter" unicode="&#xbc;" horiz-adv-x="661" 
d="M578 388h72l-36 -226h35l-12 -79h-35l-14 -83h-77l14 83h-136l11 69zM488 162h49l13 82q-2 -4 -31 -41t-31 -41zM248 0h-92l380 700h92zM220 700h68l-49 -308h60l-13 -79h-198l13 79h61l35 220l-67 -36l13 83z" />
    <glyph glyph-name="onehalf" unicode="&#xbd;" horiz-adv-x="686" 
d="M249 0h-92l380 700h92zM683 251q-6 -40 -44 -68q-18 -15 -63 -39t-61 -36q-11 -7 -14 -22l-1 -6h160l-12 -79h-237l15 92q7 47 49 78q16 12 58 35t59 38q15 12 18 27l2 16q1 13 -5.5 20.5t-17.5 7.5h-18q-12 0 -21 -8t-11 -20l-5 -30h-77l7 42q6 39 38 67t76 28h27
q45 0 68.5 -29.5t16.5 -72.5zM220 700h68l-49 -308h60l-13 -79h-198l13 79h61l35 220l-67 -36l13 83z" />
    <glyph glyph-name="threequarters" unicode="&#xbe;" horiz-adv-x="694" 
d="M611 388h71l-35 -226h35l-12 -79h-35l-14 -83h-77l13 83h-136l12 69zM520 162h49l14 82zM281 0h-92l380 700h93zM342 404q-6 -40 -38 -69t-76 -29h-40q-45 0 -68.5 28.5t-17.5 67.5l6 39h78l-4 -27q-2 -13 4.5 -20.5t17.5 -7.5h30q11 0 20.5 8.5t11.5 21.5l4 23
q3 13 -5 21t-21 8h-43l13 80h39q24 0 27 24l5 30q2 10 -3.5 17t-15.5 7h-17q-22 0 -27 -24l-4 -26h-78l6 38q5 37 37.5 64.5t75.5 27.5h26q43 0 64.5 -27.5t15.5 -64.5l-9 -53q-4 -27 -36 -50q35 -26 30 -59z" />
    <glyph glyph-name="questiondown" unicode="&#xbf;" horiz-adv-x="493" 
d="M56 0l14 90q9 59 58 102q8 8 57.5 46t56.5 45q28 27 32 53l7 36h99l-12 -73q-9 -59 -56 -96q-7 -7 -61.5 -44.5t-62.5 -46.5q-16 -15 -21 -44l-7 -44q-6 -37 12.5 -58.5t51.5 -21.5h39q33 0 58.5 21.5t31.5 58.5l9 54h100l-12 -78q-10 -64 -63.5 -110t-127.5 -46h-56
q-77 0 -117 46t-30 110zM387 418h-100l21 132h100z" />
    <glyph glyph-name="Agrave" unicode="&#xc0;" horiz-adv-x="593" 
d="M357 703h101l103 -703h-101l-23 173h-228l-77 -173h-100zM384 565l-131 -292h170zM308 838l51 99l195 -95l-45 -88z" />
    <glyph glyph-name="Aacute" unicode="&#xc1;" horiz-adv-x="593" 
d="M357 703h101l103 -703h-101l-23 173h-228l-77 -173h-100zM384 565l-131 -292h170zM541 937l20 -99l-227 -84l-18 88z" />
    <glyph glyph-name="Acircumflex" unicode="&#xc2;" horiz-adv-x="593" 
d="M357 703h101l103 -703h-101l-23 173h-228l-77 -173h-100zM436 937h16l125 -83l-45 -93l-106 67l-125 -67l-18 87zM384 565l-131 -292h170z" />
    <glyph glyph-name="Atilde" unicode="&#xc3;" horiz-adv-x="593" 
d="M357 703h101l103 -703h-101l-23 173h-228l-77 -173h-100zM348 768h-81l7 45q8 51 26.5 75t58.5 24q24 0 62.5 -25t60.5 -25q15 0 18 16l4 29h80l-9 -60q-13 -81 -82 -81q-27 0 -67 23t-58 23q-13 0 -16 -23zM384 565l-131 -292h170z" />
    <glyph glyph-name="Adieresis" unicode="&#xc4;" horiz-adv-x="593" 
d="M357 703h101l103 -703h-101l-23 173h-228l-77 -173h-100zM384 565l-131 -292h170zM294 909h105l-21 -132h-105zM482 909h105l-22 -132h-105z" />
    <glyph glyph-name="Aring" unicode="&#xc5;" horiz-adv-x="593" 
d="M298 763q8 47 44.5 80.5t87.5 33.5h13q49 0 74.5 -33.5t17.5 -80.5l-4 -20q-12 -66 -65 -98l95 -645h-101l-23 173h-228l-77 -173h-100l298 645q-49 33 -36 98zM384 565l-131 -292h170zM459 748l2 9q5 22 -6 35.5t-30 13.5h-4q-18 0 -32.5 -13.5t-18.5 -35.5l-2 -9
q-7 -34 20 -45h36q27 10 35 45z" />
    <glyph glyph-name="AE" unicode="&#xc6;" horiz-adv-x="828" 
d="M780 99l-15 -99h-383l26 167h-170l-106 -167h-107l448 701h394l-16 -100h-274l-30 -192h245l-15 -100h-246l-34 -210h283zM302 267h122l40 254z" />
    <glyph glyph-name="Ccedilla" unicode="&#xc7;" horiz-adv-x="556" 
d="M434 233h100l-13 -83q-10 -64 -63.5 -110t-128.5 -46h-19l-17 -31q49 -13 49 -67q0 -45 -29 -74t-93 -29h-50l11 63h53q49 0 49 30q0 11 -8 20t-25 9h-44l41 79h-18q-76 0 -116.5 46t-30.5 110l64 400q10 64 65 110t131 46h100q75 0 114 -46t29 -110l-13 -80h-101l10 57
q5 36 -13.5 58t-51.5 22h-83q-32 0 -58 -22t-31 -58l-57 -354q-5 -36 13.5 -58t50.5 -22h83q33 0 59 22t31 58z" />
    <glyph glyph-name="Egrave" unicode="&#xc8;" horiz-adv-x="516" 
d="M469 99l-16 -99h-383l111 701h374l-15 -100h-275l-30 -192h246l-16 -100h-246l-34 -210h284zM269 838l51 99l195 -95l-45 -88z" />
    <glyph glyph-name="Eacute" unicode="&#xc9;" horiz-adv-x="516" 
d="M469 99l-16 -99h-383l111 701h374l-15 -100h-275l-30 -192h246l-16 -100h-246l-34 -210h284zM504 937l20 -99l-227 -84l-18 88z" />
    <glyph glyph-name="Ecircumflex" unicode="&#xca;" horiz-adv-x="516" 
d="M469 99l-16 -99h-383l111 701h374l-15 -100h-275l-30 -192h246l-16 -100h-246l-34 -210h284zM398 937h16l125 -83l-45 -93l-106 67l-125 -67l-18 87z" />
    <glyph glyph-name="Edieresis" unicode="&#xcb;" horiz-adv-x="516" 
d="M469 99l-16 -99h-383l111 701h374l-15 -100h-275l-30 -192h246l-16 -100h-246l-34 -210h284zM257 909h105l-21 -132h-105zM445 909h105l-22 -132h-105z" />
    <glyph glyph-name="Igrave" unicode="&#xcc;" horiz-adv-x="240" 
d="M170 0h-100l111 701h100zM132 838l51 99l195 -95l-45 -88z" />
    <glyph glyph-name="Iacute" unicode="&#xcd;" horiz-adv-x="240" 
d="M170 0h-100l111 701h100zM365 937l20 -99l-227 -84l-18 88z" />
    <glyph glyph-name="Icircumflex" unicode="&#xce;" horiz-adv-x="240" 
d="M170 0h-100l111 701h100zM261 937h16l125 -83l-45 -93l-106 67l-125 -67l-18 87z" />
    <glyph glyph-name="Idieresis" unicode="&#xcf;" horiz-adv-x="240" 
d="M170 0h-100l111 701h100zM118 909h105l-21 -132h-105zM306 909h105l-22 -132h-105z" />
    <glyph glyph-name="Eth" unicode="&#xd0;" horiz-adv-x="576" 
d="M351 0h-281l50 315h-61l16 96h60l46 289h281q75 0 113.5 -46t28.5 -110l-62 -388q-10 -64 -63 -110t-128 -46zM362 411l-16 -96h-126l-35 -216h171q33 0 59 22t31 58l54 342q6 36 -13 58t-51 22h-171l-30 -190h127z" />
    <glyph glyph-name="Ntilde" unicode="&#xd1;" horiz-adv-x="587" 
d="M170 0h-100l111 701h100l169 -496l79 496h100l-111 -701h-102l-168 493zM347 768h-81l7 45q8 51 26.5 75t58.5 24q24 0 62.5 -25t60.5 -25q15 0 18 16l4 29h80l-9 -60q-13 -81 -82 -81q-26 0 -67 23t-58 23q-13 0 -16 -23z" />
    <glyph glyph-name="Ograve" unicode="&#xd2;" horiz-adv-x="566" 
d="M292 838l51 99l195 -95l-45 -88zM251 93h93q33 0 59 22t31 58l57 354q5 36 -14 58t-51 22h-93q-32 0 -58 -22t-31 -58l-57 -354q-5 -36 13.5 -58t50.5 -22zM339 -6h-110q-76 0 -116.5 46t-30.5 110l64 400q10 64 65 110t131 46h110q75 0 114 -46t29 -110l-64 -400
q-10 -64 -63.5 -110t-128.5 -46z" />
    <glyph glyph-name="Oacute" unicode="&#xd3;" horiz-adv-x="566" 
d="M530 937l20 -99l-227 -84l-18 88zM251 93h93q33 0 59 22t31 58l57 354q5 36 -14 58t-51 22h-93q-32 0 -58 -22t-31 -58l-57 -354q-5 -36 13.5 -58t50.5 -22zM339 -6h-110q-76 0 -116.5 46t-30.5 110l64 400q10 64 65 110t131 46h110q75 0 114 -46t29 -110l-64 -400
q-10 -64 -63.5 -110t-128.5 -46z" />
    <glyph glyph-name="Ocircumflex" unicode="&#xd4;" horiz-adv-x="566" 
d="M423 937h16l125 -83l-45 -93l-106 67l-125 -67l-18 87zM251 93h93q33 0 59 22t31 58l57 354q5 36 -14 58t-51 22h-93q-32 0 -58 -22t-31 -58l-57 -354q-5 -36 13.5 -58t50.5 -22zM339 -6h-110q-76 0 -116.5 46t-30.5 110l64 400q10 64 65 110t131 46h110q75 0 114 -46
t29 -110l-64 -400q-10 -64 -63.5 -110t-128.5 -46z" />
    <glyph glyph-name="Otilde" unicode="&#xd5;" horiz-adv-x="566" 
d="M251 93h93q33 0 59 22t31 58l57 354q5 36 -14 58t-51 22h-93q-32 0 -58 -22t-31 -58l-57 -354q-5 -36 13.5 -58t50.5 -22zM339 -6h-110q-76 0 -116.5 46t-30.5 110l64 400q10 64 65 110t131 46h110q75 0 114 -46t29 -110l-64 -400q-10 -64 -63.5 -110t-128.5 -46z
M335 768h-81l7 45q8 51 26.5 75t58.5 24q24 0 62.5 -25t60.5 -25q15 0 18 16l4 29h80l-9 -60q-13 -81 -82 -81q-26 0 -67 23t-58 23q-13 0 -16 -23z" />
    <glyph glyph-name="Odieresis" unicode="&#xd6;" horiz-adv-x="566" 
d="M251 93h93q33 0 59 22t31 58l57 354q5 36 -14 58t-51 22h-93q-32 0 -58 -22t-31 -58l-57 -354q-5 -36 13.5 -58t50.5 -22zM339 -6h-110q-76 0 -116.5 46t-30.5 110l64 400q10 64 65 110t131 46h110q75 0 114 -46t29 -110l-64 -400q-10 -64 -63.5 -110t-128.5 -46z
M280 909h105l-21 -132h-105zM468 909h105l-22 -132h-105z" />
    <glyph glyph-name="multiply" unicode="&#xd7;" horiz-adv-x="454" 
d="M108 124l-50 68l163 153l-114 154l71 68l115 -154l163 154l51 -68l-164 -154l115 -153l-72 -68l-115 154z" />
    <glyph glyph-name="Oslash" unicode="&#xd8;" horiz-adv-x="566" 
d="M73 -100h-62l96 145q-34 45 -25 105l64 400q10 64 65 110t131 46h110q47 0 81 -20l75 112h61l-97 -146q32 -43 23 -102l-64 -400q-10 -64 -63.5 -110t-128.5 -46h-110q-49 0 -82 18zM187 173q-1 -4 -1 -10l284 428q-18 16 -44 16h-93q-32 0 -58 -22t-31 -58zM251 93h93
q33 0 59 22t31 58l57 357l-282 -424q16 -13 42 -13z" />
    <glyph glyph-name="Ugrave" unicode="&#xd9;" horiz-adv-x="578" 
d="M297 838l51 99l195 -95l-45 -88zM536 150q-10 -64 -63.5 -110t-127.5 -46h-108q-76 0 -116.5 46t-30.5 110l87 551h101l-83 -528q-6 -36 12.5 -58t50.5 -22h91q33 0 58.5 22t30.5 58l84 528h101z" />
    <glyph glyph-name="Uacute" unicode="&#xda;" horiz-adv-x="578" 
d="M536 150q-10 -64 -63.5 -110t-127.5 -46h-108q-76 0 -116.5 46t-30.5 110l87 551h101l-83 -528q-6 -36 12.5 -58t50.5 -22h91q33 0 58.5 22t30.5 58l84 528h101zM539 937l20 -99l-227 -84l-18 88z" />
    <glyph glyph-name="Ucircumflex" unicode="&#xdb;" horiz-adv-x="578" 
d="M429 937h16l125 -83l-45 -93l-106 67l-125 -67l-18 87zM536 150q-10 -64 -63.5 -110t-127.5 -46h-108q-76 0 -116.5 46t-30.5 110l87 551h101l-83 -528q-6 -36 12.5 -58t50.5 -22h91q33 0 58.5 22t30.5 58l84 528h101z" />
    <glyph glyph-name="Udieresis" unicode="&#xdc;" horiz-adv-x="578" 
d="M536 150q-10 -64 -63.5 -110t-127.5 -46h-108q-76 0 -116.5 46t-30.5 110l87 551h101l-83 -528q-6 -36 12.5 -58t50.5 -22h91q33 0 58.5 22t30.5 58l84 528h101zM286 909h105l-21 -132h-105zM474 909h105l-22 -132h-105z" />
    <glyph glyph-name="Yacute" unicode="&#xdd;" horiz-adv-x="563" 
d="M335 0h-100l43 280l-135 421h103l100 -315l197 315h100l-264 -421zM528 937l20 -99l-227 -84l-18 88z" />
    <glyph glyph-name="Thorn" unicode="&#xde;" horiz-adv-x="546" 
d="M170 0h-100l111 701h100l-19 -117h155q77 0 117.5 -43.5t30.5 -106.5l-24 -147q-10 -63 -63 -109t-127 -46h-160zM390 485h-143l-41 -254h150q32 0 57.5 22.5t30.5 56.5l17 101q5 34 -15 54t-56 20z" />
    <glyph glyph-name="germandbls" unicode="&#xdf;" horiz-adv-x="500" 
d="M299 375q10 46 36 81q8 11 23.5 28.5t23.5 29t10 23.5l1 7q4 27 -11 46.5t-40 19.5h-25q-25 0 -49 -22t-28 -53l-85 -535h-97l87 544q11 67 60.5 114.5t110.5 47.5h52q62 0 97.5 -47.5t24.5 -114.5l-2 -11q-8 -47 -52 -91q-2 -2 -8.5 -9.5t-9 -10t-7.5 -9t-7 -11
t-4.5 -10.5t-3.5 -13l-2 -14q-4 -25 22 -53l13.5 -13.5t14 -14.5t13.5 -16t11.5 -18.5t8.5 -22.5t4 -26.5t-2 -31.5l-3 -19q-10 -63 -54 -106.5t-103 -43.5h-94l15 96h80q26 0 41 16t19 41l1 9q4 19 -19 43q-4 5 -13 14.5t-14.5 15.5t-14.5 17.5t-12.5 20t-9 23.5t-4.5 27.5
t2 32.5z" />
    <glyph glyph-name="agrave" unicode="&#xe0;" horiz-adv-x="496" 
d="M457 550h62l-87 -550h-67l-5 47q-59 -53 -118 -53h-56q-60 0 -89.5 52t-17.5 124l33 211q12 73 57.5 124t105.5 51h50q62 0 107 -56zM262 90q49 0 93 47l45 278q-26 46 -77 46h-31q-29 0 -53.5 -23t-30.5 -59l-32 -207q-7 -37 9.5 -59.5t46.5 -22.5h30zM234 687l47 91
l194 -111l-39 -77z" />
    <glyph glyph-name="aacute" unicode="&#xe1;" horiz-adv-x="496" 
d="M457 550h62l-87 -550h-67l-5 47q-59 -53 -118 -53h-56q-60 0 -89.5 52t-17.5 124l33 211q12 73 57.5 124t105.5 51h50q62 0 107 -56zM262 90q49 0 93 47l45 278q-26 46 -77 46h-31q-29 0 -53.5 -23t-30.5 -59l-32 -207q-7 -37 9.5 -59.5t46.5 -22.5h30zM462 778l19 -91
l-232 -97l-17 77z" />
    <glyph glyph-name="acircumflex" unicode="&#xe2;" horiz-adv-x="496" 
d="M457 550h62l-87 -550h-67l-5 47q-59 -53 -118 -53h-56q-60 0 -89.5 52t-17.5 124l33 211q12 73 57.5 124t105.5 51h50q62 0 107 -56zM262 90q49 0 93 47l45 278q-26 46 -77 46h-31q-29 0 -53.5 -23t-30.5 -59l-32 -207q-7 -37 9.5 -59.5t46.5 -22.5h30zM361 764h18
l113 -92l-41 -82l-97 73l-119 -73l-18 77z" />
    <glyph glyph-name="atilde" unicode="&#xe3;" horiz-adv-x="496" 
d="M457 550h62l-87 -550h-67l-5 47q-59 -53 -118 -53h-56q-60 0 -89.5 52t-17.5 124l33 211q12 73 57.5 124t105.5 51h50q62 0 107 -56zM262 90q49 0 93 47l45 278q-26 46 -77 46h-31q-29 0 -53.5 -23t-30.5 -59l-32 -207q-7 -37 9.5 -59.5t46.5 -22.5h30zM274 612h-75l6 42
q8 49 25.5 72.5t55.5 23.5q26 0 67 -25t59 -25q19 0 22 20l4 25h76l-10 -56q-13 -79 -79 -79q-32 0 -73.5 23.5t-53.5 23.5q-16 0 -21 -28z" />
    <glyph glyph-name="adieresis" unicode="&#xe4;" horiz-adv-x="496" 
d="M457 550h62l-87 -550h-67l-5 47q-59 -53 -118 -53h-56q-60 0 -89.5 52t-17.5 124l33 211q12 73 57.5 124t105.5 51h50q62 0 107 -56zM262 90q49 0 93 47l45 278q-26 46 -77 46h-31q-29 0 -53.5 -23t-30.5 -59l-32 -207q-7 -37 9.5 -59.5t46.5 -22.5h30zM416 759h99
l-21 -133h-99zM222 759h98l-22 -133h-98z" />
    <glyph glyph-name="aring" unicode="&#xe5;" horiz-adv-x="496" 
d="M457 550h62l-87 -550h-67l-5 47q-59 -53 -118 -53h-56q-60 0 -89.5 52t-17.5 124l33 211q12 73 57.5 124t105.5 51h50q62 0 107 -56zM262 90q49 0 93 47l45 278q-26 46 -77 46h-31q-29 0 -53.5 -23t-30.5 -59l-32 -207q-7 -37 9.5 -59.5t46.5 -22.5h30zM246 722
q7 47 44 80.5t88 33.5h13q49 0 73.5 -33.5t17.5 -80.5l-3 -20q-6 -47 -42 -81t-85 -34h-13q-51 0 -77 33.5t-19 81.5zM408 708l1 9q3 21 -7.5 34.5t-28.5 13.5h-5q-18 0 -32.5 -13.5t-17.5 -34.5l-1 -9q-3 -23 6.5 -36t27.5 -13h6q17 0 32 13.5t19 35.5z" />
    <glyph glyph-name="ae" unicode="&#xe6;" horiz-adv-x="768" 
d="M777 401l-27 -169h-284l-8 -62q-6 -36 11.5 -58t47.5 -22h41q30 0 54 21t31 55l1 5h96l-3 -24q-9 -63 -61 -108t-124 -45h-52q-93 0 -129 68q-68 -68 -138 -68h-48q-59 0 -89.5 40t-21.5 95l8 51q11 61 61.5 98t117.5 46l127 17l8 48q5 33 -9 52.5t-40 19.5h-45
q-24 0 -43.5 -15t-23.5 -41l-2 -17h-97l3 22q9 61 59 103.5t119 42.5h51q58 0 97 -51q58 51 124 51h52q72 0 109 -45.5t27 -109.5zM252 90q59 0 105 49q0 8 1 11l16 101l-116 -19q-30 -5 -53.5 -23t-27.5 -41l-5 -26q-4 -23 9.5 -37.5t34.5 -14.5h36zM490 380l-10 -62h186
l10 62q5 37 -12 59t-47 22h-42q-30 0 -54.5 -22.5t-30.5 -58.5z" />
    <glyph glyph-name="ccedilla" unicode="&#xe7;" horiz-adv-x="481" 
d="M483 358h-98l4 22q6 36 -11.5 58.5t-47.5 22.5h-33q-30 0 -54.5 -22.5t-30.5 -58.5l-33 -210q-6 -36 11.5 -58t47.5 -22h33q30 0 54 22t31 58l4 22h97l-5 -33q-12 -68 -62 -116.5t-118 -48.5h-4l-17 -31q49 -13 49 -67q0 -45 -29 -74t-93 -29h-50l11 63h53q49 0 49 30
q0 11 -8 20t-25 9h-44l41 79q-67 3 -101 51t-23 114l36 229q11 70 62.5 119t122.5 49h60q68 0 102.5 -49t23.5 -119z" />
    <glyph glyph-name="egrave" unicode="&#xe8;" 
d="M497 388l-25 -156h-284l-9 -62q-6 -36 11.5 -58t47.5 -22h42q31 0 56.5 22t28.5 58v1h98l-2 -12q-11 -68 -61.5 -116.5t-118.5 -48.5h-69q-70 0 -106 48.5t-25 116.5l36 229q11 70 62.5 119t122.5 49h69q68 0 102.5 -49t23.5 -119zM212 380l-10 -62h186l10 62
q5 37 -12 59t-47 22h-42q-30 0 -54.5 -22.5t-30.5 -58.5zM231 687l47 91l194 -111l-39 -77z" />
    <glyph glyph-name="eacute" unicode="&#xe9;" 
d="M497 388l-25 -156h-284l-9 -62q-6 -36 11.5 -58t47.5 -22h42q31 0 56.5 22t28.5 58v1h98l-2 -12q-11 -68 -61.5 -116.5t-118.5 -48.5h-69q-70 0 -106 48.5t-25 116.5l36 229q11 70 62.5 119t122.5 49h69q68 0 102.5 -49t23.5 -119zM212 380l-10 -62h186l10 62
q5 37 -12 59t-47 22h-42q-30 0 -54.5 -22.5t-30.5 -58.5zM458 778l19 -91l-232 -97l-17 77z" />
    <glyph glyph-name="ecircumflex" unicode="&#xea;" 
d="M497 388l-25 -156h-284l-9 -62q-6 -36 11.5 -58t47.5 -22h42q31 0 56.5 22t28.5 58v1h98l-2 -12q-11 -68 -61.5 -116.5t-118.5 -48.5h-69q-70 0 -106 48.5t-25 116.5l36 229q11 70 62.5 119t122.5 49h69q68 0 102.5 -49t23.5 -119zM357 764h18l113 -92l-41 -82l-97 73
l-119 -73l-18 77zM212 380l-10 -62h186l10 62q5 37 -12 59t-47 22h-42q-30 0 -54.5 -22.5t-30.5 -58.5z" />
    <glyph glyph-name="edieresis" unicode="&#xeb;" 
d="M497 388l-25 -156h-284l-9 -62q-6 -36 11.5 -58t47.5 -22h42q31 0 56.5 22t28.5 58v1h98l-2 -12q-11 -68 -61.5 -116.5t-118.5 -48.5h-69q-70 0 -106 48.5t-25 116.5l36 229q11 70 62.5 119t122.5 49h69q68 0 102.5 -49t23.5 -119zM212 380l-10 -62h186l10 62
q5 37 -12 59t-47 22h-42q-30 0 -54.5 -22.5t-30.5 -58.5zM413 759h99l-21 -133h-99zM219 759h98l-22 -133h-98z" />
    <glyph glyph-name="igrave" unicode="&#xec;" horiz-adv-x="229" 
d="M153 550h97l-87 -550h-97zM102 687l47 91l194 -111l-39 -77z" />
    <glyph glyph-name="iacute" unicode="&#xed;" horiz-adv-x="229" 
d="M328 778l19 -91l-232 -97l-17 77zM153 550h97l-87 -550h-97z" />
    <glyph glyph-name="icircumflex" unicode="&#xee;" horiz-adv-x="229" 
d="M227 764h18l113 -92l-41 -82l-97 73l-119 -73l-18 77zM153 550h97l-87 -550h-97z" />
    <glyph glyph-name="idieresis" unicode="&#xef;" horiz-adv-x="229" 
d="M90 759h98l-22 -133h-98zM284 759h99l-21 -133h-99zM153 550h97l-87 -550h-97z" />
    <glyph glyph-name="eth" unicode="&#xf0;" horiz-adv-x="530" 
d="M513 678l67 66l20 -28l-63 -62q32 -42 23 -98l-65 -406q-10 -64 -65 -110t-131 -46h-75q-74 0 -113 46t-29 110l21 130q10 64 63.5 110t127.5 46h75q29 0 67 -28l20 125q3 22 -3 37l-75 -74l-20 28l73 73q-17 10 -36 10h-184l16 99h190q56 0 96 -28zM201 257l-14 -84
q-5 -36 13.5 -58t50.5 -22h58q32 0 58 22t31 58l14 84q5 36 -13.5 58t-50.5 22h-58q-32 0 -58 -22t-31 -58z" />
    <glyph glyph-name="ntilde" unicode="&#xf1;" horiz-adv-x="500" 
d="M435 0h-97l62 385q5 36 -11.5 56t-46.5 20h-20q-54 0 -95 -49l-64 -412h-97l87 550h68l4 -50q64 56 128 56h33q63 0 93 -47t18 -118zM280 612h-75l6 42q8 49 25.5 72.5t55.5 23.5q26 0 67 -25t59 -25q19 0 22 20l4 25h76l-10 -56q-13 -79 -79 -79q-32 0 -73.5 23.5
t-53.5 23.5q-16 0 -21 -28z" />
    <glyph glyph-name="ograve" unicode="&#xf2;" 
d="M238 90h42q30 0 54.5 22t30.5 58l33 210q6 36 -11.5 58.5t-47.5 22.5h-42q-30 0 -54.5 -22.5t-30.5 -58.5l-33 -210q-6 -36 11.5 -58t47.5 -22zM281 -6h-69q-70 0 -106 48.5t-25 116.5l36 229q11 70 62.5 119t122.5 49h69q68 0 102 -49t23 -119l-35 -229
q-11 -68 -61.5 -116.5t-118.5 -48.5zM230 687l47 91l194 -111l-39 -77z" />
    <glyph glyph-name="oacute" unicode="&#xf3;" 
d="M458 778l19 -91l-232 -97l-17 77zM238 90h42q30 0 54.5 22t30.5 58l33 210q6 36 -11.5 58.5t-47.5 22.5h-42q-30 0 -54.5 -22.5t-30.5 -58.5l-33 -210q-6 -36 11.5 -58t47.5 -22zM281 -6h-69q-70 0 -106 48.5t-25 116.5l36 229q11 70 62.5 119t122.5 49h69q68 0 102 -49
t23 -119l-35 -229q-11 -68 -61.5 -116.5t-118.5 -48.5z" />
    <glyph glyph-name="ocircumflex" unicode="&#xf4;" 
d="M357 764h18l113 -92l-41 -82l-97 73l-119 -73l-18 77zM238 90h42q30 0 54.5 22t30.5 58l33 210q6 36 -11.5 58.5t-47.5 22.5h-42q-30 0 -54.5 -22.5t-30.5 -58.5l-33 -210q-6 -36 11.5 -58t47.5 -22zM281 -6h-69q-70 0 -106 48.5t-25 116.5l36 229q11 70 62.5 119
t122.5 49h69q68 0 102 -49t23 -119l-35 -229q-11 -68 -61.5 -116.5t-118.5 -48.5z" />
    <glyph glyph-name="otilde" unicode="&#xf5;" 
d="M238 90h42q30 0 54.5 22t30.5 58l33 210q6 36 -11.5 58.5t-47.5 22.5h-42q-30 0 -54.5 -22.5t-30.5 -58.5l-33 -210q-6 -36 11.5 -58t47.5 -22zM281 -6h-69q-70 0 -106 48.5t-25 116.5l36 229q11 70 62.5 119t122.5 49h69q68 0 102 -49t23 -119l-35 -229
q-11 -68 -61.5 -116.5t-118.5 -48.5zM270 612h-75l6 42q8 49 25.5 72.5t55.5 23.5q26 0 67 -25t59 -25q19 0 22 20l4 25h76l-10 -56q-13 -79 -79 -79q-32 0 -73.5 23.5t-53.5 23.5q-16 0 -21 -28z" />
    <glyph glyph-name="odieresis" unicode="&#xf6;" 
d="M219 759h98l-22 -133h-98zM413 759h99l-21 -133h-99zM238 90h42q30 0 54.5 22t30.5 58l33 210q6 36 -11.5 58.5t-47.5 22.5h-42q-30 0 -54.5 -22.5t-30.5 -58.5l-33 -210q-6 -36 11.5 -58t47.5 -22zM281 -6h-69q-70 0 -106 48.5t-25 116.5l36 229q11 70 62.5 119
t122.5 49h69q68 0 102 -49t23 -119l-35 -229q-11 -68 -61.5 -116.5t-118.5 -48.5z" />
    <glyph glyph-name="oslash" unicode="&#xf8;" 
d="M61 -100h-46l93 139q-39 49 -27 120l36 229q11 70 62.5 119t122.5 49h69q42 0 71 -20l72 107h47l-90 -134q36 -49 25 -121l-35 -229q-11 -68 -61.5 -116.5t-118.5 -48.5h-69q-43 0 -75 19zM179 170q-3 -13 -1 -27l203 302q-18 16 -42 16h-42q-30 0 -54.5 -22.5
t-30.5 -58.5zM238 90h42q30 0 54.5 22t30.5 58l33 210q2 15 1 22l-201 -299q14 -13 40 -13z" />
    <glyph glyph-name="ugrave" unicode="&#xf9;" horiz-adv-x="497" 
d="M152 550h97l-62 -385q-5 -36 11 -56t46 -20h22q47 0 87 43l67 418h97l-87 -550h-67l-5 47q-61 -53 -125 -53h-32q-63 0 -93 47.5t-18 117.5zM225 687l47 91l194 -111l-39 -77z" />
    <glyph glyph-name="uacute" unicode="&#xfa;" horiz-adv-x="497" 
d="M152 550h97l-62 -385q-5 -36 11 -56t46 -20h22q47 0 87 43l67 418h97l-87 -550h-67l-5 47q-61 -53 -125 -53h-32q-63 0 -93 47.5t-18 117.5zM462 778l19 -91l-232 -97l-17 77z" />
    <glyph glyph-name="ucircumflex" unicode="&#xfb;" horiz-adv-x="497" 
d="M152 550h97l-62 -385q-5 -36 11 -56t46 -20h22q47 0 87 43l67 418h97l-87 -550h-67l-5 47q-61 -53 -125 -53h-32q-63 0 -93 47.5t-18 117.5zM354 764h18l113 -92l-41 -82l-97 73l-119 -73l-18 77z" />
    <glyph glyph-name="udieresis" unicode="&#xfc;" horiz-adv-x="497" 
d="M152 550h97l-62 -385q-5 -36 11 -56t46 -20h22q47 0 87 43l67 418h97l-87 -550h-67l-5 47q-61 -53 -125 -53h-32q-63 0 -93 47.5t-18 117.5zM412 759h99l-21 -133h-99zM218 759h98l-22 -133h-98z" />
    <glyph glyph-name="yacute" unicode="&#xfd;" horiz-adv-x="476" 
d="M190 -207h-99l99 210l-90 547h100l63 -393l187 393h100zM450 778l19 -91l-232 -97l-17 77z" />
    <glyph glyph-name="thorn" unicode="&#xfe;" horiz-adv-x="501" 
d="M130 -207h-97l152 957h97l-37 -232q52 38 104 38h49q61 0 90.5 -46t19.5 -112l-39 -245q-10 -66 -54.5 -112.5t-105.5 -46.5h-55q-49 0 -86 37zM308 461q-41 0 -79 -46l-45 -279q24 -46 67 -46h41q29 0 53 22.5t31 59.5l32 207q6 37 -11 59.5t-46 22.5h-43z" />
    <glyph glyph-name="ydieresis" unicode="&#xff;" horiz-adv-x="476" 
d="M190 -207h-99l99 210l-90 547h100l63 -393l187 393h100zM406 759h99l-21 -133h-99zM212 759h98l-22 -133h-98z" />
    <glyph glyph-name="Amacron" unicode="&#x100;" horiz-adv-x="593" 
d="M357 703h101l103 -703h-101l-23 173h-228l-77 -173h-100zM557 878l-16 -105h-262l16 105h262zM384 565l-131 -292h170z" />
    <glyph glyph-name="amacron" unicode="&#x101;" horiz-adv-x="496" 
d="M457 550h62l-87 -550h-67l-5 47q-59 -53 -118 -53h-56q-60 0 -89.5 52t-17.5 124l33 211q12 73 57.5 124t105.5 51h50q62 0 107 -56zM262 90q49 0 93 47l45 278q-26 46 -77 46h-31q-29 0 -53.5 -23t-30.5 -59l-32 -207q-7 -37 9.5 -59.5t46.5 -22.5h30zM505 713l-15 -96
h-263l16 96h262z" />
    <glyph glyph-name="Abreve" unicode="&#x102;" horiz-adv-x="593" 
d="M357 703h101l103 -703h-101l-23 173h-228l-77 -173h-100zM497 899h78l-6 -36q-7 -43 -41 -74.5t-72 -31.5h-83q-40 0 -63 31t-15 75l6 36h78l-3 -19q-2 -12 4 -20.5t16 -8.5h68q10 0 18.5 9t10.5 20zM384 565l-131 -292h170z" />
    <glyph glyph-name="abreve" unicode="&#x103;" horiz-adv-x="496" 
d="M457 550h62l-87 -550h-67l-5 47q-59 -53 -118 -53h-56q-60 0 -89.5 52t-17.5 124l33 211q12 73 57.5 124t105.5 51h50q62 0 107 -56zM262 90q49 0 93 47l45 278q-26 46 -77 46h-31q-29 0 -53.5 -23t-30.5 -59l-32 -207q-7 -37 9.5 -59.5t46.5 -22.5h30zM416 754h78
l-6 -36q-7 -46 -42.5 -79.5t-76.5 -33.5h-71q-42 0 -66.5 33.5t-17.5 79.5l6 36h78l-3 -27q-3 -15 4 -26t20 -11h54q13 0 24.5 11t14.5 26z" />
    <glyph glyph-name="Aogonek" unicode="&#x104;" horiz-adv-x="593" 
d="M550 -132l-9 -64h-44q-101 0 -101 72q0 57 64 124l-23 173h-228l-77 -173h-100l325 703h101l103 -703h-11q-84 -63 -84 -107q0 -25 40 -25h44zM384 565l-131 -292h170z" />
    <glyph glyph-name="aogonek" unicode="&#x105;" horiz-adv-x="496" 
d="M424 -132l-9 -64h-44q-101 0 -101 72q0 69 92 146l-2 25q-59 -53 -118 -53h-56q-60 0 -89.5 52t-17.5 124l33 211q12 73 57.5 124t105.5 51h50q62 0 107 -56l25 50h62l-87 -550h-8q-84 -63 -84 -107q0 -25 40 -25h44zM262 90q49 0 93 47l45 278q-26 46 -77 46h-31
q-29 0 -53.5 -23t-30.5 -59l-32 -207q-7 -37 9.5 -59.5t46.5 -22.5h30z" />
    <glyph glyph-name="Cacute" unicode="&#x106;" horiz-adv-x="556" 
d="M434 233h100l-13 -83q-10 -64 -63.5 -110t-128.5 -46h-100q-76 0 -116.5 46t-30.5 110l64 400q10 64 65 110t131 46h100q75 0 114 -46t29 -110l-13 -80h-101l10 57q5 36 -13.5 58t-51.5 22h-83q-32 0 -58 -22t-31 -58l-57 -354q-5 -36 13.5 -58t50.5 -22h83q33 0 59 22
t31 58zM526 937l20 -99l-227 -84l-18 88z" />
    <glyph glyph-name="cacute" unicode="&#x107;" horiz-adv-x="481" 
d="M451 778l19 -91l-232 -97l-17 77zM483 358h-98l4 22q6 36 -11.5 58.5t-47.5 22.5h-33q-30 0 -54.5 -22.5t-30.5 -58.5l-33 -210q-6 -36 11.5 -58t47.5 -22h33q30 0 54 22t31 58l4 22h97l-5 -33q-12 -68 -62 -116.5t-118 -48.5h-60q-70 0 -106 48.5t-25 116.5l36 229
q11 70 62.5 119t122.5 49h60q68 0 102.5 -49t23.5 -119z" />
    <glyph glyph-name="Ccaron" unicode="&#x10c;" horiz-adv-x="556" 
d="M434 233h100l-13 -83q-10 -64 -63.5 -110t-128.5 -46h-100q-76 0 -116.5 46t-30.5 110l64 400q10 64 65 110t131 46h100q75 0 114 -46t29 -110l-13 -80h-101l10 57q5 36 -13.5 58t-51.5 22h-83q-32 0 -58 -22t-31 -58l-57 -354q-5 -36 13.5 -58t50.5 -22h83q33 0 59 22
t31 58zM413 750h-16l-124 89l45 87l104 -67l127 67l16 -93z" />
    <glyph glyph-name="ccaron" unicode="&#x10d;" horiz-adv-x="481" 
d="M341 590h-18l-113 98l42 76l95 -73l120 73l16 -83zM483 358h-98l4 22q6 36 -11.5 58.5t-47.5 22.5h-33q-30 0 -54.5 -22.5t-30.5 -58.5l-33 -210q-6 -36 11.5 -58t47.5 -22h33q30 0 54 22t31 58l4 22h97l-5 -33q-12 -68 -62 -116.5t-118 -48.5h-60q-70 0 -106 48.5
t-25 116.5l36 229q11 70 62.5 119t122.5 49h60q68 0 102.5 -49t23.5 -119z" />
    <glyph glyph-name="Dcaron" unicode="&#x10e;" horiz-adv-x="576" 
d="M70 0l111 700h281q75 0 113.5 -46t28.5 -110l-62 -388q-10 -64 -63 -110t-128 -46h-281zM436 601h-171l-80 -502h171q33 0 59 22t31 58l54 342q6 36 -13 58t-51 22zM395 750h-16l-124 89l45 87l104 -67l127 67l16 -93z" />
    <glyph glyph-name="dcaron" unicode="&#x10f;" horiz-adv-x="723" 
d="M435 0h-67l-5 48q-59 -54 -119 -54h-55q-60 0 -89.5 51.5t-18.5 124.5l34 211q12 73 57.5 124t105.5 51h50q50 0 90 -38l37 232h98zM264 90q51 0 95 47l43 278q-28 46 -76 46h-31q-29 0 -53.5 -23t-30.5 -59l-33 -207q-6 -37 11 -59.5t46 -22.5h29zM604 452l16 101
q21 5 37 24.5t19 40.5l22 133h97l-22 -133q-11 -71 -60 -115.5t-109 -50.5z" />
    <glyph glyph-name="Dcroat" unicode="&#x110;" horiz-adv-x="576" 
d="M351 0h-281l50 315h-61l16 96h60l46 289h281q75 0 113.5 -46t28.5 -110l-62 -388q-10 -64 -63 -110t-128 -46zM362 411l-16 -96h-126l-35 -216h171q33 0 59 22t31 58l54 342q6 36 -13 58t-51 22h-171l-30 -190h127z" />
    <glyph glyph-name="dcroat" unicode="&#x111;" horiz-adv-x="501" 
d="M435 0h-67l-5 48q-59 -54 -119 -54h-55q-60 0 -89.5 51.5t-18.5 124.5l34 211q12 73 57.5 124t105.5 51h50q50 0 90 -38l14 87h-179l12 76h179l11 69h98l-11 -69h76l-12 -76h-76zM264 90q51 0 95 47l43 278q-28 46 -76 46h-31q-29 0 -53.5 -23t-30.5 -59l-33 -207
q-6 -37 11 -59.5t46 -22.5h29z" />
    <glyph glyph-name="Emacron" unicode="&#x112;" horiz-adv-x="516" 
d="M469 99l-16 -99h-383l111 701h374l-15 -100h-275l-30 -192h246l-16 -100h-246l-34 -210h284zM526 878l-16 -105h-262l16 105h262z" />
    <glyph glyph-name="emacron" unicode="&#x113;" 
d="M497 388l-25 -156h-284l-9 -62q-6 -36 11.5 -58t47.5 -22h42q31 0 56.5 22t28.5 58v1h98l-2 -12q-11 -68 -61.5 -116.5t-118.5 -48.5h-69q-70 0 -106 48.5t-25 116.5l36 229q11 70 62.5 119t122.5 49h69q68 0 102.5 -49t23.5 -119zM493 713l-15 -96h-263l16 96h262z
M212 380l-10 -62h186l10 62q5 37 -12 59t-47 22h-42q-30 0 -54.5 -22.5t-30.5 -58.5z" />
    <glyph glyph-name="Edotaccent" unicode="&#x116;" horiz-adv-x="516" 
d="M469 99l-16 -99h-383l111 701h374l-15 -100h-275l-30 -192h246l-16 -100h-246l-34 -210h284zM351 904h98l-21 -130h-97z" />
    <glyph glyph-name="edotaccent" unicode="&#x117;" 
d="M497 388l-25 -156h-284l-9 -62q-6 -36 11.5 -58t47.5 -22h42q31 0 56.5 22t28.5 58v1h98l-2 -12q-11 -68 -61.5 -116.5t-118.5 -48.5h-69q-70 0 -106 48.5t-25 116.5l36 229q11 70 62.5 119t122.5 49h69q68 0 102.5 -49t23.5 -119zM212 380l-10 -62h186l10 62
q5 37 -12 59t-47 22h-42q-30 0 -54.5 -22.5t-30.5 -58.5zM316 759h96l-21 -133h-97z" />
    <glyph glyph-name="Eogonek" unicode="&#x118;" horiz-adv-x="516" 
d="M469 99l-16 -99h-9q-84 -63 -84 -107q0 -25 40 -25h44l-9 -64h-44q-101 0 -101 72q0 59 67 124h-287l111 701h374l-15 -100h-275l-30 -192h246l-16 -100h-246l-34 -210h284z" />
    <glyph glyph-name="eogonek" unicode="&#x119;" 
d="M497 388l-25 -156h-284l-9 -62q-6 -36 11.5 -58t47.5 -22h42q31 0 56.5 22t28.5 58v1h98l-2 -12q-9 -57 -46.5 -101.5t-91.5 -57.5q-84 -63 -84 -107q0 -25 40 -25h44l-9 -64h-44q-101 0 -101 72q0 57 61 118h-18q-70 0 -106 48.5t-25 116.5l36 229q11 70 62.5 119
t122.5 49h69q68 0 102.5 -49t23.5 -119zM212 380l-10 -62h186l10 62q5 37 -12 59t-47 22h-42q-30 0 -54.5 -22.5t-30.5 -58.5z" />
    <glyph glyph-name="Ecaron" unicode="&#x11a;" horiz-adv-x="516" 
d="M469 99l-16 -99h-383l111 701h374l-15 -100h-275l-30 -192h246l-16 -100h-246l-34 -210h284zM384 750h-16l-124 89l45 87l104 -67l127 67l16 -93z" />
    <glyph glyph-name="ecaron" unicode="&#x11b;" 
d="M497 388l-25 -156h-284l-9 -62q-6 -36 11.5 -58t47.5 -22h42q31 0 56.5 22t28.5 58v1h98l-2 -12q-11 -68 -61.5 -116.5t-118.5 -48.5h-69q-70 0 -106 48.5t-25 116.5l36 229q11 70 62.5 119t122.5 49h69q68 0 102.5 -49t23.5 -119zM348 590h-18l-113 98l42 76l95 -73
l120 73l16 -83zM212 380l-10 -62h186l10 62q5 37 -12 59t-47 22h-42q-30 0 -54.5 -22.5t-30.5 -58.5z" />
    <glyph glyph-name="Gbreve" unicode="&#x11e;" horiz-adv-x="566" 
d="M582 470h-101l10 57q5 36 -14 58t-51 22h-93q-32 0 -58 -22t-31 -58l-57 -354q-5 -36 13.5 -58t50.5 -22h93q33 0 59 22t31 58l15 98h-128l16 99h229l-35 -220q-10 -64 -63.5 -110t-128.5 -46h-110q-76 0 -116.5 46t-30.5 110l64 400q10 64 65 110t131 46h110
q75 0 114 -46t29 -110zM483 899h78l-6 -36q-7 -43 -41 -74.5t-72 -31.5h-83q-40 0 -63 31t-15 75l6 36h78l-3 -19q-2 -12 4 -20.5t16 -8.5h68q10 0 18.5 9t10.5 20z" />
    <glyph glyph-name="gbreve" unicode="&#x11f;" horiz-adv-x="501" 
d="M522 550l-95 -601q-10 -64 -63.5 -110t-127.5 -46h-41q-76 0 -117 44t-32 106l2 13h97l-1 -6q-4 -29 15.5 -48.5t51.5 -19.5h30q33 0 59 22t32 59l11 68q-49 -37 -99 -37h-55q-60 0 -89 51.5t-18 124.5l33 211q12 73 57.5 124t106.5 51h50q62 0 106 -55l21 49h66zM265 90
q50 0 94 47l44 278q-25 46 -76 46h-32q-29 0 -53.5 -23t-29.5 -59l-33 -207q-6 -37 11 -59.5t46 -22.5h29zM428 754h78l-6 -36q-7 -46 -42.5 -79.5t-76.5 -33.5h-71q-42 0 -66.5 33.5t-17.5 79.5l6 36h78l-3 -27q-3 -15 4 -26t20 -11h54q13 0 24.5 11t14.5 26z" />
    <glyph glyph-name="uni0122" unicode="&#x122;" horiz-adv-x="566" 
d="M582 470h-101l10 57q5 36 -14 58t-51 22h-93q-32 0 -58 -22t-31 -58l-57 -354q-5 -36 13.5 -58t50.5 -22h93q33 0 59 22t31 58l15 98h-128l16 99h229l-35 -220q-10 -64 -63.5 -110t-128.5 -46h-110q-76 0 -116.5 46t-30.5 110l64 400q10 64 65 110t131 46h110
q75 0 114 -46t29 -110zM160 -260l-17 -101q61 5 109.5 49.5t60.5 115.5l21 134h-96l-21 -134q-3 -20 -19.5 -40t-37.5 -24z" />
    <glyph glyph-name="uni0123" unicode="&#x123;" horiz-adv-x="501" 
d="M522 550l-95 -601q-10 -64 -63.5 -110t-127.5 -46h-41q-76 0 -117 44t-32 106l2 13h97l-1 -6q-4 -29 15.5 -48.5t51.5 -19.5h30q33 0 59 22t32 59l11 68q-49 -37 -99 -37h-55q-60 0 -89 51.5t-18 124.5l33 211q12 73 57.5 124t106.5 51h50q62 0 106 -55l21 49h66zM265 90
q50 0 94 47l44 278q-25 46 -76 46h-32q-29 0 -53.5 -23t-29.5 -59l-33 -207q-6 -37 11 -59.5t46 -22.5h29zM483 920l-17 -101q-21 -4 -37.5 -24t-19.5 -40l-21 -134h-96l21 134q12 71 60.5 115.5t109.5 49.5z" />
    <glyph glyph-name="Imacron" unicode="&#x12a;" horiz-adv-x="240" 
d="M170 0h-100l111 701h100zM382 842l-16 -105h-262l16 105h262z" />
    <glyph glyph-name="imacron" unicode="&#x12b;" horiz-adv-x="229" 
d="M153 550h97l-87 -550h-97zM363 713l-15 -96h-263l16 96h262z" />
    <glyph glyph-name="Iogonek" unicode="&#x12e;" horiz-adv-x="240" 
d="M158 -132l-9 -64h-44q-101 0 -101 72q0 58 66 124l111 701h100l-111 -701h-12q-84 -63 -84 -107q0 -25 40 -25h44z" />
    <glyph glyph-name="iogonek" unicode="&#x12f;" horiz-adv-x="229" 
d="M149 -132l-9 -64h-44q-101 0 -101 72q0 62 71 128l87 546h97l-87 -550h-14q-84 -63 -84 -107q0 -25 40 -25h44zM185 750h97l-22 -133h-97z" />
    <glyph glyph-name="Idotaccent" unicode="&#x130;" horiz-adv-x="240" 
d="M170 0h-100l111 701h100zM213 904h98l-21 -130h-97z" />
    <glyph glyph-name="dotlessi" unicode="&#x131;" horiz-adv-x="229" 
d="M153 550h97l-87 -550h-97z" />
    <glyph glyph-name="uni0136" unicode="&#x136;" horiz-adv-x="555" 
d="M170 0h-100l111 700h100l-48 -299h73l186 299h112l-218 -341l144 -359h-113l-115 302h-84zM150 -260l-17 -101q61 5 109.5 49.5t60.5 115.5l21 134h-96l-21 -134q-3 -20 -19.5 -40t-37.5 -24z" />
    <glyph glyph-name="uni0137" unicode="&#x137;" horiz-adv-x="481" 
d="M470 0h-109l-108 264h-48l-42 -264h-97l119 750h97l-62 -391h49l147 191h116l-196 -234zM128 -260l-17 -101q61 5 109.5 49.5t60.5 115.5l21 134h-96l-21 -134q-3 -20 -19.5 -40t-37.5 -24z" />
    <glyph glyph-name="Lacute" unicode="&#x139;" horiz-adv-x="453" 
d="M442 99l-15 -99h-357l111 701h100l-96 -602h257zM348 937l20 -99l-227 -84l-18 88z" />
    <glyph glyph-name="lacute" unicode="&#x13a;" horiz-adv-x="229" 
d="M354 963l20 -99l-227 -84l-18 88zM185 750h97l-119 -750h-97z" />
    <glyph glyph-name="uni013B" unicode="&#x13b;" horiz-adv-x="453" 
d="M442 99l-15 -99h-357l111 701h100l-96 -602h257zM112 -260l-17 -101q61 5 109.5 49.5t60.5 115.5l21 134h-96l-21 -134q-3 -20 -19.5 -40t-37.5 -24z" />
    <glyph glyph-name="uni013C" unicode="&#x13c;" horiz-adv-x="229" 
d="M-19 -260l-17 -101q61 5 109.5 49.5t60.5 115.5l21 134h-96l-21 -134q-3 -20 -19.5 -40t-37.5 -24zM185 750h97l-119 -750h-97z" />
    <glyph glyph-name="Lcaron" unicode="&#x13d;" horiz-adv-x="453" 
d="M442 99l-15 -99h-357l111 701h100l-96 -602h257zM240 750h-16l-124 89l45 87l104 -67l127 67l16 -93z" />
    <glyph glyph-name="lcaron" unicode="&#x13e;" horiz-adv-x="452" 
d="M333 452l16 101q21 5 37 24.5t19 40.5l22 133h97l-22 -133q-11 -71 -60 -115.5t-109 -50.5zM185 750h97l-119 -750h-97z" />
    <glyph glyph-name="Lslash" unicode="&#x141;" horiz-adv-x="453" 
d="M442 99l-15 -99h-357l41 262l-77 -54l18 118l78 54l51 321h100l-42 -261l131 90l-20 -119l-129 -89l-36 -223h257z" />
    <glyph glyph-name="lslash" unicode="&#x142;" horiz-adv-x="229" 
d="M185 750h97l-45 -284l83 58l-19 -118l-83 -59l-55 -347h-97l46 289l-84 -59l19 119l84 59z" />
    <glyph glyph-name="Nacute" unicode="&#x143;" horiz-adv-x="587" 
d="M170 0h-100l111 701h100l169 -496l79 496h100l-111 -701h-102l-168 493zM535 937l20 -99l-227 -84l-18 88z" />
    <glyph glyph-name="nacute" unicode="&#x144;" horiz-adv-x="500" 
d="M435 0h-97l62 385q5 36 -11.5 56t-46.5 20h-20q-54 0 -95 -49l-64 -412h-97l87 550h68l4 -50q64 56 128 56h33q63 0 93 -47t18 -118zM465 778l19 -91l-232 -97l-17 77z" />
    <glyph glyph-name="uni0145" unicode="&#x145;" horiz-adv-x="587" 
d="M170 0h-100l111 701h100l169 -496l79 496h100l-111 -701h-102l-168 493zM184 -260l-17 -101q61 5 109.5 49.5t60.5 115.5l21 134h-96l-21 -134q-3 -20 -19.5 -40t-37.5 -24z" />
    <glyph glyph-name="uni0146" unicode="&#x146;" horiz-adv-x="500" 
d="M435 0h-97l62 385q5 36 -11.5 56t-46.5 20h-20q-54 0 -95 -49l-64 -412h-97l87 550h68l4 -50q64 56 128 56h33q63 0 93 -47t18 -118zM127 -260l-17 -101q61 5 109.5 49.5t60.5 115.5l21 134h-96l-21 -134q-3 -20 -19.5 -40t-37.5 -24z" />
    <glyph glyph-name="Ncaron" unicode="&#x147;" horiz-adv-x="587" 
d="M170 0h-100l111 701h100l169 -496l79 496h100l-111 -701h-102l-168 493zM419 750h-16l-124 89l45 87l104 -67l127 67l16 -93z" />
    <glyph glyph-name="ncaron" unicode="&#x148;" horiz-adv-x="500" 
d="M435 0h-97l62 385q5 36 -11.5 56t-46.5 20h-20q-54 0 -95 -49l-64 -412h-97l87 550h68l4 -50q64 56 128 56h33q63 0 93 -47t18 -118zM358 590h-18l-113 98l42 76l95 -73l120 73l16 -83z" />
    <glyph glyph-name="Omacron" unicode="&#x14c;" horiz-adv-x="566" 
d="M251 93h93q33 0 59 22t31 58l57 354q5 36 -14 58t-51 22h-93q-32 0 -58 -22t-31 -58l-57 -354q-5 -36 13.5 -58t50.5 -22zM339 -6h-110q-76 0 -116.5 46t-30.5 110l64 400q10 64 65 110t131 46h110q75 0 114 -46t29 -110l-64 -400q-10 -64 -63.5 -110t-128.5 -46z
M552 878l-16 -105h-262l16 105h262z" />
    <glyph glyph-name="omacron" unicode="&#x14d;" 
d="M487 713l-15 -96h-263l16 96h262zM238 90h42q30 0 54.5 22t30.5 58l33 210q6 36 -11.5 58.5t-47.5 22.5h-42q-30 0 -54.5 -22.5t-30.5 -58.5l-33 -210q-6 -36 11.5 -58t47.5 -22zM281 -6h-69q-70 0 -106 48.5t-25 116.5l36 229q11 70 62.5 119t122.5 49h69q68 0 102 -49
t23 -119l-35 -229q-11 -68 -61.5 -116.5t-118.5 -48.5z" />
    <glyph glyph-name="Ohungarumlaut" unicode="&#x150;" horiz-adv-x="566" 
d="M355 940l65 -51l-117 -140l-55 45zM528 940l66 -51l-118 -140l-55 45zM251 93h93q33 0 59 22t31 58l57 354q5 36 -14 58t-51 22h-93q-32 0 -58 -22t-31 -58l-57 -354q-5 -36 13.5 -58t50.5 -22zM339 -6h-110q-76 0 -116.5 46t-30.5 110l64 400q10 64 65 110t131 46h110
q75 0 114 -46t29 -110l-64 -400q-10 -64 -63.5 -110t-128.5 -46z" />
    <glyph glyph-name="ohungarumlaut" unicode="&#x151;" 
d="M323 811l66 -53l-143 -162l-55 45zM497 811l65 -53l-143 -162l-55 45zM238 90h42q30 0 54.5 22t30.5 58l33 210q6 36 -11.5 58.5t-47.5 22.5h-42q-30 0 -54.5 -22.5t-30.5 -58.5l-33 -210q-6 -36 11.5 -58t47.5 -22zM281 -6h-69q-70 0 -106 48.5t-25 116.5l36 229
q11 70 62.5 119t122.5 49h69q68 0 102 -49t23 -119l-35 -229q-11 -68 -61.5 -116.5t-118.5 -48.5z" />
    <glyph glyph-name="OE" unicode="&#x152;" horiz-adv-x="853" 
d="M806 99l-16 -99h-560q-76 0 -116.5 46t-30.5 110l62 389q10 64 65 110t131 46h551l-15 -100h-275l-30 -192h246l-16 -100h-246l-34 -210h284zM188 179q-5 -36 13.5 -58t50.5 -22h170l80 502h-170q-33 0 -58.5 -21.5t-30.5 -57.5z" />
    <glyph glyph-name="oe" unicode="&#x153;" horiz-adv-x="772" 
d="M779 388l-25 -156h-282l-13 -82q-4 -27 15 -43.5t46 -16.5h42q31 0 56.5 22t28.5 58v1h98l-2 -12q-11 -68 -61.5 -116.5t-118.5 -48.5h-69q-65 0 -101 42q-50 -42 -112 -42h-69q-70 0 -106 48.5t-25 116.5l36 229q11 70 62.5 119t122.5 49h69q62 0 97 -43q53 43 116 43
h69q68 0 102.5 -49t23.5 -119zM238 90h42q30 0 54.5 22t30.5 58l33 210q6 36 -11.5 58.5t-47.5 22.5h-42q-30 0 -54.5 -22.5t-30.5 -58.5l-33 -210q-6 -36 11.5 -58t47.5 -22zM579 461q-29 0 -53.5 -19.5t-29.5 -51.5l-11 -72h185l10 62q5 37 -12 59t-47 22h-42z" />
    <glyph glyph-name="Racute" unicode="&#x154;" horiz-adv-x="564" 
d="M170 0h-100l111 700h261q77 0 117.5 -44t30.5 -106l-24 -148q-7 -43 -40 -81t-82 -56l68 -265h-106l-65 254h-131zM416 601h-151l-40 -248h156q33 0 58.5 20.5t30.5 52.5l15 101q6 34 -14 54t-55 20zM516 937l20 -99l-227 -84l-18 88z" />
    <glyph glyph-name="racute" unicode="&#x155;" horiz-adv-x="344" 
d="M420 555l-16 -96h-63q-30 0 -62 -18t-55 -48l-61 -393h-97l87 550h68l3 -64q72 69 145 69h51zM395 778l19 -91l-232 -97l-17 77z" />
    <glyph glyph-name="uni0156" unicode="&#x156;" horiz-adv-x="564" 
d="M170 0h-100l111 700h261q77 0 117.5 -44t30.5 -106l-24 -148q-7 -43 -40 -81t-82 -56l68 -265h-106l-65 254h-131zM416 601h-151l-40 -248h156q33 0 58.5 20.5t30.5 52.5l15 101q6 34 -14 54t-55 20zM161 -260l-17 -101q61 5 109.5 49.5t60.5 115.5l21 134h-96l-21 -134
q-3 -20 -19.5 -40t-37.5 -24z" />
    <glyph glyph-name="uni0157" unicode="&#x157;" horiz-adv-x="344" 
d="M420 555l-16 -96h-63q-30 0 -62 -18t-55 -48l-61 -393h-97l87 550h68l3 -64q72 69 145 69h51zM-14 -260l-17 -101q61 5 109.5 49.5t60.5 115.5l21 134h-96l-21 -134q-3 -20 -19.5 -40t-37.5 -24z" />
    <glyph glyph-name="Rcaron" unicode="&#x158;" horiz-adv-x="564" 
d="M170 0h-100l111 700h261q77 0 117.5 -44t30.5 -106l-24 -148q-7 -43 -40 -81t-82 -56l68 -265h-106l-65 254h-131zM416 601h-151l-40 -248h156q33 0 58.5 20.5t30.5 52.5l15 101q6 34 -14 54t-55 20zM387 750h-16l-124 89l45 87l104 -67l127 67l16 -93z" />
    <glyph glyph-name="rcaron" unicode="&#x159;" horiz-adv-x="344" 
d="M420 555l-16 -96h-63q-30 0 -62 -18t-55 -48l-61 -393h-97l87 550h68l3 -64q72 69 145 69h51zM289 590h-18l-113 98l42 76l95 -73l120 73l16 -83z" />
    <glyph glyph-name="Sacute" unicode="&#x15a;" horiz-adv-x="546" 
d="M82 205h101l-5 -32q-7 -36 15 -58t59 -22h71q39 0 67.5 20t33.5 57l5 30q1 6 -0.5 12t-6 12t-9 10.5t-13 10.5t-15 10t-19 10t-20 10t-22 11t-22.5 11q-37 18 -62 34.5t-51 40.5t-36.5 55.5t-4.5 68.5l10 64q9 59 60.5 102.5t122.5 43.5h79q77 0 116.5 -44.5t29.5 -107.5
l-11 -77h-100l8 53q5 35 -15 56t-55 21h-52q-32 0 -57 -19.5t-30 -51.5l-4 -31q-4 -29 21.5 -51t75.5 -45q38 -17 55.5 -26t50 -29.5t47 -37.5t25.5 -43.5t6 -55.5l-11 -71q-10 -65 -66 -108.5t-136 -43.5h-88q-81 0 -124 46t-33 110zM517 937l20 -99l-227 -84l-18 88z" />
    <glyph glyph-name="sacute" unicode="&#x15b;" horiz-adv-x="480" 
d="M451 778l19 -91l-232 -97l-17 77zM353 139l4 21q2 11 -5 20.5t-23.5 19t-31 15.5t-40.5 15q-29 11 -51 23t-43 30t-30.5 43.5t-4.5 56.5l7 40q9 55 54.5 94t109.5 39h55q64 0 97.5 -42.5t23.5 -103.5l-3 -21h-92l3 16q4 26 -11.5 41t-39.5 15h-37q-22 0 -39.5 -12.5
t-21.5 -32.5l-3 -21q-4 -22 15 -35.5t64 -32.5q29 -12 43 -19t39 -22.5t36.5 -30t19.5 -38t4 -50.5l-6 -36q-9 -55 -57 -96t-113 -41h-69q-69 0 -104 42.5t-26 101.5l4 26h96l-4 -19q-4 -24 13 -39.5t46 -15.5h52q25 0 45 14t24 35z" />
    <glyph glyph-name="Scedilla" unicode="&#x15e;" horiz-adv-x="546" 
d="M82 205h101l-5 -32q-7 -36 15 -58t59 -22h71q39 0 67.5 20t33.5 57l5 30q1 6 -0.5 12t-6 12t-9 10.5t-13 10.5t-15 10t-19 10t-20 10t-22 11t-22.5 11q-37 18 -62 34.5t-51 40.5t-36.5 55.5t-4.5 68.5l10 64q9 59 60.5 102.5t122.5 43.5h79q77 0 116.5 -44.5t29.5 -107.5
l-11 -77h-100l8 53q5 35 -15 56t-55 21h-52q-32 0 -57 -19.5t-30 -51.5l-4 -31q-4 -29 21 -50t76 -46q38 -17 55.5 -26t50 -29.5t47 -37.5t25.5 -43.5t6 -55.5l-11 -71q-10 -65 -66.5 -108.5t-138.5 -43.5l-17 -31q49 -13 49 -67q0 -45 -29 -74t-93 -29h-50l11 63h53
q49 0 49 30q0 11 -8 20t-25 9h-44l41 79h-22q-81 0 -124 46t-33 110z" />
    <glyph glyph-name="scedilla" unicode="&#x15f;" horiz-adv-x="480" 
d="M353 139l4 21q2 11 -5 20.5t-23.5 19t-31 15.5t-40.5 15q-32 14 -51.5 25t-42 29t-31.5 43t-4 56l7 40q9 55 54.5 94t109.5 39h55q64 0 97.5 -42.5t23.5 -103.5l-3 -21h-92l3 16q4 26 -11.5 41t-39.5 15h-37q-22 0 -39.5 -12.5t-21.5 -32.5l-3 -21q-4 -22 16 -36t63 -32
q29 -12 43 -19t39 -22.5t36.5 -30t19.5 -38t4 -50.5l-6 -36q-9 -55 -57.5 -96t-113.5 -41l-17 -31q49 -13 49 -67q0 -45 -29 -74t-93 -29h-50l11 63h53q49 0 49 30q0 11 -8 20t-25 9h-44l41 79h-5q-69 0 -104 42.5t-26 101.5l4 26h96l-4 -19q-4 -24 13 -39.5t46 -15.5h52
q25 0 45 14t24 35z" />
    <glyph glyph-name="Scaron" unicode="&#x160;" horiz-adv-x="546" 
d="M82 205h101l-5 -32q-7 -36 15 -58t59 -22h71q39 0 67.5 20t33.5 57l5 30q1 6 -0.5 12t-6 12t-9 10.5t-13 10.5t-15 10t-19 10t-20 10t-22 11t-22.5 11q-37 18 -62 34.5t-51 40.5t-36.5 55.5t-4.5 68.5l10 64q9 59 60.5 102.5t122.5 43.5h79q77 0 116.5 -44.5t29.5 -107.5
l-11 -77h-100l8 53q5 35 -15 56t-55 21h-52q-32 0 -57 -19.5t-30 -51.5l-4 -31q-4 -29 21.5 -51t75.5 -45q39 -18 55 -26t49.5 -29t48 -38t25.5 -43.5t6 -55.5l-11 -71q-10 -65 -66 -108.5t-136 -43.5h-88q-81 0 -124 46t-33 110zM398 750h-16l-124 89l45 87l104 -67l127 67
l16 -93z" />
    <glyph glyph-name="scaron" unicode="&#x161;" horiz-adv-x="487" 
d="M346 590h-18l-113 98l42 76l95 -73l120 73l16 -83zM355 139l4 21q2 11 -5 20.5t-23.5 19t-31 15.5t-40.5 15q-29 11 -51 23t-43 30t-30.5 43.5t-4.5 56.5l7 40q9 55 54.5 94t109.5 39h55q64 0 97.5 -42.5t23.5 -103.5l-3 -21h-92l3 16q4 26 -11.5 41t-39.5 15h-37
q-22 0 -39.5 -12.5t-21.5 -32.5l-3 -21q-4 -22 15 -35.5t64 -32.5q29 -12 43 -19t39 -22.5t36.5 -30t19.5 -38t4 -50.5l-6 -36q-9 -55 -57 -96t-113 -41h-69q-69 0 -104 42.5t-26 101.5l4 26h96l-4 -19q-4 -24 13 -39.5t46 -15.5h52q25 0 45 14t24 35z" />
    <glyph glyph-name="uni0162" unicode="&#x162;" horiz-adv-x="462" 
d="M287 0h-100l95 601h-161l15 100h412l-16 -100h-150zM100 -260l-17 -101q61 5 109.5 49.5t60.5 115.5l21 134h-96l-21 -134q-3 -20 -19.5 -40t-37.5 -24z" />
    <glyph glyph-name="uni0163" unicode="&#x163;" horiz-adv-x="281" 
d="M341 550l-16 -95h-86l-45 -285q-6 -36 14.5 -59t56.5 -23l-14 -94q-87 0 -127 44.5t-27 131.5l46 285h-61l15 95h62l52 150h67l-24 -150h87zM46 -260l-17 -101q61 5 109.5 49.5t60.5 115.5l21 134h-96l-21 -134q-3 -20 -19.5 -40t-37.5 -24z" />
    <glyph glyph-name="Tcaron" unicode="&#x164;" horiz-adv-x="462" 
d="M287 0h-100l95 601h-161l15 100h412l-16 -100h-150zM346 750h-16l-124 89l45 87l104 -67l127 67l16 -93z" />
    <glyph glyph-name="tcaron" unicode="&#x165;" horiz-adv-x="504" 
d="M341 550l-16 -95h-86l-45 -285q-6 -36 14.5 -59t56.5 -23l-14 -94q-87 0 -127 44.5t-27 131.5l46 285h-61l15 95h62l52 150h67l-24 -150h87zM385 452l16 101q21 5 37 24.5t19 40.5l22 133h97l-22 -133q-11 -71 -60 -115.5t-109 -50.5z" />
    <glyph glyph-name="Umacron" unicode="&#x16a;" horiz-adv-x="578" 
d="M536 150q-10 -64 -63.5 -110t-127.5 -46h-108q-76 0 -116.5 46t-30.5 110l87 551h101l-83 -528q-6 -36 12.5 -58t50.5 -22h91q33 0 58.5 22t30.5 58l84 528h101zM549 878l-16 -105h-262l16 105h262z" />
    <glyph glyph-name="umacron" unicode="&#x16b;" horiz-adv-x="497" 
d="M152 550h97l-62 -385q-5 -36 11 -56t46 -20h22q47 0 87 43l67 418h97l-87 -550h-67l-5 47q-61 -53 -125 -53h-32q-63 0 -93 47.5t-18 117.5zM491 713l-15 -96h-263l16 96h262z" />
    <glyph glyph-name="Uring" unicode="&#x16e;" horiz-adv-x="578" 
d="M310 883q8 47 44.5 80.5t87.5 33.5h13q49 0 74.5 -33.5t17.5 -80.5l-4 -20q-8 -48 -43.5 -81.5t-84.5 -33.5h-13q-51 0 -78 34t-18 81zM471 868l2 9q5 22 -6 35.5t-30 13.5h-4q-18 0 -32.5 -13.5t-18.5 -35.5l-2 -9q-4 -22 6.5 -35t29.5 -13h4q18 0 32.5 13t18.5 35z
M536 150q-10 -64 -63.5 -110t-127.5 -46h-108q-76 0 -116.5 46t-30.5 110l87 551h101l-83 -528q-6 -36 12.5 -58t50.5 -22h91q33 0 58.5 22t30.5 58l84 528h101z" />
    <glyph glyph-name="uring" unicode="&#x16f;" horiz-adv-x="497" 
d="M152 550h97l-62 -385q-5 -36 11 -56t46 -20h22q47 0 87 43l67 418h97l-87 -550h-67l-5 47q-61 -53 -125 -53h-32q-63 0 -93 47.5t-18 117.5zM241 722q7 47 44 80.5t88 33.5h13q49 0 73.5 -33.5t17.5 -80.5l-3 -20q-6 -47 -42 -81t-85 -34h-13q-51 0 -77 33.5t-19 81.5z
M403 708l1 9q3 21 -7.5 34.5t-28.5 13.5h-5q-18 0 -32.5 -13.5t-17.5 -34.5l-1 -9q-3 -23 6.5 -36t27.5 -13h6q17 0 32 13.5t19 35.5z" />
    <glyph glyph-name="Uhungarumlaut" unicode="&#x170;" horiz-adv-x="578" 
d="M366 940l65 -51l-117 -140l-55 45zM539 940l66 -51l-118 -140l-55 45zM536 150q-10 -64 -63.5 -110t-127.5 -46h-108q-76 0 -116.5 46t-30.5 110l87 551h101l-83 -528q-6 -36 12.5 -58t50.5 -22h91q33 0 58.5 22t30.5 58l84 528h101z" />
    <glyph glyph-name="uhungarumlaut" unicode="&#x171;" horiz-adv-x="497" 
d="M152 550h97l-62 -385q-5 -36 11 -56t46 -20h22q47 0 87 43l67 418h97l-87 -550h-67l-5 47q-61 -53 -125 -53h-32q-63 0 -93 47.5t-18 117.5zM330 811l66 -53l-143 -162l-55 45zM504 811l65 -53l-143 -162l-55 45z" />
    <glyph glyph-name="Uogonek" unicode="&#x172;" horiz-adv-x="578" 
d="M536 150q-9 -56 -52.5 -100t-105.5 -53q-80 -63 -80 -104q0 -25 40 -25h44l-9 -64h-44q-101 0 -101 72q0 57 61 118h-52q-76 0 -116.5 46t-30.5 110l87 551h101l-83 -528q-6 -36 12.5 -58t50.5 -22h91q33 0 58.5 22t30.5 58l84 528h101z" />
    <glyph glyph-name="uogonek" unicode="&#x173;" horiz-adv-x="497" 
d="M430 0h-8q-84 -63 -84 -107q0 -25 40 -25h44l-9 -64h-44q-101 0 -101 72q0 69 93 147l-3 24q-61 -53 -125 -53h-32q-63 0 -93 47.5t-18 117.5l62 391h97l-62 -385q-5 -36 11 -56t46 -20h22q47 0 87 43l67 418h97z" />
    <glyph glyph-name="Ydieresis" unicode="&#x178;" horiz-adv-x="563" 
d="M335 0h-100l43 280l-135 421h103l100 -315l197 315h100l-264 -421zM468 909h105l-22 -132h-105zM280 909h105l-21 -132h-105z" />
    <glyph glyph-name="Zacute" unicode="&#x179;" horiz-adv-x="532" 
d="M497 99l-15 -99h-432l15 99l393 502h-306l16 100h418l-15 -100l-384 -502h310zM510 937l20 -99l-227 -84l-18 88z" />
    <glyph glyph-name="zacute" unicode="&#x17a;" horiz-adv-x="445" 
d="M478 550l-15 -95l-292 -359h246l-15 -96h-358l16 96l290 359h-223l15 95h336zM422 778l19 -91l-232 -97l-17 77z" />
    <glyph glyph-name="Zdotaccent" unicode="&#x17b;" horiz-adv-x="532" 
d="M497 99l-15 -99h-432l15 99l393 502h-306l16 100h418l-15 -100l-384 -502h310zM359 904h98l-21 -130h-97z" />
    <glyph glyph-name="zdotaccent" unicode="&#x17c;" horiz-adv-x="445" 
d="M478 550l-15 -95l-292 -359h246l-15 -96h-358l16 96l290 359h-223l15 95h336zM285 759h96l-21 -133h-97z" />
    <glyph glyph-name="Zcaron" unicode="&#x17d;" horiz-adv-x="548" 
d="M505 99l-15 -99h-432l15 99l393 502h-306l16 100h418l-15 -100l-384 -502h310zM397 750h-16l-124 89l45 87l104 -67l127 67l16 -93z" />
    <glyph glyph-name="zcaron" unicode="&#x17e;" horiz-adv-x="445" 
d="M478 550l-15 -95l-292 -359h246l-15 -96h-358l16 96l290 359h-223l15 95h336zM328 590h-18l-113 98l42 76l95 -73l120 73l16 -83z" />
    <glyph glyph-name="uni0218" unicode="&#x218;" horiz-adv-x="546" 
d="M82 205h101l-5 -32q-7 -36 15 -58t59 -22h71q39 0 67.5 20t33.5 57l5 30q1 6 -0.5 12t-6 12t-9 10.5t-13 10.5t-15 10t-19 10t-20 10t-22 11t-22.5 11q-37 18 -62 34.5t-51 40.5t-36.5 55.5t-4.5 68.5l10 64q9 59 60.5 102.5t122.5 43.5h79q77 0 116.5 -44.5t29.5 -107.5
l-11 -77h-100l8 53q5 35 -15 56t-55 21h-52q-32 0 -57 -19.5t-30 -51.5l-4 -31q-4 -29 21.5 -51t75.5 -45q38 -17 55.5 -26t50 -29.5t47 -37.5t25.5 -43.5t6 -55.5l-11 -71q-10 -65 -66 -108.5t-136 -43.5h-88q-81 0 -124 46t-33 110zM149 -260l-17 -101q61 5 109.5 49.5
t60.5 115.5l21 134h-96l-21 -134q-3 -20 -19.5 -40t-37.5 -24z" />
    <glyph glyph-name="uni0219" unicode="&#x219;" horiz-adv-x="480" 
d="M353 139l4 21q1 5 0 9.5t-4.5 9t-7 8t-10.5 8t-12 7t-14.5 7t-16 7t-18 7t-17.5 7.5q-31 13 -51.5 24t-42.5 29.5t-31 43.5t-4 56l7 40q9 55 54.5 94t109.5 39h55q64 0 97.5 -42.5t23.5 -103.5l-3 -21h-92l3 16q4 26 -11.5 41t-39.5 15h-37q-22 0 -39.5 -12.5
t-21.5 -32.5l-3 -21q-4 -22 15 -35.5t64 -32.5q29 -12 43 -19t39 -22.5t36.5 -30t19.5 -38t4 -50.5l-6 -36q-9 -55 -57 -96t-113 -41h-69q-69 0 -104 42.5t-26 101.5l4 26h96l-4 -19q-4 -24 13 -39.5t46 -15.5h52q25 0 45 14t24 35zM111 -260l-17 -101q61 5 109.5 49.5
t60.5 115.5l21 134h-96l-21 -134q-3 -20 -19.5 -40t-37.5 -24z" />
    <glyph glyph-name="uni021A" unicode="&#x21a;" horiz-adv-x="462" 
d="M287 0h-100l95 601h-161l15 100h412l-16 -100h-150zM98 -260l-17 -101q61 5 109.5 49.5t60.5 115.5l21 134h-96l-21 -134q-3 -20 -19.5 -40t-37.5 -24z" />
    <glyph glyph-name="uni021B" unicode="&#x21b;" horiz-adv-x="281" 
d="M341 550l-16 -95h-86l-45 -285q-6 -36 14.5 -59t56.5 -23l-14 -94q-87 0 -127 44.5t-27 131.5l46 285h-61l15 95h62l52 150h67l-24 -150h87zM38 -260l-17 -101q61 5 109.5 49.5t60.5 115.5l21 134h-96l-21 -134q-3 -20 -19.5 -40t-37.5 -24z" />
    <glyph glyph-name="circumflex" unicode="&#x2c6;" horiz-adv-x="346" 
d="M285 764h18l113 -92l-41 -82l-97 73l-119 -73l-18 77z" />
    <glyph glyph-name="caron" unicode="&#x2c7;" horiz-adv-x="346" 
d="M276 590h-18l-113 98l42 76l95 -73l120 73l16 -83z" />
    <glyph glyph-name="breve" unicode="&#x2d8;" horiz-adv-x="384" 
d="M371 754h78l-6 -36q-7 -46 -42.5 -79.5t-76.5 -33.5h-71q-42 0 -66.5 33.5t-17.5 79.5l6 36h78l-3 -27q-3 -15 4 -26t20 -11h54q13 0 24.5 11t14.5 26z" />
    <glyph glyph-name="dotaccent" unicode="&#x2d9;" horiz-adv-x="196" 
d="M171 759h96l-21 -133h-97z" />
    <glyph glyph-name="ring" unicode="&#x2da;" horiz-adv-x="299" 
d="M147 722q7 47 44 80.5t88 33.5h13q49 0 73.5 -33.5t17.5 -80.5l-3 -20q-6 -47 -42 -81t-85 -34h-13q-51 0 -77 33.5t-19 81.5zM309 708l1 9q3 21 -7.5 34.5t-28.5 13.5h-5q-18 0 -32.5 -13.5t-17.5 -34.5l-1 -9q-3 -23 6.5 -36t27.5 -13h6q17 0 32 13.5t19 35.5z" />
    <glyph glyph-name="ogonek" unicode="&#x2db;" horiz-adv-x="232" 
d="M186 -132l-9 -64h-44q-101 0 -101 72q0 70 97 150l66 -20q-93 -68 -93 -113q0 -25 40 -25h44z" />
    <glyph glyph-name="tilde" unicode="&#x2dc;" horiz-adv-x="367" 
d="M210 612h-75l6 42q8 49 25.5 72.5t55.5 23.5q27 0 67.5 -25t58.5 -25q19 0 22 20l4 25h76l-10 -56q-13 -79 -79 -79q-32 0 -73.5 23.5t-53.5 23.5q-16 0 -21 -28z" />
    <glyph glyph-name="hungarumlaut" unicode="&#x2dd;" horiz-adv-x="470" 
d="M292 811l66 -53l-143 -162l-55 45zM466 811l65 -53l-143 -162l-55 45z" />
    <glyph glyph-name="uni0401" unicode="&#x401;" horiz-adv-x="516" 
d="M469 99l-16 -99h-383l111 701h374l-15 -100h-275l-30 -192h246l-16 -100h-246l-34 -210h284zM257 909h105l-21 -132h-105zM445 909h105l-22 -132h-105z" />
    <glyph glyph-name="uni0402" unicode="&#x402;" horiz-adv-x="668" 
d="M536 701l-15 -100h-150l-27 -171q52 35 89 35h92q73 0 112 -46t29 -110l-25 -156q-10 -64 -63.5 -110.5t-127.5 -46.5h-48l15 100h37q34 0 59.5 21.5t31.5 57.5l17 111q5 37 -13.5 58.5t-51.5 21.5h-86q-33 0 -58 -21.5t-31 -58.5l-46 -286h-100l95 601h-162l16 100h411z
" />
    <glyph glyph-name="uni0403" unicode="&#x403;" horiz-adv-x="427" 
d="M170 0h-100l111 701h344l-15 -100h-245zM484 937l20 -99l-227 -84l-18 88z" />
    <glyph glyph-name="uni0404" unicode="&#x404;" horiz-adv-x="566" 
d="M440 210h101l-10 -60q-10 -64 -63.5 -110t-128.5 -46h-110q-76 0 -116.5 46t-30.5 110l64 400q10 64 65 110t131 46h110q75 0 114 -46t29 -110l-9 -56h-101l6 33q5 36 -14 58t-51 22h-93q-32 0 -58 -22t-31 -58l-19 -118h195l-16 -100h-195l-22 -136q-5 -36 13.5 -58
t50.5 -22h93q33 0 58.5 22t31.5 58z" />
    <glyph glyph-name="uni0405" unicode="&#x405;" horiz-adv-x="546" 
d="M82 205h101l-5 -32q-7 -36 15 -58t59 -22h71q39 0 67.5 20t33.5 57l5 30q1 6 -0.5 12t-6 12t-9 10.5t-13 10.5t-15 10t-19 10t-20 10t-22 11t-22.5 11q-37 18 -62 34.5t-51 40.5t-36.5 55.5t-4.5 68.5l10 64q9 59 60.5 102.5t122.5 43.5h79q77 0 116.5 -44.5t29.5 -107.5
l-11 -77h-100l8 53q5 35 -15 56t-55 21h-52q-32 0 -57 -19.5t-30 -51.5l-4 -31q-4 -29 21.5 -51t75.5 -45q38 -17 55.5 -26t50 -29.5t47 -37.5t25.5 -43.5t6 -55.5l-11 -71q-10 -65 -66 -108.5t-136 -43.5h-88q-81 0 -124 46t-33 110z" />
    <glyph glyph-name="uni0406" unicode="&#x406;" horiz-adv-x="240" 
d="M170 0h-100l111 701h100z" />
    <glyph glyph-name="uni0407" unicode="&#x407;" horiz-adv-x="240" 
d="M170 0h-100l111 701h100zM118 909h105l-21 -132h-105zM306 909h105l-22 -132h-105z" />
    <glyph glyph-name="uni0408" unicode="&#x408;" horiz-adv-x="249" 
d="M190 700h100l-112 -712q-15 -93 -75 -144t-149 -51h-39l15 98h39q40 0 71 26.5t38 70.5z" />
    <glyph glyph-name="uni0409" unicode="&#x409;" horiz-adv-x="929" 
d="M206 701h447l-45 -284h170q77 0 115.5 -54t26.5 -131l-8 -48q-12 -77 -67 -130.5t-129 -53.5h-274l95 601h-247l-68 -427q-13 -86 -67 -131t-136 -45h-10l16 97h9q33 0 58 21.5t30 57.5zM752 319h-160l-35 -220h164q33 0 58 22t32 58l9 57q7 37 -13 60t-55 23z" />
    <glyph glyph-name="uni040A" unicode="&#x40a;" horiz-adv-x="905" 
d="M170 0h-100l111 701h100l-46 -288h248l46 288h100l-45 -284h170q76 0 115 -54t27 -131l-8 -48q-12 -77 -67 -130.5t-129 -53.5h-274l49 313h-248zM727 319h-159l-35 -220h163q34 0 59.5 22t31.5 58l8 57q6 37 -13.5 60t-54.5 23z" />
    <glyph glyph-name="uni040B" unicode="&#x40b;" horiz-adv-x="668" 
d="M276 0h-100l95 601h-162l16 100h411l-15 -100h-150l-27 -171q52 35 89 35h92q73 0 112 -46t29 -110l-48 -309h-101l45 286q6 37 -13 58.5t-52 21.5h-86q-33 0 -58 -21.5t-31 -58.5z" />
    <glyph glyph-name="uni040C" unicode="&#x40c;" horiz-adv-x="555" 
d="M170 0h-100l111 700h100l-48 -299h73l186 299h112l-218 -341l144 -359h-113l-115 302h-84zM519 937l20 -99l-227 -84l-18 88z" />
    <glyph glyph-name="uni040E" unicode="&#x40e;" horiz-adv-x="530" 
d="M500 700h100l-293 -507q-4 -7 -11 -19q-29 -50 -44 -73t-41.5 -51t-57 -39t-72.5 -11h-20l16 98h14q61 0 128 114l28 48l-102 440h104l69 -317zM453 899h78l-6 -36q-7 -43 -41 -74.5t-72 -31.5h-83q-40 0 -63 31t-15 75l6 36h78l-3 -19q-2 -12 4 -20.5t16 -8.5h68
q10 0 18.5 9t10.5 20z" />
    <glyph glyph-name="uni040F" unicode="&#x40f;" horiz-adv-x="587" 
d="M181 701h100l-96 -602h248l96 602h100l-111 -701h-175l-19 -123h-99l19 123h-174z" />
    <glyph glyph-name="uni0410" unicode="&#x410;" horiz-adv-x="593" 
d="M357 703h101l103 -703h-101l-23 173h-228l-77 -173h-100zM384 565l-131 -292h170z" />
    <glyph glyph-name="uni0411" unicode="&#x411;" horiz-adv-x="556" 
d="M525 701l-15 -100h-245l-29 -184h170q77 0 115.5 -54t26.5 -131l-7 -48q-12 -77 -67 -130.5t-129 -53.5h-275l111 701h344zM379 319h-159l-35 -220h164q33 0 59 22t31 58l9 57q5 37 -14.5 60t-54.5 23z" />
    <glyph glyph-name="uni0412" unicode="&#x412;" horiz-adv-x="556" 
d="M70 0l111 700h235q74 0 112 -50t27 -121l-7 -49q-11 -67 -68 -110q39 -21 57 -61t10 -86l-6 -39q-13 -77 -67.5 -130.5t-128.5 -53.5h-275zM378 310h-159l-34 -211h164q33 0 59 22t31 58l8 50q5 37 -14.5 59t-54.5 22zM390 601h-125l-30 -191h125q33 0 58.5 20.5
t29.5 54.5l6 39q5 35 -13.5 56t-50.5 21z" />
    <glyph glyph-name="uni0413" unicode="&#x413;" horiz-adv-x="428" 
d="M170 0h-100l111 701h344l-15 -100h-245z" />
    <glyph glyph-name="uni0414" unicode="&#x414;" horiz-adv-x="551" 
d="M541 99l-36 -222h-101l19 123h-308l-19 -124h-101l36 223h67q117 274 176 602h298l-95 -602h64zM352 601q-69 -300 -152 -502h176l80 502h-104z" />
    <glyph glyph-name="uni0415" unicode="&#x415;" horiz-adv-x="516" 
d="M469 99l-16 -99h-383l111 701h374l-15 -100h-275l-30 -192h246l-16 -100h-246l-34 -210h284z" />
    <glyph glyph-name="uni0416" unicode="&#x416;" horiz-adv-x="871" 
d="M173 700h112l91 -299h73l48 299h100l-48 -299h73l187 299h111l-218 -341l144 -359h-114l-115 302h-83l-48 -302h-100l48 302h-85l-210 -302h-114l259 359z" />
    <glyph glyph-name="uni0417" unicode="&#x417;" horiz-adv-x="548" 
d="M514 154q-11 -65 -64.5 -112.5t-127.5 -47.5h-96q-76 0 -116.5 46t-30.5 110l8 48h100l-3 -25q-6 -36 12.5 -57.5t50.5 -21.5h80q32 0 58 23t32 60l9 54q5 37 -15 58.5t-55 21.5h-81l16 100h71q31 0 54.5 19.5t28.5 52.5l9 51q5 33 -11.5 53t-45.5 20h-60q-28 0 -51 -20
t-28 -53l-3 -22h-101l7 44q9 61 61.5 105.5t125.5 44.5h76q70 0 107 -44.5t27 -105.5l-15 -92q-9 -57 -61 -98q59 -42 48 -111z" />
    <glyph glyph-name="uni0418" unicode="&#x418;" horiz-adv-x="587" 
d="M518 0h-100l77 487l-325 -487h-100l111 701h100l-77 -484l323 484h102z" />
    <glyph glyph-name="uni0419" unicode="&#x419;" horiz-adv-x="587" 
d="M509 899h78l-6 -36q-7 -43 -41 -74.5t-72 -31.5h-83q-40 0 -63 31t-15 75l6 36h78l-3 -19q-2 -12 4 -20.5t16 -8.5h68q10 0 18.5 9t10.5 20zM518 0h-100l77 487l-325 -487h-100l111 701h100l-77 -484l323 484h102z" />
    <glyph glyph-name="uni041A" unicode="&#x41a;" horiz-adv-x="555" 
d="M170 0h-100l111 700h100l-48 -299h73l186 299h112l-218 -341l144 -359h-113l-115 302h-84z" />
    <glyph glyph-name="uni041B" unicode="&#x41b;" horiz-adv-x="609" 
d="M214 701h438l-111 -701h-101l95 601h-236l-68 -427q-13 -86 -68 -131t-137 -45h-10l16 97h10q33 0 58 21.5t30 57.5z" />
    <glyph glyph-name="uni041C" unicode="&#x41c;" horiz-adv-x="727" 
d="M186 0h-100l111 701h105l107 -427l241 427h102l-111 -701h-100l75 477l-186 -327h-86l-83 328z" />
    <glyph glyph-name="uni041D" unicode="&#x41d;" horiz-adv-x="587" 
d="M170 0h-100l111 701h100l-46 -288h248l46 288h100l-111 -701h-100l49 313h-248z" />
    <glyph glyph-name="uni041E" unicode="&#x41e;" horiz-adv-x="566" 
d="M251 93h93q33 0 59 22t31 58l57 354q5 36 -14 58t-51 22h-93q-32 0 -58 -22t-31 -58l-57 -354q-5 -36 13.5 -58t50.5 -22zM339 -6h-110q-76 0 -116.5 46t-30.5 110l64 400q10 64 65 110t131 46h110q75 0 114 -46t29 -110l-64 -400q-10 -64 -63.5 -110t-128.5 -46z" />
    <glyph glyph-name="uni041F" unicode="&#x41f;" horiz-adv-x="587" 
d="M170 0h-100l111 701h448l-111 -701h-100l95 601h-248z" />
    <glyph glyph-name="uni0420" unicode="&#x420;" horiz-adv-x="545" 
d="M170 0h-100l111 700h255q76 0 116.5 -44t30.5 -106l-24 -147q-9 -63 -62.5 -109t-127.5 -46h-160zM408 601h-143l-40 -254h149q32 0 58 22t31 57l16 101q6 34 -14.5 54t-56.5 20z" />
    <glyph glyph-name="uni0421" unicode="&#x421;" horiz-adv-x="566" 
d="M434 233h100l-13 -83q-10 -64 -63.5 -110t-128.5 -46h-100q-76 0 -116.5 46t-30.5 110l64 400q10 64 65 110t131 46h100q75 0 114 -46t29 -110l-13 -80h-101l10 57q5 36 -13.5 58t-51.5 22h-83q-32 0 -58 -22t-31 -58l-57 -354q-5 -36 13.5 -58t50.5 -22h83q33 0 59 22
t31 58z" />
    <glyph glyph-name="uni0422" unicode="&#x422;" horiz-adv-x="462" 
d="M287 0h-100l95 601h-161l15 100h412l-16 -100h-150z" />
    <glyph glyph-name="uni0423" unicode="&#x423;" horiz-adv-x="517" 
d="M500 700h100l-293 -507q-4 -7 -11 -19q-29 -50 -44 -73t-41.5 -51t-57 -39t-72.5 -11h-20l16 98h14q61 0 128 114l28 48l-102 440h104l69 -317z" />
    <glyph glyph-name="uni0424" unicode="&#x424;" horiz-adv-x="653" 
d="M379 0h-100l11 74h-54q-77 0 -117 46t-30 110l38 240q10 64 65 110t132 46h54l12 75h100l-12 -75h57q74 0 113 -46t29 -110l-38 -240q-10 -64 -64 -110t-128 -46h-57zM257 173h49l56 354h-49q-32 0 -57.5 -22t-32.5 -58l-30 -194q-6 -36 13 -58t51 -22zM507 527h-45
l-56 -354h45q34 0 59.5 22t31.5 58l31 194q5 36 -13.5 58t-52.5 22z" />
    <glyph glyph-name="uni0425" unicode="&#x425;" horiz-adv-x="609" 
d="M542 700h111l-233 -344l137 -356h-113l-101 263l-188 -263h-111l260 365l-127 335h112l91 -240z" />
    <glyph glyph-name="uni0426" unicode="&#x426;" horiz-adv-x="607" 
d="M281 701l-96 -602h248l96 602h100l-96 -602h63l-34 -222h-100l18 123h-410l111 701h100z" />
    <glyph glyph-name="uni0427" unicode="&#x427;" horiz-adv-x="553" 
d="M161 701h100l-46 -288q-5 -36 13 -58t51 -22h80q30 0 54.5 19t33.5 51l47 298h101l-111 -701h-101l43 275q-54 -41 -105 -41h-77q-71 0 -107 46t-26 110z" />
    <glyph glyph-name="uni0428" unicode="&#x428;" horiz-adv-x="843" 
d="M785 701h101l-111 -701h-705l111 701h100l-96 -602h202l96 602h101l-96 -602h201z" />
    <glyph glyph-name="uni0429" unicode="&#x429;" horiz-adv-x="862" 
d="M785 701h101l-96 -602h63l-34 -222h-101l19 123h-667l111 701h100l-96 -602h202l96 602h101l-96 -602h201z" />
    <glyph glyph-name="uni042A" unicode="&#x42a;" horiz-adv-x="667" 
d="M180 0l95 601h-166l16 99h265l-45 -283h171q76 0 115 -54t27 -131l-8 -48q-12 -77 -67 -130.5t-129 -53.5h-274zM489 319h-160l-35 -220h165q33 0 58 22t31 58l10 57q6 37 -14 60t-55 23z" />
    <glyph glyph-name="uni042B" unicode="&#x42b;" horiz-adv-x="779" 
d="M70 0l111 701h100l-45 -284h170q77 0 115.5 -54t26.5 -131l-7 -48q-12 -77 -67 -130.5t-129 -53.5h-275zM708 0h-99l111 701h99zM379 319h-159l-35 -220h164q33 0 59 22t31 58l9 57q5 37 -14.5 60t-54.5 23z" />
    <glyph glyph-name="uni042C" unicode="&#x42c;" horiz-adv-x="558" 
d="M70 0l111 701h100l-45 -284h170q77 0 115.5 -54t26.5 -131l-7 -48q-12 -77 -67 -130.5t-129 -53.5h-275zM379 319h-159l-35 -220h164q33 0 59 22t31 58l9 57q5 37 -14.5 60t-54.5 23z" />
    <glyph glyph-name="uni042D" unicode="&#x42d;" horiz-adv-x="579" 
d="M99 210h101l-6 -37q-7 -36 11.5 -58t51.5 -22h94q33 0 58.5 22t31.5 58l21 136h-196l15 100h197l19 118q5 36 -13 58t-51 22h-94q-32 0 -58 -22t-31 -58l-5 -33h-101l9 56q10 64 63 110t127 46h111q76 0 116.5 -46t30.5 -110l-63 -400q-10 -64 -65.5 -110t-131.5 -46
h-111q-74 0 -112 46t-28 110z" />
    <glyph glyph-name="uni042E" unicode="&#x42e;" horiz-adv-x="849" 
d="M170 0h-100l111 701h100l-46 -288h173l22 137q10 64 65 110t131 46h111q74 0 112.5 -46t28.5 -110l-63 -400q-10 -64 -63.5 -110t-127.5 -46h-111q-76 0 -116 46t-30 110l25 163h-173zM534 93h94q33 0 58.5 22t31.5 58l56 354q5 36 -13 58t-51 22h-94q-32 0 -58 -22
t-31 -58l-56 -354q-6 -36 12.5 -58t50.5 -22z" />
    <glyph glyph-name="uni042F" unicode="&#x42f;" horiz-adv-x="562" 
d="M492 0h-100l40 254h-131l-146 -254h-105l152 265q-44 17 -65 55t-14 82l23 148q10 62 64 106t131 44h261zM243 527l-16 -101q-5 -32 14 -52.5t51 -20.5h155l40 248h-150q-35 0 -62 -20t-32 -54z" />
    <glyph glyph-name="uni0430" unicode="&#x430;" horiz-adv-x="496" 
d="M457 550h62l-87 -550h-67l-5 47q-59 -53 -118 -53h-56q-60 0 -89.5 52t-17.5 124l33 211q12 73 57.5 124t105.5 51h50q62 0 107 -56zM262 90q49 0 93 47l45 278q-26 46 -77 46h-31q-29 0 -53.5 -23t-30.5 -59l-32 -207q-7 -37 9.5 -59.5t46.5 -22.5h30z" />
    <glyph glyph-name="uni0431" unicode="&#x431;" 
d="M278 -6h-63q-72 0 -110 44.5t-28 105.5l42 262q9 60 61 104.5t124 44.5h83q11 0 20.5 8.5t11.5 22.5l1 8h91l-8 -48q-5 -35 -32 -60.5t-66 -25.5h-114q-28 0 -51 -21.5t-28 -53.5l-4 -25q34 16 67 16h63q70 0 106.5 -44t26.5 -105l-14 -83q-10 -62 -59.5 -106t-119.5 -44
zM232 90h53q27 0 50 20.5t28 53.5l7 43q5 33 -11 53.5t-43 20.5h-53q-28 0 -50.5 -20.5t-28.5 -53.5l-7 -43q-4 -33 11.5 -53.5t43.5 -20.5z" />
    <glyph glyph-name="uni0432" unicode="&#x432;" horiz-adv-x="494" 
d="M66 0l87 550h210q67 0 101 -42.5t25 -101.5l-6 -37q-8 -46 -51 -81q52 -44 42 -107l-6 -36q-10 -60 -57 -102.5t-113 -42.5h-232zM332 231h-133l-21 -135h132q22 0 40 16.5t23 43.5l3 22q4 23 -9 38t-35 15zM346 455h-111l-21 -129h115q22 0 38.5 16.5t20.5 42.5l3 16
q3 24 -10.5 39t-34.5 15z" />
    <glyph glyph-name="uni0433" unicode="&#x433;" horiz-adv-x="375" 
d="M163 0h-97l87 550h297l-15 -95h-200z" />
    <glyph glyph-name="uni0434" unicode="&#x434;" horiz-adv-x="509" 
d="M500 96l-35 -219h-97l19 123h-278l-19 -124h-98l34 220h72q87 189 137 454h273l-72 -454h64zM310 455q-54 -219 -114 -359h143l57 359h-86z" />
    <glyph glyph-name="uni0435" unicode="&#x435;" 
d="M497 388l-25 -156h-284l-9 -62q-6 -36 11.5 -58t47.5 -22h42q31 0 56.5 22t28.5 58v1h98l-2 -12q-11 -68 -61.5 -116.5t-118.5 -48.5h-69q-70 0 -106 48.5t-25 116.5l36 229q11 70 62.5 119t122.5 49h69q68 0 102.5 -49t23.5 -119zM212 380l-10 -62h186l10 62
q5 37 -12 59t-47 22h-42q-30 0 -54.5 -22.5t-30.5 -58.5z" />
    <glyph glyph-name="uni0436" unicode="&#x436;" horiz-adv-x="741" 
d="M127 550h109l91 -217h47l35 217h97l-35 -217h49l158 217h110l-198 -258l139 -292h-112l-104 238h-57l-37 -238h-97l37 238h-56l-180 -238h-109l230 292z" />
    <glyph glyph-name="uni0437" unicode="&#x437;" 
d="M230 229l15 95h74q22 0 40 15t22 38l3 18q5 27 -8 43.5t-36 16.5h-44q-22 0 -41 -16.5t-23 -43.5l-2 -14h-97l4 25q9 59 55 101.5t110 42.5h56q66 0 100.5 -43t24.5 -101l-8 -46q-8 -42 -47 -75q46 -37 38 -87l-9 -59q-10 -60 -57.5 -102.5t-113.5 -42.5h-90
q-64 0 -96.5 42.5t-23.5 102.5l4 25h97l-2 -14q-4 -27 9 -43.5t35 -16.5h79q22 0 40 16.5t23 43.5l4 25q4 23 -9.5 38.5t-35.5 15.5h-90z" />
    <glyph glyph-name="uni0438" unicode="&#x438;" horiz-adv-x="511" 
d="M163 0h-97l87 550h97l-56 -352l241 352h97l-87 -550h-97l55 351z" />
    <glyph glyph-name="uni0439" unicode="&#x439;" horiz-adv-x="511" 
d="M163 0h-97l87 550h97l-56 -352l241 352h97l-87 -550h-97l55 351zM440 754h78l-6 -36q-7 -46 -42.5 -79.5t-76.5 -33.5h-71q-42 0 -66.5 33.5t-17.5 79.5l6 36h78l-3 -27q-3 -15 4 -26t20 -11h54q13 0 24.5 11t14.5 26z" />
    <glyph glyph-name="uni043A" unicode="&#x43a;" horiz-adv-x="486" 
d="M472 0h-110l-105 238h-57l-37 -238h-97l87 550h97l-35 -217h48l159 217h110l-198 -258z" />
    <glyph glyph-name="uni043B" unicode="&#x43b;" horiz-adv-x="516" 
d="M170 550h367l-87 -550h-96l71 455h-174l-46 -291q-12 -82 -65 -126t-132 -44h-5l15 94h4q30 0 55.5 21.5t30.5 54.5z" />
    <glyph glyph-name="uni043C" unicode="&#x43c;" horiz-adv-x="640" 
d="M163 0h-97l87 550h120l87 -304l181 304h120l-87 -550h-96l59 380l-148 -248h-97l-69 247z" />
    <glyph glyph-name="uni043D" unicode="&#x43d;" horiz-adv-x="511" 
d="M163 0h-97l87 550h97l-34 -213h185l34 213h97l-87 -550h-97l38 242h-185z" />
    <glyph glyph-name="uni043E" unicode="&#x43e;" 
d="M238 90h42q30 0 54.5 22t30.5 58l33 210q6 36 -11.5 58.5t-47.5 22.5h-42q-30 0 -54.5 -22.5t-30.5 -58.5l-33 -210q-6 -36 11.5 -58t47.5 -22zM281 -6h-69q-70 0 -106 48.5t-25 116.5l36 229q11 70 62.5 119t122.5 49h69q68 0 102 -49t23 -119l-35 -229
q-11 -68 -61.5 -116.5t-118.5 -48.5z" />
    <glyph glyph-name="uni043F" unicode="&#x43f;" horiz-adv-x="511" 
d="M163 0h-97l87 550h379l-87 -550h-97l72 455h-185z" />
    <glyph glyph-name="uni0440" unicode="&#x440;" horiz-adv-x="501" 
d="M153 550h68l3 -49q63 55 125 55h49q61 0 90 -51t17 -124l-33 -211q-12 -73 -57 -124.5t-106 -51.5h-55q-50 0 -87 37l-37 -238h-97zM320 461q-50 0 -93 -48l-43 -275q27 -48 80 -48h28q29 0 53 22.5t31 59.5l32 207q6 37 -11 59.5t-46 22.5h-31z" />
    <glyph glyph-name="uni0441" unicode="&#x441;" horiz-adv-x="489" 
d="M486 358h-98l4 22q6 36 -11.5 58.5t-47.5 22.5h-33q-30 0 -54.5 -22.5t-30.5 -58.5l-33 -210q-6 -36 11.5 -58t47.5 -22h33q30 0 54 22t31 58l4 22h97l-5 -33q-12 -68 -62 -116.5t-118 -48.5h-60q-70 0 -106 48.5t-25 116.5l36 229q11 70 62.5 119t122.5 49h60
q68 0 102.5 -49t23.5 -119z" />
    <glyph glyph-name="uni0442" unicode="&#x442;" horiz-adv-x="405" 
d="M85 455l14 95h380l-14 -95h-142l-72 -455h-97l72 455h-141z" />
    <glyph glyph-name="uni0443" unicode="&#x443;" horiz-adv-x="432" 
d="M107 550h98l66 -243l129 243h98l-185 -358q-49 -96 -109 -146t-143 -50h-4l15 95h3q34 0 70 26t60 65z" />
    <glyph glyph-name="uni0444" unicode="&#x444;" horiz-adv-x="772" 
d="M555 -6h-52q-36 0 -67 13l-34 -214h-98l34 212q-31 -11 -65 -11h-53q-74 0 -112.5 46t-28.5 110l40 251q10 64 63 109.5t127 45.5h53q34 0 61 -12l33 206h98l-33 -207q34 13 71 13h52q72 0 109 -45.5t27 -109.5l-40 -251q-10 -64 -61.5 -110t-123.5 -46zM238 90h42
q28 0 52.5 18t29.5 49l37 236q5 30 -13.5 49t-46.5 19h-42q-30 0 -54.5 -22.5t-30.5 -58.5l-34 -210q-5 -36 12.5 -58t47.5 -22zM522 90h42q28 0 52.5 18t29.5 49l37 236q5 30 -13.5 49t-46.5 19h-42q-30 0 -54.5 -22.5t-30.5 -58.5l-34 -210q-5 -36 12.5 -58t47.5 -22z" />
    <glyph glyph-name="uni0445" unicode="&#x445;" horiz-adv-x="493" 
d="M134 0h-110l213 283l-113 267h110l74 -175l123 175h112l-194 -271l119 -279h-110l-81 189z" />
    <glyph glyph-name="uni0446" unicode="&#x446;" horiz-adv-x="526" 
d="M66 0l87 550h97l-72 -454h185l72 454h97l-72 -454h67l-34 -211h-97l18 115h-348z" />
    <glyph glyph-name="uni0447" unicode="&#x447;" horiz-adv-x="483" 
d="M125 550h97l-33 -208q-5 -35 12 -55t46 -20h23q57 0 99 47l38 236h97l-87 -550h-97l34 216q-62 -45 -124 -45h-35q-60 0 -88 44t-18 109z" />
    <glyph glyph-name="uni0448" unicode="&#x448;" horiz-adv-x="713" 
d="M66 0l87 550h97l-72 -454h145l71 454h98l-72 -454h145l72 454h97l-87 -550h-581z" />
    <glyph glyph-name="uni0449" unicode="&#x449;" horiz-adv-x="726" 
d="M66 0l87 550h97l-72 -454h145l71 454h98l-72 -454h145l72 454h97l-72 -454h67l-34 -211h-98l18 115h-549z" />
    <glyph glyph-name="uni044A" unicode="&#x44a;" horiz-adv-x="568" 
d="M85 455l14 95h239l-29 -179h128q69 0 105.5 -44.5t26.5 -105.5l-12 -71q-9 -61 -59.5 -105.5t-119.5 -44.5h-224l72 455h-141zM412 276h-118l-28 -180h118q29 0 52 21t27 54l5 31q4 34 -11.5 54t-44.5 20z" />
    <glyph glyph-name="uni044B" unicode="&#x44b;" horiz-adv-x="686" 
d="M250 550l-29 -179h128q70 0 105.5 -44t25.5 -106l-11 -71q-10 -61 -60 -105.5t-119 -44.5h-224l87 550h97zM619 0h-98l87 550h98zM325 276h-119l-28 -180h118q29 0 52 20.5t28 54.5l4 31q4 34 -11.5 54t-43.5 20z" />
    <glyph glyph-name="uni044C" unicode="&#x44c;" horiz-adv-x="480" 
d="M250 550l-29 -179h128q70 0 105.5 -44t25.5 -106l-11 -71q-10 -61 -60 -105.5t-119 -44.5h-224l87 550h97zM325 276h-119l-28 -180h118q29 0 52 20.5t28 54.5l4 31q4 34 -11.5 54t-43.5 20z" />
    <glyph glyph-name="uni044D" unicode="&#x44d;" 
d="M210 370h-96l5 31q10 64 61.5 109.5t123.5 45.5h52q74 0 113.5 -45.5t29.5 -109.5l-40 -251q-10 -64 -64 -110t-128 -46h-52q-72 0 -109 46t-27 110l4 30h97l-2 -10q-6 -36 12 -58t48 -22h42q30 0 54 22t31 58l10 64h-145l16 95h144l8 51q6 36 -11.5 58.5t-47.5 22.5h-42
q-30 0 -54 -22t-31 -59z" />
    <glyph glyph-name="uni044E" unicode="&#x44e;" horiz-adv-x="727" 
d="M163 0h-97l87 550h97l-34 -213h129l11 64q10 64 63 109.5t128 45.5h52q72 0 109.5 -45.5t27.5 -109.5l-40 -251q-10 -64 -62 -110t-124 -46h-52q-75 0 -113.5 46t-28.5 110l14 92h-129zM475 90h42q30 0 54.5 22t29.5 58l34 210q6 36 -11.5 58.5t-47.5 22.5h-42
q-30 0 -54.5 -22.5t-29.5 -58.5l-34 -210q-6 -36 11.5 -58t47.5 -22z" />
    <glyph glyph-name="uni044F" unicode="&#x44f;" horiz-adv-x="483" 
d="M287 550h217l-87 -550h-96l29 182h-92l-115 -182h-100l123 194q-38 16 -55.5 50.5t-11.5 74.5l12 81q10 62 59.5 106t116.5 44zM199 342q-4 -29 10 -47t38 -18h118l28 178h-117q-24 0 -44.5 -18.5t-25.5 -47.5z" />
    <glyph glyph-name="uni0451" unicode="&#x451;" 
d="M497 388l-25 -156h-284l-9 -62q-6 -36 11.5 -58t47.5 -22h42q31 0 56.5 22t28.5 58v1h98l-2 -12q-11 -68 -61.5 -116.5t-118.5 -48.5h-69q-70 0 -106 48.5t-25 116.5l36 229q11 70 62.5 119t122.5 49h69q68 0 102.5 -49t23.5 -119zM212 380l-10 -62h186l10 62
q5 37 -12 59t-47 22h-42q-30 0 -54.5 -22.5t-30.5 -58.5zM413 759h99l-21 -133h-99zM219 759h98l-22 -133h-98z" />
    <glyph glyph-name="uni0452" unicode="&#x452;" horiz-adv-x="502" 
d="M222 -207l16 94h5q36 0 65 25t36 65l60 383q6 36 -10.5 56t-46.5 20h-23q-58 0 -101 -49l-61 -387h-97l95 601h-53l11 64h52l14 85h97l-14 -85h180l-10 -64h-180l-18 -114q63 44 126 44h35q59 0 86.5 -43t17.5 -108l-63 -403q-15 -89 -71.5 -136.5t-141.5 -47.5h-6z" />
    <glyph glyph-name="uni0453" unicode="&#x453;" horiz-adv-x="375" 
d="M163 0h-97l87 550h297l-15 -95h-200zM433 778l19 -91l-232 -97l-17 77z" />
    <glyph glyph-name="uni0454" unicode="&#x454;" 
d="M494 370h-98l2 10q7 36 -11 58.5t-48 22.5h-42q-30 0 -54.5 -22.5t-30.5 -58.5l-8 -51h146l-15 -95h-147l-10 -64q-5 -36 12.5 -58t47.5 -22h42q30 0 53.5 21.5t30.5 58.5l2 10h98l-5 -30q-10 -64 -62.5 -110t-123.5 -46h-53q-74 0 -112.5 46t-28.5 110l40 251
q10 64 63 109.5t127 45.5h53q71 0 109 -45.5t28 -109.5z" />
    <glyph glyph-name="uni0455" unicode="&#x455;" horiz-adv-x="486" 
d="M355 139l4 21q2 11 -5 20.5t-23.5 19t-31 15.5t-40.5 15q-29 11 -51 23t-43 30t-30.5 43.5t-4.5 56.5l7 40q9 55 54.5 94t109.5 39h55q64 0 97.5 -42.5t23.5 -103.5l-3 -21h-92l3 16q4 26 -11.5 41t-39.5 15h-37q-22 0 -39.5 -12.5t-21.5 -32.5l-3 -21q-4 -22 16 -36
t63 -32q27 -11 43 -18.5t39.5 -22.5t36 -30t20 -38.5t3.5 -50.5l-6 -36q-9 -55 -57 -96t-113 -41h-69q-69 0 -104 42.5t-26 101.5l4 26h96l-4 -19q-4 -24 13 -39.5t46 -15.5h52q25 0 45 14t24 35z" />
    <glyph glyph-name="uni0456" unicode="&#x456;" horiz-adv-x="229" 
d="M153 550h97l-87 -550h-97zM185 750h97l-22 -133h-97z" />
    <glyph glyph-name="uni0457" unicode="&#x457;" horiz-adv-x="229" 
d="M90 759h98l-22 -133h-98zM284 759h99l-21 -133h-99zM153 550h97l-87 -550h-97z" />
    <glyph glyph-name="uni0458" unicode="&#x458;" horiz-adv-x="230" 
d="M154 550h97l-92 -582q-13 -85 -70.5 -130t-144.5 -45l14 94q38 0 68 22.5t36 58.5zM185 750h97l-22 -133h-97z" />
    <glyph glyph-name="uni0459" unicode="&#x459;" horiz-adv-x="778" 
d="M170 550h379l-29 -179h126q70 0 106.5 -44t26.5 -106l-12 -71q-10 -61 -60 -105.5t-120 -44.5h-223l72 455h-185l-46 -291q-12 -82 -65 -126t-132 -44h-5l14 94h5q30 0 55.5 21.5t30.5 54.5zM623 276h-118l-28 -180h118q29 0 51.5 20.5t27.5 54.5l4 31q5 34 -10.5 54
t-44.5 20z" />
    <glyph glyph-name="uni045A" unicode="&#x45a;" horiz-adv-x="762" 
d="M163 0h-97l87 550h97l-34 -213h185l34 213h97l-29 -179h127q70 0 106.5 -44t26.5 -106l-12 -71q-10 -61 -60 -105.5t-120 -44.5h-223l38 242h-185zM607 276h-119l-28 -180h119q28 0 50.5 20.5t27.5 54.5l4 31q5 34 -10.5 54t-43.5 20z" />
    <glyph glyph-name="uni045B" unicode="&#x45b;" horiz-adv-x="506" 
d="M107 598l11 64h53l14 88h97l-14 -88h189l-10 -64h-189l-18 -112q62 45 126 45h35q59 0 87 -43.5t18 -107.5l-61 -380h-97l57 360q6 36 -11 56t-46 20h-23q-56 0 -100 -47l-62 -389h-97l95 598h-54z" />
    <glyph glyph-name="uni045C" unicode="&#x45c;" horiz-adv-x="486" 
d="M472 0h-110l-105 238h-57l-37 -238h-97l87 550h97l-35 -217h48l159 217h110l-198 -258zM459 778l19 -91l-232 -97l-17 77z" />
    <glyph glyph-name="uni045E" unicode="&#x45e;" horiz-adv-x="435" 
d="M109 550h98l66 -243l129 243h98l-185 -358q-49 -96 -109 -146t-143 -50h-4l15 95h3q34 0 70 26t60 65zM398 754h78l-6 -36q-7 -46 -42.5 -79.5t-76.5 -33.5h-71q-42 0 -66.5 33.5t-17.5 79.5l6 36h78l-3 -27q-3 -15 4 -26t20 -11h54q13 0 24.5 11t14.5 26z" />
    <glyph glyph-name="uni045F" unicode="&#x45f;" horiz-adv-x="511" 
d="M66 0l87 550h97l-72 -454h185l72 454h97l-87 -550h-141l-19 -121h-97l19 121h-141z" />
    <glyph glyph-name="uni0490" unicode="&#x490;" horiz-adv-x="428" 
d="M170 0h-100l111 701h243l19 119h101l-34 -219h-245z" />
    <glyph glyph-name="uni0491" unicode="&#x491;" horiz-adv-x="375" 
d="M163 0h-97l87 550h199l22 140h98l-37 -235h-200z" />
    <glyph glyph-name="endash" unicode="&#x2013;" horiz-adv-x="514" 
d="M520 347l-16 -97h-415l16 97h415z" />
    <glyph glyph-name="emdash" unicode="&#x2014;" horiz-adv-x="821" 
d="M828 347l-16 -97h-723l16 97h723z" />
    <glyph glyph-name="quoteleft" unicode="&#x2018;" horiz-adv-x="222" 
d="M308 751l-15 -101q-21 -5 -37 -25t-19 -40l-22 -133h-96l21 133q12 71 60 115.5t108 50.5z" />
    <glyph glyph-name="quoteright" unicode="&#x2019;" horiz-adv-x="222" 
d="M104 452l16 101q21 5 37 24.5t19 40.5l22 133h97l-22 -133q-11 -71 -60 -115.5t-109 -50.5z" />
    <glyph glyph-name="quotesinglbase" unicode="&#x201a;" horiz-adv-x="223" 
d="M-10 -166l16 102q21 4 37.5 24t19.5 40l22 133h96l-21 -133q-12 -71 -60.5 -115.5t-109.5 -50.5z" />
    <glyph glyph-name="quotedblleft" unicode="&#x201c;" horiz-adv-x="366" 
d="M466 751l-15 -101q-22 -5 -38 -24.5t-19 -40.5l-22 -133h-96l21 133q12 71 60 115.5t109 50.5zM298 751l-16 -101q-21 -5 -37 -25t-19 -40l-21 -133h-97l21 133q12 71 60 115.5t109 50.5z" />
    <glyph glyph-name="quotedblright" unicode="&#x201d;" horiz-adv-x="366" 
d="M104 452l16 101q21 5 37 24.5t19 40.5l22 133h97l-22 -133q-11 -71 -60 -115.5t-109 -50.5zM271 452l17 101q21 5 37.5 25t19.5 40l21 133h96l-20 -133q-12 -71 -61 -115.5t-110 -50.5z" />
    <glyph glyph-name="quotedblbase" unicode="&#x201e;" horiz-adv-x="403" 
d="M-10 -166l16 102q21 4 37.5 24t19.5 40l22 133h96l-21 -133q-12 -71 -60.5 -115.5t-109.5 -50.5zM170 -166l16 102q21 4 37.5 24t19.5 40l22 133h96l-21 -133q-12 -72 -60.5 -116.5t-109.5 -49.5z" />
    <glyph glyph-name="dagger" unicode="&#x2020;" horiz-adv-x="462" 
d="M248 -190h-97l99 625h-161l15 97h161l41 258h97l-41 -258h165l-16 -97h-165z" />
    <glyph glyph-name="daggerdbl" unicode="&#x2021;" horiz-adv-x="462" 
d="M248 -190h-97l42 265h-161l15 97h161l41 256h-161l15 97h161l42 265h97l-42 -265h164l-15 -97h-164l-41 -256h165l-16 -97h-164z" />
    <glyph glyph-name="bullet" unicode="&#x2022;" horiz-adv-x="297" 
d="M205 208h-48q-36 0 -57 29t-15 70l8 48q7 41 37 70.5t65 29.5h49q35 0 56.5 -30t14.5 -70l-8 -48q-6 -40 -36.5 -69.5t-65.5 -29.5z" />
    <glyph glyph-name="ellipsis" unicode="&#x2026;" horiz-adv-x="670" 
d="M85 133h96l-21 -133h-97zM308 133h97l-22 -133h-97zM532 133h97l-22 -133h-97z" />
    <glyph glyph-name="perthousand" unicode="&#x2030;" horiz-adv-x="996" 
d="M229 463h20q13 0 23 9.5t13 25.5l13 86q2 15 -5 24.5t-20 9.5h-20q-12 0 -22.5 -9.5t-13.5 -24.5l-13 -86q-2 -16 5 -25.5t20 -9.5zM241 376h-28q-51 0 -77.5 31.5t-20.5 75.5l18 115q7 44 44 76t88 32h28q50 0 75 -32t18 -76l-18 -115q-7 -44 -42 -75.5t-85 -31.5z
M269 0h-92l361 701h92zM535 81h20q13 0 23.5 9.5t13.5 25.5l14 86q2 15 -5.5 24.5t-20.5 9.5h-20q-13 0 -23 -9t-13 -25l-14 -86q-2 -16 5 -25.5t20 -9.5zM547 -6h-28q-51 0 -77.5 31.5t-19.5 75.5l18 115q7 44 44 76t88 32h28q50 0 75 -32t18 -76l-18 -115
q-7 -44 -42.5 -75.5t-85.5 -31.5zM838 81h19q14 0 24.5 9.5t12.5 25.5l15 86q2 15 -5.5 24.5t-21.5 9.5h-19q-13 0 -23 -9.5t-12 -24.5l-14 -86q-3 -16 4 -25.5t20 -9.5zM851 -6h-28q-51 0 -77.5 31.5t-19.5 75.5l18 115q7 44 44 76t88 32h28q50 0 74.5 -32t18.5 -76
l-18 -115q-7 -44 -42.5 -75.5t-85.5 -31.5z" />
    <glyph glyph-name="guilsinglleft" unicode="&#x2039;" horiz-adv-x="368" 
d="M79 217l19 115l301 176l-18 -113l-204 -120l166 -120l-18 -113z" />
    <glyph glyph-name="guilsinglright" unicode="&#x203a;" horiz-adv-x="368" 
d="M374 332l-18 -115l-300 -175l18 113l203 119l-165 121l17 113z" />
    <glyph glyph-name="fraction" unicode="&#x2044;" horiz-adv-x="398" 
d="M115 0h-105l380 700h105z" />
    <glyph glyph-name="Euro" unicode="&#x20ac;" horiz-adv-x="603" 
d="M400 302l-12 -77h-156l-8 -52q-6 -36 12.5 -58t52.5 -22h93q32 0 58 22t31 58l9 60h102l-13 -83q-10 -64 -64 -110t-127 -46h-110q-77 0 -117.5 46t-30.5 110l12 75h-76l12 77h76l15 97h-76l13 78h75l12 73q10 64 65 110t132 46h110q74 0 113 -46t29 -110l-12 -80h-102
l9 57q6 36 -13 58t-51 22h-93q-33 0 -58.5 -22t-32.5 -58l-8 -50h157l-13 -78h-156l-15 -97h156z" />
    <glyph glyph-name="uni2116" unicode="&#x2116;" horiz-adv-x="876" 
d="M170 0h-100l111 701h100l171 -485l77 485h100l-111 -701h-102l-170 480zM772 277h-29q-51 0 -76.5 31t-19.5 74l20 121q7 43 42 73.5t86 30.5h29q49 0 74 -30.5t18 -73.5l-18 -121q-7 -43 -42 -74t-84 -31zM611 143l14 89h249l-14 -89h-249zM756 348h20q18 0 33 13.5
t19 35.5l14 91q4 22 -7 35.5t-29 13.5h-20q-18 0 -32.5 -13.5t-18.5 -35.5l-14 -91q-4 -22 6.5 -35.5t28.5 -13.5z" />
    <glyph glyph-name="trademark" unicode="&#x2122;" horiz-adv-x="668" 
d="M400 329h-57l57 359h63l67 -224l133 224h64l-56 -359h-58l36 230l-97 -162h-65l-50 166zM219 329h-57l46 297h-80l10 62h214l-10 -62h-76z" />
    <glyph glyph-name="minus" unicode="&#x2212;" horiz-adv-x="398" 
d="M422 378l-15 -97h-327l16 97h326z" />
    <glyph glyph-name="apple" unicode="&#xf8ff;" horiz-adv-x="692" 
d="M54 288q0 119 84.5 203.5t203.5 84.5t203.5 -84.5t84.5 -203.5t-84.5 -203.5t-203.5 -84.5t-203.5 84.5t-84.5 203.5zM274 115h131l1 6l-49 10v189h27q27 0 40.5 -17.5t13.5 -42.5q0 -59 -46 -59h-14v-7h18q32 0 52 19t20 52q0 63 -77 63h-34v75l102 -5l17 -54l11 2
l-5 73h-282l-6 -73l11 -2l18 54l102 5v-272l-49 -10z" />
    <glyph glyph-name="grave.case" horiz-adv-x="279" 
d="M155 838l51 99l195 -95l-45 -88z" />
    <glyph glyph-name="acute.case" horiz-adv-x="284" 
d="M385 937l20 -99l-227 -84l-18 88z" />
    <glyph glyph-name="dieresis.case" horiz-adv-x="367" 
d="M181 909h105l-21 -132h-105zM369 909h105l-22 -132h-105z" />
    <glyph glyph-name="circumflex.case" horiz-adv-x="362" 
d="M321 937h16l125 -83l-45 -93l-106 67l-125 -67l-18 87z" />
    <glyph glyph-name="tilde.case" horiz-adv-x="367" 
d="M237 768h-81l7 45q8 51 26.5 75t58.5 24q24 0 62.5 -25t60.5 -25q15 0 18 16l4 29h80l-9 -60q-13 -81 -82 -81q-26 0 -67 23t-58 23q-13 0 -16 -23z" />
    <glyph glyph-name="macron.case" horiz-adv-x="365" 
d="M444 878l-16 -105h-262l16 105h262z" />
    <glyph glyph-name="breve.case" horiz-adv-x="384" 
d="M394 899h78l-6 -36q-7 -43 -41 -74.5t-72 -31.5h-83q-40 0 -63 31t-15 75l6 36h78l-3 -19q-2 -12 4 -20.5t16 -8.5h68q10 0 18.5 9t10.5 20z" />
    <glyph glyph-name="dotaccent.case" horiz-adv-x="218" 
d="M202 904h98l-21 -130h-97z" />
    <glyph glyph-name="ring.case" horiz-adv-x="313" 
d="M173 883q8 47 44.5 80.5t87.5 33.5h13q49 0 74.5 -33.5t17.5 -80.5l-4 -20q-8 -48 -43.5 -81.5t-84.5 -33.5h-13q-51 0 -78 34t-18 81zM334 868l2 9q5 22 -6 35.5t-30 13.5h-4q-18 0 -32.5 -13.5t-18.5 -35.5l-2 -9q-4 -22 6.5 -35t29.5 -13h4q18 0 32.5 13t18.5 35z" />
    <glyph glyph-name="hungarumlaut.case" horiz-adv-x="447" 
d="M295 945l65 -51l-117 -140l-55 45zM468 945l66 -51l-118 -140l-55 45z" />
    <glyph glyph-name="caron.case" horiz-adv-x="362" 
d="M307 750h-16l-124 89l45 87l104 -67l127 67l16 -93z" />
    <glyph glyph-name="subcomma" horiz-adv-x="242" 
d="M24 -361l17 101q21 4 37.5 24t19.5 40l21 134h96l-21 -134q-12 -71 -60.5 -115.5t-109.5 -49.5z" />
    </font>
</defs>
</svg>
