<?xml version="1.0" standalone="no"?>
<!DOCTYPE svg PUBLIC "-//W3C//DTD SVG 1.1//EN" "http://www.w3.org/Graphics/SVG/1.1/DTD/svg11.dtd" >
<svg>
<metadata>
Created by FontForge 20120731 at Wed Aug 10 12:10:32 2016
 By ,,,
Copyright (c) 2013 by Josep Patau Bellart. All rights reserved.
</metadata>
<defs>
<font id="BoxedRegular-Italic" horiz-adv-x="494" >
  <font-face 
    font-family="Boxed Regular"
    font-weight="500"
    font-style="italic"
    font-stretch="normal"
    units-per-em="1000"
    panose-1="2 0 6 6 3 0 0 9 0 4"
    ascent="800"
    descent="-200"
    x-height="549"
    cap-height="701"
    bbox="-85 -341 967.22 985"
    underline-thickness="50"
    underline-position="-50"
    slope="-9"
    unicode-range="U+000D-FB02"
  />
<missing-glyph horiz-adv-x="288" 
 />
    <glyph glyph-name="fi" unicode="fi" horiz-adv-x="480" 
d="M67 -33l79 502h-50l12 80h51l4 28q13 81 68.5 127t133.5 46h161l-13 -79h-165q-36 0 -66.5 -27.5t-36.5 -66.5l-5 -28h253l-86 -549h-82l74 469h-172l-79 -502q-13 -81 -68 -127t-134 -46l13 78q38 0 69.5 27.5t38.5 67.5z" />
    <glyph glyph-name="fl" unicode="fl" horiz-adv-x="480" 
d="M67 -33l79 502h-50l12 80h51l4 28q13 81 68.5 127t133.5 46h161l-119 -750h-82l106 671h-79q-37 0 -69 -27.5t-38 -66.5l-5 -28h89l-12 -80h-90l-79 -502q-13 -81 -68 -127t-134 -46l13 78q38 0 69.5 27.5t38.5 67.5z" />
    <glyph glyph-name="lgeminada" unicode="l&#xb7;l" horiz-adv-x="497" 
d="M191 750h82l-119 -750h-82zM461 750h82l-119 -750h-82zM275 428h81l-20 -128h-82z" />
    <glyph glyph-name="Lgeminada" unicode="L&#xb7;L" horiz-adv-x="901" 
d="M438 84l-13 -84h-348l111 701h85l-98 -617h263zM888 84l-13 -84h-348l111 701h85l-98 -617h263zM371 428h81l-20 -128h-82z" />
    <glyph glyph-name=".notdef" horiz-adv-x="288" 
 />
    <glyph glyph-name=".null" horiz-adv-x="0" 
 />
    <glyph glyph-name="nonmarkingreturn" horiz-adv-x="333" 
 />
    <glyph glyph-name="NULL" horiz-adv-x="0" 
 />
    <glyph glyph-name="NULL" horiz-adv-x="0" 
 />
    <glyph glyph-name="CR" unicode="&#xd;" horiz-adv-x="288" 
 />
    <glyph glyph-name="space" unicode=" " horiz-adv-x="288" 
 />
    <glyph glyph-name="exclam" unicode="!" horiz-adv-x="225" 
d="M187 210h-82l84 531h82zM154 0h-82l20 128h82z" />
    <glyph glyph-name="quotedbl" unicode="&#x22;" horiz-adv-x="309" 
d="M204 551h-67l25 215h84zM347 551h-67l26 215h83z" />
    <glyph glyph-name="numbersign" unicode="#" horiz-adv-x="660" 
d="M185 0h-84l50 166h-98l13 83h111l60 198h-109l13 84h122l52 170h85l-52 -170h188l52 170h85l-52 -170h95l-13 -84h-108l-60 -198h107l-13 -83h-120l-50 -166h-85l50 166h-188zM322 447l-61 -198h189l60 198h-188z" />
    <glyph glyph-name="dollar" unicode="$" horiz-adv-x="547" 
d="M87 203h84l-6 -36q-7 -40 17.5 -64.5t66.5 -24.5h22l36 227q-37 18 -62 34.5t-50.5 40t-36 54t-4.5 66.5l10 64q9 58 58.5 100t117.5 42h31l17 109h36l-18 -109h15q73 0 112.5 -44t29.5 -106l-11 -71h-84l8 53q6 37 -16.5 60.5t-61.5 23.5h-5l-36 -230l52 -26t46 -27.5
t43 -35.5t23 -40t6 -50l-11 -69q-10 -66 -65.5 -108t-134.5 -42h-22l-17 -106h-36l17 106h-27q-78 0 -120.5 45.5t-32.5 109.5zM441 199q3 24 -21.5 43.5t-78.5 46.5l-34 -211h14q44 0 76 22t38 62zM239 507q-4 -29 18.5 -52t66.5 -46l33 213h-17q-35 0 -62.5 -21t-32.5 -55
z" />
    <glyph glyph-name="percent" unicode="%" horiz-adv-x="673" 
d="M222 449h25q15 0 27.5 12t14.5 30l16 100q3 18 -6 29.5t-24 11.5h-24q-15 0 -27.5 -11.5t-15.5 -29.5l-16 -100q-2 -19 6.5 -30.5t23.5 -11.5zM240 376h-31q-47 0 -72.5 30t-19.5 73l20 123q6 42 41.5 73t82.5 31h31q46 0 70 -31t17 -73l-19 -123q-7 -43 -40.5 -73
t-79.5 -30zM256 0h-78l350 701h79zM512 67h24q15 0 28 12t16 30l16 100q3 18 -6 29.5t-25 11.5h-24q-15 0 -27.5 -11.5t-14.5 -29.5l-17 -100q-3 -18 6 -30t24 -12zM530 -6h-31q-48 0 -73 30t-18 73l19 123q7 42 42 73t83 31h31q46 0 69.5 -31t17.5 -73l-20 -123
q-6 -43 -39.5 -73t-80.5 -30z" />
    <glyph glyph-name="ampersand" unicode="&#x26;" horiz-adv-x="577" 
d="M537 521h-81l4 27q5 34 -11.5 55.5t-45.5 21.5h-68q-29 0 -52 -21.5t-28 -55.5l-8 -46q-6 -34 10.5 -56t45.5 -22h306l-12 -80h-66l-31 -195q-10 -64 -60.5 -109.5t-119.5 -45.5h-99q-71 0 -108.5 45.5t-27.5 109.5l19 121q11 72 85 114q-36 41 -27 101l12 80
q9 58 58 100t114 42h77q63 0 96.5 -42t24.5 -100zM326 75q34 0 61 25t33 64l28 180h-170q-33 0 -60 -25t-34 -65l-14 -90q-6 -39 13 -64t53 -25h90z" />
    <glyph glyph-name="quotesingle" unicode="'" horiz-adv-x="166" 
d="M204 551h-67l25 215h84z" />
    <glyph glyph-name="parenleft" unicode="(" horiz-adv-x="282" 
d="M251 -27l-14 -80h-19q-79 0 -119 45t-27 126l75 471q13 81 67 126t133 45h19l-12 -79h-20q-37 0 -67.5 -26.5t-37.5 -65.5l-74 -471q-6 -39 16 -65t60 -26h20z" />
    <glyph glyph-name="parenright" unicode=")" horiz-adv-x="282" 
d="M16 -107l12 80h20q38 0 69 26t37 65l74 471q7 39 -16 65.5t-61 26.5h-20l14 79h20q79 0 119 -45t27 -126l-74 -471q-13 -80 -67.5 -125.5t-133.5 -45.5h-20z" />
    <glyph glyph-name="asterisk" unicode="*" horiz-adv-x="438" 
d="M130 573l37 82l110 -42l22 137h78l-22 -136l123 41l11 -82l-122 -42l55 -110l-71 -52l-56 111l-91 -113l-52 54l88 109z" />
    <glyph glyph-name="plus" unicode="+" horiz-adv-x="413" 
d="M243 475h78l-22 -137h123l-14 -85h-123l-22 -137h-77l22 137h-124l14 85h123z" />
    <glyph glyph-name="comma" unicode="," horiz-adv-x="219" 
d="M-2 -152l14 85q22 6 38 26t19 41l20 127h81l-20 -127q-10 -64 -53.5 -104.5t-98.5 -47.5z" />
    <glyph glyph-name="hyphen" unicode="-" horiz-adv-x="361" 
d="M365 341l-13 -81h-261l13 81h261z" />
    <glyph glyph-name="period" unicode="." horiz-adv-x="219" 
d="M89 127h81l-20 -127h-81z" />
    <glyph glyph-name="slash" unicode="/" horiz-adv-x="501" 
d="M122 0h-90l449 700h89z" />
    <glyph glyph-name="zero" unicode="0" horiz-adv-x="537" 
d="M248 78h66q35 0 63.5 24.5t34.5 64.5l58 366q7 40 -13.5 64.5t-55.5 24.5h-66q-36 0 -64.5 -24.5t-34.5 -64.5l-58 -366q-6 -40 14 -64.5t56 -24.5zM309 -6h-79q-73 0 -111.5 45.5t-28.5 109.5l64 402q10 64 63 109.5t126 45.5h79q71 0 108.5 -45.5t27.5 -109.5l-64 -402
q-10 -64 -62 -109.5t-123 -45.5z" />
    <glyph glyph-name="one" unicode="1" horiz-adv-x="391" 
d="M374 84l-13 -84h-330l13 84h123l84 531l-134 -70l13 84l135 71h84l-98 -616h123z" />
    <glyph glyph-name="two" unicode="2" horiz-adv-x="515" 
d="M401 418q39 31 47 80l5 35q6 40 -14 64.5t-56 24.5h-44q-36 0 -64 -24.5t-35 -64.5l-5 -36h-85l9 54q10 64 62.5 109.5t124.5 45.5h57q72 0 109.5 -48t26.5 -117l-11 -75q-10 -65 -69 -111q-20 -19 -126 -79t-126 -79q-34 -30 -43 -80l-6 -33h319l-13 -84h-404l21 135
q12 81 80 131q20 19 120 75.5t120 76.5z" />
    <glyph glyph-name="three" unicode="3" horiz-adv-x="528" 
d="M490 154q-10 -65 -62 -112.5t-123 -47.5h-79q-73 0 -112 45.5t-29 109.5l8 47h85l-5 -28q-6 -40 14.5 -65t55.5 -25h66q36 0 64.5 26.5t35.5 68.5l9 59q6 40 -16.5 65t-60.5 25h-60l14 83h52q33 0 58.5 22.5t30.5 57.5l10 57q6 35 -12 57.5t-49 22.5h-43
q-30 0 -54.5 -22.5t-30.5 -57.5l-4 -25h-85l7 43q9 59 59 102.5t116 43.5h57q66 0 101 -43.5t25 -102.5l-14 -90q-9 -62 -67 -102q31 -19 45 -51t9 -67z" />
    <glyph glyph-name="four" unicode="4" horiz-adv-x="473" 
d="M398 700h85l-71 -445h75l-13 -83h-75l-27 -172h-85l27 172h-251l13 83zM161 255h166l47 294z" />
    <glyph glyph-name="five" unicode="5" horiz-adv-x="528" 
d="M485 154q-10 -65 -62 -112.5t-122 -47.5h-71q-73 0 -111.5 45.5t-28.5 109.5l7 47h85l-4 -28q-6 -40 14 -65t56 -25h57q35 0 63.5 26.5t35.5 68.5l15 95q6 39 -12 64t-51 25h-204l54 343h337l-13 -84h-252l-27 -175h127q67 0 103 -46t26 -108z" />
    <glyph glyph-name="six" unicode="6" horiz-adv-x="537" 
d="M309 -6h-79q-73 0 -111.5 45.5t-28.5 109.5l64 402q10 64 63 109.5t126 45.5h79q71 0 108.5 -45.5t27.5 -109.5l-6 -39h-85l3 21q7 40 -13.5 64.5t-55.5 24.5h-66q-36 0 -64.5 -24.5t-34.5 -64.5l-20 -129q49 32 84 32h79q71 0 108.5 -45.5t27.5 -109.5l-21 -132
q-10 -64 -62 -109.5t-123 -45.5zM196 277l-18 -110q-6 -40 14 -64.5t56 -24.5h66q35 0 63.5 24.5t34.5 64.5l15 96q7 40 -13.5 64.5t-55.5 24.5h-66q-33 0 -59.5 -20.5t-36.5 -54.5z" />
    <glyph glyph-name="seven" unicode="7" horiz-adv-x="452" 
d="M138 620l13 83h382l-13 -83l-377 -620h-85l377 620h-297z" />
    <glyph glyph-name="eight" unicode="8" horiz-adv-x="528" 
d="M305 -6h-79q-73 0 -112 45.5t-29 109.5l15 94q6 39 32.5 73t66.5 53q-57 44 -44 122l10 60q10 64 61.5 109.5t121.5 45.5h56q71 0 108.5 -45.5t27.5 -109.5l-10 -60q-12 -76 -83 -121q33 -19 48.5 -53.5t9.5 -73.5l-15 -94q-10 -64 -62 -109.5t-123 -45.5zM243 78h66
q36 0 64 24.5t35 64.5l10 68q7 39 -13.5 64t-56.5 25h-66q-35 0 -63 -25t-35 -64l-11 -68q-6 -40 14.5 -64.5t55.5 -24.5zM447 497l6 36q7 40 -12 64.5t-52 24.5h-50q-32 0 -58.5 -24.5t-33.5 -64.5l-6 -36q-7 -39 12.5 -64.5t51.5 -25.5h50q33 0 59 25t33 65z" />
    <glyph glyph-name="nine" unicode="9" horiz-adv-x="537" 
d="M338 706h80q72 0 111 -45.5t29 -109.5l-64 -402q-10 -64 -63.5 -109.5t-125.5 -45.5h-80q-70 0 -107.5 45.5t-27.5 109.5l6 39h85l-3 -21q-6 -40 14 -64.5t56 -24.5h66q35 0 63.5 24.5t34.5 64.5l20 125q-46 -28 -84 -28h-80q-70 0 -107.5 45.5t-27.5 109.5l21 132
q10 64 62 109.5t122 45.5zM454 432l16 101q7 40 -13.5 64.5t-55.5 24.5h-66q-36 0 -64.5 -24.5t-34.5 -64.5l-15 -96q-6 -40 14 -64.5t56 -24.5h66q34 0 62 23.5t35 60.5z" />
    <glyph glyph-name="colon" unicode=":" horiz-adv-x="219" 
d="M89 127h81l-20 -127h-81zM155 542h81l-20 -127h-82z" />
    <glyph glyph-name="semicolon" unicode=";" horiz-adv-x="219" 
d="M154 542h81l-19 -127h-82zM12 -67l-14 -85q55 6 98 47t53 105l20 127h-79l-21 -127q-3 -21 -19 -41t-38 -26z" />
    <glyph glyph-name="less" unicode="&#x3c;" horiz-adv-x="481" 
d="M96 323l419 180l-14 -93l-330 -137q33 -15 101 -46t121 -55.5t65 -30.5l-15 -93l-363 174z" />
    <glyph glyph-name="equal" unicode="=" horiz-adv-x="418" 
d="M448 413l-13 -82h-347l14 82h346zM416 213l-13 -82h-346l13 82h346z" />
    <glyph glyph-name="greater" unicode="&#x3e;" horiz-adv-x="481" 
d="M487 324l-16 -102l-419 -174l15 93l328 132l-285 137l14 93z" />
    <glyph glyph-name="question" unicode="?" horiz-adv-x="487" 
d="M393 436q19 20 23 49l8 48q6 40 -14.5 64.5t-55.5 24.5h-48q-36 0 -64 -24.5t-35 -64.5l-8 -54h-85l12 72q10 64 62 109.5t122 45.5h61q72 0 111.5 -46t29.5 -109l-14 -85q-8 -56 -55 -97q-10 -11 -59.5 -48.5t-60.5 -48.5q-28 -25 -34 -60l-6 -37h-85l10 67q10 59 57 97
q9 8 63 45.5t65 51.5zM191 127h84l-20 -127h-84z" />
    <glyph glyph-name="at" unicode="@" horiz-adv-x="895" 
d="M173 -201q-61 0 -93.5 43.5t-22.5 103.5l105 660q9 61 54.5 104t107.5 43h485q61 0 93.5 -43.5t23.5 -103.5l-73 -459q-10 -61 -56 -104t-107 -43h-121l-4 55q-66 -61 -132 -61h-52q-55 0 -85 39t-21 93l46 291q8 54 50 93t98 39h244l-75 -469h51q30 0 54.5 22.5
t29.5 57.5l69 432q6 34 -12 57.5t-47 23.5h-458q-30 0 -54.5 -23t-29.5 -58l-101 -632q-5 -35 12.5 -58t47.5 -23h443l-13 -80h-457zM450 74q63 0 113 58l55 337h-148q-24 0 -45 -19t-25 -47l-42 -263q-4 -28 11 -47t39 -19h42z" />
    <glyph glyph-name="A" unicode="A" horiz-adv-x="591" 
d="M365 704h84l106 -704h-86l-27 191h-235l-86 -191h-85zM387 587l-142 -313h186z" />
    <glyph glyph-name="B" unicode="B" horiz-adv-x="559" 
d="M348 0h-271l111 700h230q71 0 108 -48.5t26 -116.5l-8 -52q-11 -69 -72 -113q41 -20 60.5 -60t11.5 -88l-8 -45q-12 -74 -65 -125.5t-123 -51.5zM383 319h-171l-37 -235h177q36 0 64 24.5t35 64.5l8 54q6 40 -16 66t-60 26zM397 616h-138l-34 -214h138q35 0 63.5 23.5
t33.5 60.5l7 46q5 37 -15 60.5t-55 23.5z" />
    <glyph glyph-name="C" unicode="C" horiz-adv-x="561" 
d="M446 229h85l-12 -80q-10 -63 -62.5 -109t-123.5 -46h-103q-73 0 -111.5 45.5t-28.5 109.5l64 402q10 64 63 109.5t126 45.5h103q71 0 109 -46t28 -109l-13 -76h-84l9 58q6 40 -14.5 64.5t-56.5 24.5h-89q-36 0 -64.5 -24.5t-34.5 -64.5l-58 -366q-6 -40 14 -64.5
t56 -24.5h90q36 0 64.5 25t34.5 64z" />
    <glyph glyph-name="D" unicode="D" horiz-adv-x="583" 
d="M357 0h-280l111 700h280q71 0 108 -45.5t27 -109.5l-61 -390q-10 -64 -62 -109.5t-123 -45.5zM446 616h-187l-84 -532h186q36 0 64.5 24.5t34.5 64.5l56 354q7 40 -13.5 64.5t-56.5 24.5z" />
    <glyph glyph-name="E" unicode="E" horiz-adv-x="522" 
d="M466 84l-13 -84h-376l111 701h367l-13 -84h-282l-34 -214h256l-13 -84h-257l-37 -235h291z" />
    <glyph glyph-name="F" unicode="F" horiz-adv-x="506" 
d="M162 0h-85l111 701h371l-13 -84h-286l-37 -231h270l-13 -84h-270z" />
    <glyph glyph-name="G" unicode="G" horiz-adv-x="573" 
d="M582 475h-85l9 58q7 40 -13.5 64.5t-56.5 24.5h-101q-36 0 -64.5 -24.5t-34.5 -64.5l-58 -366q-6 -40 14 -64.5t56 -24.5h101q36 0 64.5 24.5t34.5 64.5l17 112h-139l13 84h225l-34 -214q-10 -64 -62 -109.5t-123 -45.5h-115q-73 0 -111.5 45.5t-28.5 109.5l64 402
q10 64 63 109.5t126 45.5h115q71 0 108.5 -45.5t27.5 -109.5z" />
    <glyph glyph-name="H" unicode="H" horiz-adv-x="594" 
d="M162 0h-85l111 701h85l-47 -297h271l47 297h84l-111 -701h-84l51 321h-271z" />
    <glyph glyph-name="I" unicode="I" horiz-adv-x="239" 
d="M162 0h-85l111 701h85z" />
    <glyph glyph-name="J" unicode="J" horiz-adv-x="251" 
d="M200 700h85l-114 -715q-14 -90 -73 -141t-144 -51h-37l13 82h37q44 0 78 31t42 79z" />
    <glyph glyph-name="K" unicode="K" horiz-adv-x="556" 
d="M162 0h-85l111 700h85l-48 -305h82l200 305h94l-227 -341l155 -359h-96l-129 311h-93z" />
    <glyph glyph-name="L" unicode="L" horiz-adv-x="451" 
d="M438 84l-13 -84h-348l111 701h85l-98 -617h263z" />
    <glyph glyph-name="M" unicode="M" horiz-adv-x="706" 
d="M162 0h-85l111 701h89l118 -446l258 446h87l-111 -701h-85l81 515l-211 -365h-74l-97 365z" />
    <glyph glyph-name="N" unicode="N" horiz-adv-x="594" 
d="M162 0h-85l111 701h85l187 -532l84 532h84l-111 -701h-87l-185 527z" />
    <glyph glyph-name="O" unicode="O" horiz-adv-x="573" 
d="M248 78h101q36 0 64.5 24.5t34.5 64.5l58 366q7 40 -13.5 64.5t-56.5 24.5h-101q-36 0 -64.5 -24.5t-34.5 -64.5l-58 -366q-6 -40 14 -64.5t56 -24.5zM345 -6h-115q-73 0 -111.5 45.5t-28.5 109.5l64 402q10 64 63 109.5t126 45.5h115q71 0 108.5 -45.5t27.5 -109.5
l-64 -402q-10 -64 -62 -109.5t-123 -45.5z" />
    <glyph glyph-name="P" unicode="P" horiz-adv-x="545" 
d="M162 0h-85l111 700h247q74 0 114 -43t30 -104l-24 -146q-10 -62 -62 -108t-122 -46h-169zM413 616h-154l-44 -279h161q34 0 63 25t35 63l17 109q6 38 -16.5 60t-61.5 22z" />
    <glyph glyph-name="Q" unicode="Q" horiz-adv-x="573" 
d="M403 -167l-82 -39l-59 200h-32q-73 0 -111.5 45.5t-28.5 109.5l64 402q10 64 63 109.5t126 45.5h115q71 0 108.5 -45.5t27.5 -109.5l-64 -402q-10 -61 -59 -106t-116 -49zM248 78h101q36 0 64.5 24.5t34.5 64.5l58 366q7 40 -13.5 64.5t-56.5 24.5h-101
q-36 0 -64.5 -24.5t-34.5 -64.5l-58 -366q-6 -40 14 -64.5t56 -24.5z" />
    <glyph glyph-name="R" unicode="R" horiz-adv-x="569" 
d="M162 0h-85l111 700h256q73 0 113 -43t30 -104l-23 -146q-8 -45 -43 -84t-86 -54l71 -269h-89l-69 261h-145zM422 616h-163l-42 -271h169q35 0 63 23t34 57l17 109q6 38 -16.5 60t-61.5 22z" />
    <glyph glyph-name="S" unicode="S" horiz-adv-x="547" 
d="M87 203h84l-6 -36q-7 -40 17.5 -64.5t66.5 -24.5h72q44 0 76 22t38 62l6 37q1 10 -2 19.5t-13.5 19t-19.5 16.5t-28.5 17t-30 15t-35.5 17q-37 17 -64 34t-52.5 40.5t-36.5 55t-5 67.5l10 64q9 58 58.5 100t117.5 42h81q73 0 112.5 -44t29.5 -106l-11 -71h-84l8 53
q6 37 -16.5 60.5t-61.5 23.5h-58q-35 0 -62.5 -21t-32.5 -55l-6 -39q-5 -33 24.5 -59t85.5 -52q45 -21 67.5 -33.5t56 -36.5t46.5 -52t8 -61l-11 -69q-10 -66 -65.5 -108t-134.5 -42h-85q-78 0 -120.5 45.5t-32.5 109.5z" />
    <glyph glyph-name="T" unicode="T" horiz-adv-x="456" 
d="M276 0h-85l98 617h-166l13 84h406l-13 -84h-155z" />
    <glyph glyph-name="U" unicode="U" horiz-adv-x="582" 
d="M533 149q-10 -64 -62 -109.5t-123 -45.5h-112q-72 0 -111 45.5t-29 109.5l87 552h86l-85 -534q-6 -40 14.5 -64.5t55.5 -24.5h98q36 0 64.5 24.5t34.5 64.5l84 534h86z" />
    <glyph glyph-name="V" unicode="V" horiz-adv-x="591" 
d="M338 0h-85l-106 700h85l83 -578l265 578h86z" />
    <glyph glyph-name="W" unicode="W" horiz-adv-x="883" 
d="M302 0h-84l-71 700h89l47 -563l227 563h86l49 -565l225 565h88l-292 -700h-85l-55 535z" />
    <glyph glyph-name="X" unicode="X" horiz-adv-x="579" 
d="M543 700h95l-239 -342l143 -358h-95l-112 280l-205 -280h-94l265 365l-133 335h95l102 -256z" />
    <glyph glyph-name="Y" unicode="Y" horiz-adv-x="560" 
d="M327 0h-85l44 285l-139 416h87l109 -329l208 329h85l-264 -417z" />
    <glyph glyph-name="Z" unicode="Z" horiz-adv-x="529" 
d="M491 84l-13 -84h-427l13 84l408 533h-314l13 84h409l-13 -84l-401 -533h325z" />
    <glyph glyph-name="bracketleft" unicode="[" horiz-adv-x="277" 
d="M244 -38l-13 -83h-173l130 822h169l-13 -85h-85l-104 -654h89z" />
    <glyph glyph-name="backslash" unicode="\" horiz-adv-x="501" 
d="M459 0h-89l-227 700h90z" />
    <glyph glyph-name="bracketright" unicode="]" horiz-adv-x="277" 
d="M8 -121l13 83h89l103 654h-84l13 85h170l-130 -822h-174z" />
    <glyph glyph-name="asciicircum" unicode="^" horiz-adv-x="374" 
d="M261 750h84l78 -211h-85l-47 129l-85 -129h-85z" />
    <glyph glyph-name="underscore" unicode="_" horiz-adv-x="396" 
d="M387 -61l-13 -81h-397l13 81h397z" />
    <glyph glyph-name="grave" unicode="`" horiz-adv-x="317" 
d="M150 696l40 76l191 -114l-35 -65z" />
    <glyph glyph-name="a" unicode="a" horiz-adv-x="500" 
d="M465 549h53l-87 -549h-57l-4 50q-59 -56 -119 -56h-58q-59 0 -89 50.5t-19 121.5l35 217q11 71 57 121.5t105 50.5h54q63 0 106 -59zM268 74q53 0 100 55l47 292q-28 54 -82 54h-38q-32 0 -60 -26.5t-35 -66.5l-34 -214q-6 -41 13 -67.5t52 -26.5h37z" />
    <glyph glyph-name="b" unicode="b" horiz-adv-x="505" 
d="M130 0h-58l119 750h82l-38 -239q53 44 108 44h53q60 0 90 -50.5t18 -121.5l-34 -217q-12 -71 -57.5 -121.5t-105.5 -50.5h-58q-59 0 -101 56zM319 475q-52 0 -98 -54l-47 -292q29 -55 85 -55h36q33 0 60 26.5t34 67.5l34 214q6 41 -13 67t-52 26h-39z" />
    <glyph glyph-name="c" unicode="c" horiz-adv-x="485" 
d="M483 365h-83l3 19q7 40 -12.5 65.5t-53.5 25.5h-38q-34 0 -61.5 -25.5t-33.5 -65.5l-35 -220q-7 -40 13 -65t54 -25h38q33 0 60.5 25t34.5 65l3 20h82l-5 -28q-11 -67 -60 -114.5t-115 -47.5h-60q-68 0 -103 47.5t-25 114.5l38 234q11 68 61.5 116.5t118.5 48.5h59
q66 0 100 -48.5t24 -116.5z" />
    <glyph glyph-name="d" unicode="d" horiz-adv-x="505" 
d="M433 0h-57l-4 50q-58 -56 -119 -56h-57q-60 0 -90 50.5t-19 121.5l35 217q12 71 57.5 121.5t104.5 50.5h54q52 0 93 -43l38 238h82zM270 74q53 0 100 55l47 293q-30 53 -82 53h-38q-32 0 -59.5 -26.5t-34.5 -66.5l-34 -214q-7 -41 12 -67.5t52 -26.5h37z" />
    <glyph glyph-name="e" unicode="e" 
d="M496 390l-25 -150h-290l-12 -76q-7 -40 13 -65t54 -25h47q34 0 62.5 25.5t32.5 64.5v3h82l-2 -11q-10 -66 -59.5 -114t-115.5 -48h-69q-68 0 -103 47.5t-25 114.5l38 234q11 68 61.5 116.5t118.5 48.5h68q66 0 100 -48.5t24 -116.5zM204 384l-12 -72h209l11 72
q6 40 -13 65.5t-53 25.5h-47q-34 0 -61.5 -25.5t-33.5 -65.5z" />
    <glyph glyph-name="f" unicode="f" horiz-adv-x="252" 
d="M67 -33l79 502h-50l12 80h51l4 28q13 81 68.5 127t133.5 46l-13 -79q-37 0 -69 -27.5t-38 -66.5l-5 -28h89l-12 -80h-90l-79 -502q-13 -81 -68 -127t-134 -46l13 78q38 0 69.5 27.5t38.5 67.5z" />
    <glyph glyph-name="g" unicode="g" horiz-adv-x="505" 
d="M520 549l-95 -601q-10 -64 -62 -109.5t-123 -45.5h-46q-72 0 -111.5 44.5t-30.5 105.5l2 12h82l-1 -7q-5 -34 16 -57t56 -23h38q36 0 65 25t35 65l12 79q-53 -43 -104 -43h-57q-60 0 -90 50.5t-18 121.5l34 217q12 71 58 121.5t105 50.5h53q63 0 106 -59l20 53h56z
M271 74q52 0 101 56l46 290q-28 55 -82 55h-38q-33 0 -60.5 -26.5t-33.5 -66.5l-34 -214q-7 -41 11.5 -67.5t52.5 -26.5h37z" />
    <glyph glyph-name="h" unicode="h" horiz-adv-x="503" 
d="M432 0h-82l63 391q6 39 -13 61.5t-53 22.5h-20q-58 0 -107 -57l-66 -418h-82l119 750h82l-39 -242q60 47 119 47h30q62 0 92.5 -45.5t19.5 -114.5z" />
    <glyph glyph-name="i" unicode="i" horiz-adv-x="227" 
d="M159 549h81l-86 -549h-82zM191 750h82l-21 -127h-81z" />
    <glyph glyph-name="j" unicode="j" horiz-adv-x="227" 
d="M160 549h81l-93 -591q-13 -79 -68 -122t-137 -43l12 79q41 0 73 24t39 62zM191 750h82l-21 -127h-81z" />
    <glyph glyph-name="k" unicode="k" horiz-adv-x="476" 
d="M464 0h-92l-121 272h-54l-43 -272h-82l119 750h82l-64 -398h56l162 197h97l-204 -233z" />
    <glyph glyph-name="l" unicode="l" horiz-adv-x="227" 
d="M191 750h82l-119 -750h-82z" />
    <glyph glyph-name="m" unicode="m" horiz-adv-x="780" 
d="M432 0h-82l63 391q6 39 -13 61.5t-53 22.5h-20q-61 0 -108 -58l-65 -417h-82l87 549h57l3 -55q66 61 134 61h30q78 0 104 -69q71 69 144 69h29q62 0 93 -45.5t20 -114.5l-63 -395h-82l62 391q6 39 -13 61.5t-53 22.5h-19q-59 0 -108 -57q0 -7 -2 -23z" />
    <glyph glyph-name="n" unicode="n" horiz-adv-x="503" 
d="M432 0h-82l63 391q6 39 -13 61.5t-53 22.5h-20q-61 0 -108 -58l-65 -417h-82l87 549h57l3 -55q66 61 134 61h30q62 0 92.5 -45.5t19.5 -114.5z" />
    <glyph glyph-name="o" unicode="o" 
d="M236 74h47q33 0 60.5 25t34.5 65l34 220q7 40 -12.5 65.5t-53.5 25.5h-47q-34 0 -61.5 -25.5t-33.5 -65.5l-35 -220q-7 -40 13 -65t54 -25zM283 -6h-69q-68 0 -103 47.5t-25 114.5l38 234q11 68 61.5 116.5t118.5 48.5h68q66 0 100 -48.5t23 -116.5l-37 -234
q-10 -66 -59.5 -114t-115.5 -48z" />
    <glyph glyph-name="p" unicode="p" horiz-adv-x="505" 
d="M159 549h57l2 -52q63 58 125 58h53q60 0 90 -50.5t18 -121.5l-35 -217q-11 -71 -56.5 -121.5t-105.5 -50.5h-58q-52 0 -90 43l-38 -244h-82zM319 475q-52 0 -100 -56l-45 -289q27 -56 84 -56h36q33 0 60.5 26.5t34.5 67.5l33 214q7 40 -12 66.5t-52 26.5h-39z" />
    <glyph glyph-name="q" unicode="q" horiz-adv-x="505" 
d="M463 549h57l-120 -756h-82l38 243q-50 -42 -103 -42h-57q-60 0 -90 50.5t-19 121.5l35 217q12 71 57.5 121.5t104.5 50.5h54q62 0 105 -58zM270 74q55 0 101 56l46 291q-28 54 -82 54h-38q-32 0 -59.5 -26.5t-34.5 -66.5l-34 -214q-7 -41 12 -67.5t52 -26.5h37z" />
    <glyph glyph-name="r" unicode="r" horiz-adv-x="340" 
d="M413 552l-13 -80h-57q-31 0 -66.5 -22t-61.5 -59l-61 -391h-82l87 549h57l1 -72q73 75 150 75h46z" />
    <glyph glyph-name="s" unicode="s" horiz-adv-x="485" 
d="M366 131l5 29q2 13 -4.5 23.5t-24.5 20.5t-32 15.5t-42 15.5q-32 11 -53.5 22t-44 28t-32 41.5t-4.5 55.5l8 45q8 52 52 90t106 38h56q62 0 95 -39.5t24 -97.5l-4 -24h-77l3 20q4 27 -13.5 44t-45.5 17h-43q-25 0 -45.5 -15.5t-24.5 -37.5l-5 -30q-3 -14 2.5 -25
t21.5 -21t28.5 -15.5t37.5 -15.5q37 -14 55.5 -23t45 -27t36 -42.5t4.5 -56.5l-7 -41q-9 -54 -55 -92.5t-107 -38.5h-76q-65 0 -99.5 40t-25.5 95l5 28h80l-3 -22q-4 -26 14.5 -43.5t49.5 -17.5h62q28 0 50.5 17t26.5 40z" />
    <glyph glyph-name="t" unicode="t" horiz-adv-x="280" 
d="M337 549l-13 -80h-92l-49 -308q-5 -38 16.5 -63t60.5 -25l-13 -79q-81 0 -119.5 43.5t-25.5 123.5l49 308h-63l13 80h64l47 151h57l-24 -151h92z" />
    <glyph glyph-name="u" unicode="u" horiz-adv-x="498" 
d="M158 549h81l-62 -391q-6 -40 12.5 -62.5t51.5 -22.5h21q55 0 102 53l66 423h82l-87 -549h-57l-3 52q-63 -58 -130 -58h-28q-63 0 -93 45t-19 115z" />
    <glyph glyph-name="v" unicode="v" horiz-adv-x="442" 
d="M270 0h-92l-77 549h83l56 -440l190 440h85z" />
    <glyph glyph-name="w" unicode="w" horiz-adv-x="717" 
d="M251 0h-92l-58 549h83l39 -432l178 432h88l44 -431l173 431h84l-228 -549h-92l-45 415z" />
    <glyph glyph-name="x" unicode="x" horiz-adv-x="479" 
d="M117 0h-93l215 283l-116 266h93l82 -190l137 190h94l-196 -270l121 -279h-92l-89 204z" />
    <glyph glyph-name="y" unicode="y" horiz-adv-x="466" 
d="M178 -207h-84l99 209l-90 547h84l68 -417l199 417h84z" />
    <glyph glyph-name="z" unicode="z" horiz-adv-x="449" 
d="M478 549l-12 -80l-311 -389h262l-13 -80h-356l13 80l309 389h-237l12 80h333z" />
    <glyph glyph-name="braceleft" unicode="{" horiz-adv-x="320" 
d="M121 33l25 157q4 27 -11.5 45.5t-41.5 20.5h-23l13 80h22q27 2 48.5 20.5t26.5 45.5l24 158q12 70 62.5 108t126.5 38h4l-13 -79h-4q-34 0 -61.5 -19t-31.5 -48l-26 -163q-9 -56 -68 -101q46 -45 37 -101l-27 -162q-4 -29 17 -48t56 -19h4l-12 -79h-5q-75 0 -114 38
t-28 108z" />
    <glyph glyph-name="bar" unicode="|" horiz-adv-x="237" 
d="M124 -230h-83l158 1000h83z" />
    <glyph glyph-name="braceright" unicode="}" horiz-adv-x="320" 
d="M234 190l-25 -157q-11 -70 -61.5 -108t-126.5 -38h-3l12 79h3q35 0 62.5 19t31.5 48l26 162q9 55 68 101q-45 45 -36 101l25 163q4 29 -17 48t-55 19h-3l13 79h3q76 0 114.5 -38t27.5 -108l-25 -158q-4 -27 11 -45.5t41 -20.5h24l-13 -80h-18q-28 0 -51.5 -18.5
t-27.5 -47.5z" />
    <glyph glyph-name="asciitilde" unicode="~" horiz-adv-x="407" 
d="M139 216h-64l8 49q7 47 24 69t54 22q35 0 93 -32q54 -30 74 -30t25 24l5 37h63l-9 -62q-13 -74 -75 -74q-37 0 -91 28q-60 30 -75 30q-13 0 -18.5 -7.5t-8.5 -24.5z" />
    <glyph glyph-name="exclamdown" unicode="&#xa1;" horiz-adv-x="225" 
d="M159 549h82l-20 -127h-82zM126 339h82l-83 -521h-82z" />
    <glyph glyph-name="cent" unicode="&#xa2;" horiz-adv-x="493" 
d="M262 -157h-69l23 151q-69 2 -105 47t-26 108l40 252q10 63 60.5 108t119.5 46l25 153h68l-24 -153q64 -4 97.5 -48.5t25.5 -105.5l-5 -36h-83l3 19q7 40 -12.5 65.5t-53.5 25.5h-47q-34 0 -61 -25.5t-34 -65.5l-35 -220q-7 -40 13 -65t54 -25h47q33 0 60 25t34 65l3 20
h82l-5 -35q-10 -61 -58 -106t-114 -49z" />
    <glyph glyph-name="sterling" unicode="&#xa3;" horiz-adv-x="553" 
d="M448 191h84l-30 -191h-481l13 84h76l36 230h-76l14 84h76l24 153q10 64 63.5 109.5t125.5 45.5h63q70 0 107.5 -45.5t27.5 -109.5l-12 -76h-85l9 58q7 40 -13 64.5t-57 24.5h-48q-36 0 -64.5 -24.5t-34.5 -64.5l-22 -135h127l-13 -84h-127l-36 -230h235z" />
    <glyph glyph-name="yen" unicode="&#xa5;" horiz-adv-x="560" 
d="M327 0h-85l17 111h-152l13 82h152l13 83h-152l13 82h122l-121 343h87l110 -317l207 317h85l-224 -343h116l-13 -82h-145l-13 -83h145l-13 -82h-145z" />
    <glyph glyph-name="section" unicode="&#xa7;" horiz-adv-x="547" 
d="M513 178q-11 -63 -57 -106q36 -39 29 -90l-6 -39q-9 -65 -65 -107t-135 -42h-86q-77 0 -119.5 45.5t-32.5 108.5l6 40h84l-3 -22q-7 -39 17.5 -64t65.5 -25h74q43 0 74 20.5t37 56.5l4 22q2 15 -6.5 28.5t-30.5 27.5t-39 23t-52 25q-81 38 -125.5 84t-33.5 116l7 49
q9 57 54 100q-31 43 -23 95l7 40q9 58 60.5 100t120.5 42h69q75 0 115.5 -44t31.5 -106l-6 -39h-85l3 21q6 37 -16.5 60.5t-61.5 23.5h-55q-34 0 -61 -19.5t-32 -49.5l-3 -23q-3 -19 5.5 -36t32.5 -33.5t41.5 -26t53.5 -26.5t60.5 -32.5t49 -37.5t34.5 -50.5t5 -61.5z
M333 321q-59 28 -97 53q-29 -24 -33 -57l-6 -37q-3 -19 4.5 -35t28 -31t36.5 -24.5t48 -25.5q8 -4 23 -12t27.5 -15t23.5 -13q34 22 41 65l6 37q4 27 -22.5 48.5t-79.5 46.5z" />
    <glyph glyph-name="dieresis" unicode="&#xa8;" horiz-adv-x="355" 
d="M160 757h83l-21 -127h-82zM353 757h84l-21 -127h-83z" />
    <glyph glyph-name="copyright" unicode="&#xa9;" horiz-adv-x="711" 
d="M218 48h290q38 0 70.5 30.5t39.5 73.5l63 396q7 43 -15.5 74t-60.5 31h-291q-39 0 -71 -31t-39 -74l-63 -396q-7 -43 15.5 -73.5t61.5 -30.5zM500 -6h-291q-58 0 -93 46.5t-25 111.5l64 396q10 65 59 111.5t108 46.5h291q59 0 93.5 -46.5t24.5 -111.5l-63 -396
q-10 -65 -59.5 -111.5t-108.5 -46.5zM489 278h50l-7 -47q-8 -47 -43.5 -80t-78.5 -33h-77q-42 0 -66.5 33t-17.5 80l37 232q7 46 42 79.5t78 33.5h77q42 0 67.5 -33.5t18.5 -79.5l-7 -45h-50l7 45q3 24 -9.5 41.5t-34.5 17.5h-77q-22 0 -40.5 -17.5t-22.5 -41.5l-36 -232
q-4 -25 8.5 -42.5t34.5 -17.5h77q23 0 41 17.5t22 42.5z" />
    <glyph glyph-name="ordfeminine" unicode="&#xaa;" horiz-adv-x="277" 
d="M267 702q32 0 51.5 -23t14.5 -55l-34 -214h-40l-2 25q-37 -28 -68 -28h-15q-30 0 -49 22.5t-14 53.5l4 27q4 26 28.5 44t57.5 24l72 12l5 29q1 10 -4 16.5t-14 6.5h-38q-19 0 -21 -15l-2 -11h-56l3 19q5 30 31 48.5t59 18.5h31zM205 466q21 0 53 27l6 40l-70 -12
q-23 -6 -25 -20l-2 -13q-3 -22 19 -22h19z" />
    <glyph glyph-name="guillemotleft" unicode="&#xab;" horiz-adv-x="634" 
d="M342 224l15 97l302 181l-14 -95l-223 -135l180 -133l-15 -95zM84 224l15 97l302 181l-15 -95l-222 -135l179 -133l-14 -95z" />
    <glyph glyph-name="registered" unicode="&#xae;" horiz-adv-x="711" 
d="M500 -6h-291q-58 0 -93 46.5t-25 111.5l64 396q10 65 59 111.5t108 46.5h291q59 0 93.5 -46.5t24.5 -111.5l-63 -396q-10 -65 -59.5 -111.5t-108.5 -46.5zM218 48h290q38 0 70.5 30.5t39.5 73.5l63 396q7 43 -15.5 74t-60.5 31h-291q-39 0 -71 -31t-39 -74l-63 -396
q-7 -43 15.5 -73.5t61.5 -30.5zM289 119h-50l73 457h159q48 0 75.5 -30.5t20.5 -76.5l-10 -64q-5 -32 -31.5 -61t-61.5 -39l56 -186h-58l-54 182h-90zM462 522h-109l-27 -167h118q23 0 42 15.5t21 34.5l10 64q4 22 -12 37.5t-43 15.5z" />
    <glyph glyph-name="macron" unicode="&#xaf;" horiz-adv-x="379" 
d="M437 710l-13 -81h-261l13 81h261z" />
    <glyph glyph-name="degree" unicode="&#xb0;" horiz-adv-x="383" 
d="M283 372h-62q-55 0 -84 34.5t-21 83.5l15 99q8 48 48 83t95 35h62q53 0 80.5 -34.5t20.5 -83.5l-15 -99q-8 -49 -46.5 -83.5t-92.5 -34.5zM264 626q-19 0 -34 -12.5t-19 -34.5l-12 -80q-4 -22 7 -34.5t30 -12.5h53q19 0 34 12.5t19 34.5l12 80q4 22 -7 34.5t-30 12.5h-53
z" />
    <glyph glyph-name="twosuperior" unicode="&#xb2;" horiz-adv-x="313" 
d="M359 568q-8 -40 -42 -67q-19 -17 -66.5 -42t-64.5 -39q-14 -12 -17 -30l-2 -11h166l-11 -67h-231l13 83q7 47 47 78q17 14 61.5 37.5t63.5 41.5q17 14 20 33l3 19q2 15 -6.5 25t-22.5 10h-23q-14 0 -25.5 -10t-13.5 -25l-5 -32h-66l7 41q6 38 37 65.5t73 27.5h30
q43 0 65.5 -29t15.5 -70z" />
    <glyph glyph-name="threesuperior" unicode="&#xb3;" horiz-adv-x="317" 
d="M339 403q-6 -39 -37 -68t-73 -29h-43q-42 0 -64.5 28t-16.5 66l5 37h66l-4 -27q-2 -16 5.5 -26t21.5 -10h36q14 0 25.5 11t14.5 27l5 28q2 15 -7.5 25.5t-24.5 10.5h-43l11 68h40q28 2 33 30l5 34q2 13 -5 21.5t-18 8.5h-23q-11 0 -20.5 -8.5t-10.5 -21.5l-4 -26h-67
l6 35q5 36 35 62.5t70 26.5h30q39 0 60 -26.5t15 -62.5l-8 -51q-5 -29 -38 -53q37 -27 31 -63z" />
    <glyph glyph-name="acute" unicode="&#xb4;" horiz-adv-x="317" 
d="M370 772l17 -76l-228 -103l-16 65z" />
    <glyph glyph-name="mu" unicode="&#xb5;" horiz-adv-x="512" 
d="M159 549h81l-63 -400q-3 -35 16.5 -55t50.5 -20h25q62 0 108 54l67 421h82l-87 -549h-57l-4 55q-69 -61 -141 -61h-35q-23 0 -48 9l-33 -209h-82z" />
    <glyph glyph-name="paragraph" unicode="&#xb6;" horiz-adv-x="711" 
d="M573 -186h-85l127 803h-72l-127 -803h-85l69 435h-146q-70 0 -107.5 46t-27.5 108l23 150q10 62 63 105t127 43h446l-14 -84h-64z" />
    <glyph glyph-name="periodcentered" unicode="&#xb7;" horiz-adv-x="219" 
d="M125 352h81l-20 -128h-82z" />
    <glyph glyph-name="cedilla" unicode="&#xb8;" horiz-adv-x="232" 
d="M93 6h55l-25 -47q50 -12 50 -68q0 -43 -28 -70.5t-90 -27.5h-47l9 54h49q56 0 56 36q0 13 -9.5 23.5t-26.5 10.5h-39z" />
    <glyph glyph-name="onesuperior" unicode="&#xb9;" horiz-adv-x="275" 
d="M224 701h58l-51 -322h64l-11 -67h-193l10 67h65l39 247l-70 -38l11 70z" />
    <glyph glyph-name="ordmasculine" unicode="&#xba;" horiz-adv-x="277" 
d="M220 407h-42q-32 0 -52 22.5t-15 54.5l23 140q5 32 31.5 55t58.5 23h43q32 0 51.5 -23t14.5 -55l-22 -140q-5 -32 -32 -54.5t-59 -22.5zM215 642q-22 0 -28 -24l-20 -128q-2 -9 4 -15.5t16 -6.5h43q10 0 17.5 6.5t9.5 15.5l20 128q2 10 -3.5 17t-15.5 7h-43z" />
    <glyph glyph-name="guillemotright" unicode="&#xbb;" horiz-adv-x="634" 
d="M636 321l-16 -97l-301 -180l15 95l222 133l-180 135l15 95zM377 321l-16 -97l-301 -180l16 95l221 133l-179 135l15 95z" />
    <glyph glyph-name="onequarter" unicode="&#xbc;" horiz-adv-x="659" 
d="M579 389h61l-36 -233h39l-10 -67h-39l-15 -89h-66l15 89h-138l9 59zM474 156h64l18 110zM247 0h-79l367 700h78zM224 701h58l-51 -322h64l-11 -67h-193l10 67h65l39 247l-70 -38l11 70z" />
    <glyph glyph-name="onehalf" unicode="&#xbd;" horiz-adv-x="688" 
d="M249 0h-78l366 700h79zM683 256q-8 -40 -42 -67q-19 -17 -66.5 -42t-64.5 -39q-14 -12 -17 -30l-2 -11h166l-11 -67h-231l13 83q7 47 47 78q17 14 61.5 37.5t63.5 41.5q17 14 20 33l3 19q2 15 -6.5 25t-22.5 10h-23q-14 0 -25.5 -10t-13.5 -25l-5 -32h-66l7 41
q6 38 37 65.5t73 27.5h30q43 0 65.5 -29t15.5 -70zM224 701h58l-51 -322h64l-11 -67h-193l10 67h65l39 247l-70 -38l11 70z" />
    <glyph glyph-name="threequarters" unicode="&#xbe;" horiz-adv-x="690" 
d="M610 389h61l-37 -233h40l-10 -67h-40l-15 -89h-65l14 89h-137l9 59zM504 156h64l18 110zM277 0h-77l365 700h79zM339 403q-6 -39 -37 -68t-73 -29h-43q-42 0 -64.5 28t-16.5 66l5 37h66l-4 -27q-2 -16 5.5 -26t21.5 -10h36q14 0 25.5 11t14.5 27l5 28q2 15 -7.5 25.5
t-24.5 10.5h-43l11 68h40q28 2 33 30l5 34q2 13 -5 21.5t-18 8.5h-23q-11 0 -20.5 -8.5t-10.5 -21.5l-4 -26h-67l6 35q5 36 35 62.5t70 26.5h30q39 0 60 -26.5t15 -62.5l-8 -51q-5 -29 -38 -53q37 -27 31 -63z" />
    <glyph glyph-name="questiondown" unicode="&#xbf;" horiz-adv-x="487" 
d="M62 -3l14 86q7 55 54 97q11 12 60 49t59 47q31 29 36 60l6 38h84l-10 -68q-8 -56 -56 -96q-10 -9 -64 -46.5t-65 -50.5q-17 -19 -22 -48l-8 -49q-7 -40 13.5 -65t56.5 -25h48q35 0 63 25t35 65l9 55h85l-12 -74q-10 -63 -62 -108.5t-122 -45.5h-61q-73 0 -112 45.5
t-29 108.5zM383 422h-85l21 127h84z" />
    <glyph glyph-name="Agrave" unicode="&#xc0;" horiz-adv-x="591" 
d="M365 704h84l106 -704h-86l-27 191h-235l-86 -191h-85zM387 587l-142 -313h186zM314 842l42 83l191 -93l-38 -74z" />
    <glyph glyph-name="Aacute" unicode="&#xc1;" horiz-adv-x="591" 
d="M365 704h84l106 -704h-86l-27 191h-235l-86 -191h-85zM387 587l-142 -313h186zM537 925l17 -83l-221 -84l-16 74z" />
    <glyph glyph-name="Acircumflex" unicode="&#xc2;" horiz-adv-x="591" 
d="M365 704h84l106 -704h-86l-27 191h-235l-86 -191h-85zM387 587l-142 -313h186zM434 925h15l122 -84l-40 -78l-104 71l-125 -71l-16 73z" />
    <glyph glyph-name="Atilde" unicode="&#xc3;" horiz-adv-x="591" 
d="M365 704h84l106 -704h-86l-27 191h-235l-86 -191h-85zM387 587l-142 -313h186zM338 771h-69l6 38q7 48 24.5 70.5t54.5 22.5q25 0 65.5 -26.5t64.5 -26.5q16 0 21 20l4 28h68l-8 -53q-12 -76 -77 -76q-28 0 -70 25t-61 25q-15 0 -20 -28z" />
    <glyph glyph-name="Adieresis" unicode="&#xc4;" horiz-adv-x="591" 
d="M365 704h84l106 -704h-86l-27 191h-235l-86 -191h-85zM387 587l-142 -313h186zM300 903h89l-21 -126h-88zM488 903h88l-20 -126h-89z" />
    <glyph glyph-name="Aring" unicode="&#xc5;" horiz-adv-x="591" 
d="M306 770q8 44 43 76.5t81 32.5h12q46 0 70 -32.5t16 -76.5l-3 -19q-5 -30 -23.5 -56t-45.5 -40l99 -655h-86l-27 191h-235l-86 -191h-85l306 655q-24 14 -34 40t-5 56zM387 587l-142 -313h186zM463 756l2 9q5 23 -6.5 38t-31.5 15h-5q-19 0 -34.5 -14.5t-20.5 -38.5
l-2 -9q-4 -20 5 -34.5t24 -17.5h24q35 7 45 52z" />
    <glyph glyph-name="AE" unicode="&#xc6;" horiz-adv-x="832" 
d="M777 84l-13 -84h-376l29 186h-176l-119 -186h-91l451 701h384l-13 -84h-282l-34 -214h256l-13 -84h-257l-37 -235h291zM295 269h135l45 280z" />
    <glyph glyph-name="Ccedilla" unicode="&#xc7;" horiz-adv-x="561" 
d="M446 229h85l-12 -80q-10 -63 -62.5 -109t-123.5 -46h-24l-18 -35q50 -12 50 -68q0 -43 -28 -70.5t-90 -27.5h-47l9 54h49q56 0 56 36q0 13 -9.5 23.5t-26.5 10.5h-39l40 77h-25q-73 0 -111.5 45.5t-28.5 109.5l64 402q10 64 63 109.5t126 45.5h103q71 0 109 -46t28 -109
l-13 -76h-84l9 58q6 40 -14.5 64.5t-56.5 24.5h-89q-36 0 -64.5 -24.5t-34.5 -64.5l-58 -366q-6 -40 14 -64.5t56 -24.5h90q36 0 64.5 25t34.5 64z" />
    <glyph glyph-name="Egrave" unicode="&#xc8;" horiz-adv-x="522" 
d="M466 84l-13 -84h-376l111 701h367l-13 -84h-282l-34 -214h256l-13 -84h-257l-37 -235h291zM277 842l42 83l191 -93l-38 -74z" />
    <glyph glyph-name="Eacute" unicode="&#xc9;" horiz-adv-x="522" 
d="M466 84l-13 -84h-376l111 701h367l-13 -84h-282l-34 -214h256l-13 -84h-257l-37 -235h291zM506 925l17 -83l-221 -84l-16 74z" />
    <glyph glyph-name="Ecircumflex" unicode="&#xca;" horiz-adv-x="522" 
d="M466 84l-13 -84h-376l111 701h367l-13 -84h-282l-34 -214h256l-13 -84h-257l-37 -235h291zM401 925h15l122 -84l-40 -78l-104 71l-125 -71l-16 73z" />
    <glyph glyph-name="Edieresis" unicode="&#xcb;" horiz-adv-x="522" 
d="M466 84l-13 -84h-376l111 701h367l-13 -84h-282l-34 -214h256l-13 -84h-257l-37 -235h291zM270 903h89l-21 -126h-88zM458 903h88l-20 -126h-89z" />
    <glyph glyph-name="Igrave" unicode="&#xcc;" horiz-adv-x="239" 
d="M162 0h-85l111 701h85zM138 842l42 83l191 -93l-38 -74z" />
    <glyph glyph-name="Iacute" unicode="&#xcd;" horiz-adv-x="239" 
d="M162 0h-85l111 701h85zM362 925l17 -83l-221 -84l-16 74z" />
    <glyph glyph-name="Icircumflex" unicode="&#xce;" horiz-adv-x="239" 
d="M162 0h-85l111 701h85zM258 925h15l122 -84l-40 -78l-104 71l-125 -71l-16 73z" />
    <glyph glyph-name="Idieresis" unicode="&#xcf;" horiz-adv-x="239" 
d="M162 0h-85l111 701h85zM124 903h89l-21 -126h-88zM312 903h88l-20 -126h-89z" />
    <glyph glyph-name="Eth" unicode="&#xd0;" horiz-adv-x="583" 
d="M77 0l51 324h-65l13 81h65l47 295h280q71 0 108 -45.5t27 -109.5l-61 -390q-10 -64 -62 -109.5t-123 -45.5h-280zM364 405l-13 -81h-138l-38 -240h186q36 0 64.5 24.5t34.5 64.5l56 354q6 40 -14 64.5t-56 24.5h-186l-34 -211h138z" />
    <glyph glyph-name="Ntilde" unicode="&#xd1;" horiz-adv-x="594" 
d="M344 771h-69l6 38q7 48 24.5 70.5t54.5 22.5q25 0 65.5 -26.5t64.5 -26.5q16 0 21 20l4 28h68l-8 -53q-12 -76 -77 -76q-28 0 -70 25t-61 25q-15 0 -20 -28zM162 0h-85l111 701h85l187 -532l84 532h84l-111 -701h-87l-185 527z" />
    <glyph glyph-name="Ograve" unicode="&#xd2;" horiz-adv-x="573" 
d="M299 843l42 83l191 -93l-38 -74zM248 78h101q36 0 64.5 24.5t34.5 64.5l58 366q7 40 -13.5 64.5t-56.5 24.5h-101q-36 0 -64.5 -24.5t-34.5 -64.5l-58 -366q-6 -40 14 -64.5t56 -24.5zM345 -6h-115q-73 0 -111.5 45.5t-28.5 109.5l64 402q10 64 63 109.5t126 45.5h115
q71 0 108.5 -45.5t27.5 -109.5l-64 -402q-10 -64 -62 -109.5t-123 -45.5z" />
    <glyph glyph-name="Oacute" unicode="&#xd3;" horiz-adv-x="573" 
d="M534 926l17 -83l-221 -84l-16 74zM248 78h101q36 0 64.5 24.5t34.5 64.5l58 366q7 40 -13.5 64.5t-56.5 24.5h-101q-36 0 -64.5 -24.5t-34.5 -64.5l-58 -366q-6 -40 14 -64.5t56 -24.5zM345 -6h-115q-73 0 -111.5 45.5t-28.5 109.5l64 402q10 64 63 109.5t126 45.5h115
q71 0 108.5 -45.5t27.5 -109.5l-64 -402q-10 -64 -62 -109.5t-123 -45.5z" />
    <glyph glyph-name="Ocircumflex" unicode="&#xd4;" horiz-adv-x="573" 
d="M425 926h15l122 -84l-40 -78l-104 71l-125 -71l-16 73zM248 78h101q36 0 64.5 24.5t34.5 64.5l58 366q7 40 -13.5 64.5t-56.5 24.5h-101q-36 0 -64.5 -24.5t-34.5 -64.5l-58 -366q-6 -40 14 -64.5t56 -24.5zM345 -6h-115q-73 0 -111.5 45.5t-28.5 109.5l64 402
q10 64 63 109.5t126 45.5h115q71 0 108.5 -45.5t27.5 -109.5l-64 -402q-10 -64 -62 -109.5t-123 -45.5z" />
    <glyph glyph-name="Otilde" unicode="&#xd5;" horiz-adv-x="573" 
d="M248 78h101q36 0 64.5 24.5t34.5 64.5l58 366q7 40 -13.5 64.5t-56.5 24.5h-101q-36 0 -64.5 -24.5t-34.5 -64.5l-58 -366q-6 -40 14 -64.5t56 -24.5zM345 -6h-115q-73 0 -111.5 45.5t-28.5 109.5l64 402q10 64 63 109.5t126 45.5h115q71 0 108.5 -45.5t27.5 -109.5
l-64 -402q-10 -64 -62 -109.5t-123 -45.5zM330 772h-69l6 38q7 48 24.5 70.5t54.5 22.5q25 0 65.5 -26.5t64.5 -26.5q16 0 21 20l4 28h68l-8 -53q-12 -76 -77 -76q-28 0 -70 25t-61 25q-15 0 -20 -28z" />
    <glyph glyph-name="Odieresis" unicode="&#xd6;" horiz-adv-x="573" 
d="M248 78h101q36 0 64.5 24.5t34.5 64.5l58 366q7 40 -13.5 64.5t-56.5 24.5h-101q-36 0 -64.5 -24.5t-34.5 -64.5l-58 -366q-6 -40 14 -64.5t56 -24.5zM345 -6h-115q-73 0 -111.5 45.5t-28.5 109.5l64 402q10 64 63 109.5t126 45.5h115q71 0 108.5 -45.5t27.5 -109.5
l-64 -402q-10 -64 -62 -109.5t-123 -45.5zM291 904h89l-21 -126h-88zM479 904h88l-20 -126h-89z" />
    <glyph glyph-name="multiply" unicode="&#xd7;" horiz-adv-x="443" 
d="M100 129l-42 57l168 159l-118 160l60 57l118 -160l169 160l44 -57l-170 -160l119 -159l-61 -57l-118 159z" />
    <glyph glyph-name="Oslash" unicode="&#xd8;" horiz-adv-x="573" 
d="M74 -100h-55l95 144q-34 43 -24 105l64 402q10 64 63 109.5t126 45.5h115q46 0 81 -22l75 114h54l-96 -145q31 -44 22 -102l-64 -402q-10 -64 -62 -109.5t-123 -45.5h-115q-47 0 -81 20zM178 167q-3 -13 -1 -28l309 465q-20 18 -50 18h-101q-36 0 -64.5 -24.5
t-34.5 -64.5zM248 78h101q36 0 64.5 24.5t34.5 64.5l58 366q2 14 1 22l-306 -462q18 -15 47 -15z" />
    <glyph glyph-name="Ugrave" unicode="&#xd9;" horiz-adv-x="582" 
d="M297 842l42 83l191 -93l-38 -74zM533 149q-10 -64 -62 -109.5t-123 -45.5h-112q-72 0 -111 45.5t-29 109.5l87 552h86l-85 -534q-6 -40 14.5 -64.5t55.5 -24.5h98q36 0 64.5 24.5t34.5 64.5l84 534h86z" />
    <glyph glyph-name="Uacute" unicode="&#xda;" horiz-adv-x="582" 
d="M533 149q-10 -64 -62 -109.5t-123 -45.5h-112q-72 0 -111 45.5t-29 109.5l87 552h86l-85 -534q-6 -40 14.5 -64.5t55.5 -24.5h98q36 0 64.5 24.5t34.5 64.5l84 534h86zM546 925l17 -83l-221 -84l-16 74z" />
    <glyph glyph-name="Ucircumflex" unicode="&#xdb;" horiz-adv-x="582" 
d="M429 925h15l122 -84l-40 -78l-104 71l-125 -71l-16 73zM533 149q-10 -64 -62 -109.5t-123 -45.5h-112q-72 0 -111 45.5t-29 109.5l87 552h86l-85 -534q-6 -40 14.5 -64.5t55.5 -24.5h98q36 0 64.5 24.5t34.5 64.5l84 534h86z" />
    <glyph glyph-name="Udieresis" unicode="&#xdc;" horiz-adv-x="582" 
d="M533 149q-10 -64 -62 -109.5t-123 -45.5h-112q-72 0 -111 45.5t-29 109.5l87 552h86l-85 -534q-6 -40 14.5 -64.5t55.5 -24.5h98q36 0 64.5 24.5t34.5 64.5l84 534h86zM295 903h89l-21 -126h-88zM483 903h88l-20 -126h-89z" />
    <glyph glyph-name="Yacute" unicode="&#xdd;" horiz-adv-x="560" 
d="M327 0h-85l44 285l-139 416h87l109 -329l208 329h85l-264 -417zM525 925l17 -83l-221 -84l-16 74z" />
    <glyph glyph-name="Thorn" unicode="&#xde;" horiz-adv-x="545" 
d="M162 0h-85l111 701h85l-19 -120h162q74 0 114 -42.5t30 -104.5l-24 -146q-9 -62 -61.5 -108t-122.5 -46h-169zM394 497h-154l-44 -279h161q35 0 63 25t34 63l18 109q6 37 -16.5 59.5t-61.5 22.5z" />
    <glyph glyph-name="germandbls" unicode="&#xdf;" horiz-adv-x="502" 
d="M307 378q7 44 39 83q7 9 23 27t23.5 29t9.5 24l1 9q5 31 -12 53.5t-46 22.5h-28q-28 0 -54 -24.5t-31 -58.5l-86 -543h-82l88 550q10 64 58 110t106 46h51q59 0 94 -46t24 -110l-2 -12q-9 -50 -52 -91q-39 -37 -43 -66l-3 -16q-4 -29 27 -62q3 -4 13 -13.5t14 -14t13 -16
t11 -18.5t8 -21.5t4 -25t-2 -29.5l-3 -18q-10 -61 -53.5 -104t-100.5 -43h-93l13 80h82q28 0 47.5 20t24.5 49l1 10q4 25 -24 55q-4 4 -13.5 14t-14 15t-13.5 17t-12 19.5l-9 22.5t-4 26t2 30z" />
    <glyph glyph-name="agrave" unicode="&#xe0;" horiz-adv-x="500" 
d="M465 549h53l-87 -549h-57l-4 50q-59 -56 -119 -56h-58q-59 0 -89 50.5t-19 121.5l35 217q11 71 57 121.5t105 50.5h54q63 0 106 -59zM268 74q53 0 100 55l47 292q-28 54 -82 54h-38q-32 0 -60 -26.5t-35 -66.5l-34 -214q-6 -41 13 -67.5t52 -26.5h37zM243 696l40 76
l191 -114l-35 -65z" />
    <glyph glyph-name="aacute" unicode="&#xe1;" horiz-adv-x="500" 
d="M465 549h53l-87 -549h-57l-4 50q-59 -56 -119 -56h-58q-59 0 -89 50.5t-19 121.5l35 217q11 71 57 121.5t105 50.5h54q63 0 106 -59zM268 74q53 0 100 55l47 292q-28 54 -82 54h-38q-32 0 -60 -26.5t-35 -66.5l-34 -214q-6 -41 13 -67.5t52 -26.5h37zM468 772l17 -76
l-228 -103l-16 65z" />
    <glyph glyph-name="acircumflex" unicode="&#xe2;" horiz-adv-x="500" 
d="M465 549h53l-87 -549h-57l-4 50q-59 -56 -119 -56h-58q-59 0 -89 50.5t-19 121.5l35 217q11 71 57 121.5t105 50.5h54q63 0 106 -59zM268 74q53 0 100 55l47 292q-28 54 -82 54h-38q-32 0 -60 -26.5t-35 -66.5l-34 -214q-6 -41 13 -67.5t52 -26.5h37zM364 758h17l107 -96
l-36 -69l-93 80l-117 -80l-17 64z" />
    <glyph glyph-name="atilde" unicode="&#xe3;" horiz-adv-x="500" 
d="M465 549h53l-87 -549h-57l-4 50q-59 -56 -119 -56h-58q-59 0 -89 50.5t-19 121.5l35 217q11 71 57 121.5t105 50.5h54q63 0 106 -59zM268 74q53 0 100 55l47 292q-28 54 -82 54h-38q-32 0 -60 -26.5t-35 -66.5l-34 -214q-6 -41 13 -67.5t52 -26.5h37zM271 619h-64l5 36
q8 47 25 69t52 22q27 0 69.5 -27t62.5 -27q21 0 24 23l4 26h64l-8 -51q-12 -73 -74 -73q-33 0 -76.5 25t-56.5 25q-19 0 -24 -32z" />
    <glyph glyph-name="adieresis" unicode="&#xe4;" horiz-adv-x="500" 
d="M465 549h53l-87 -549h-57l-4 50q-59 -56 -119 -56h-58q-59 0 -89 50.5t-19 121.5l35 217q11 71 57 121.5t105 50.5h54q63 0 106 -59zM268 74q53 0 100 55l47 292q-28 54 -82 54h-38q-32 0 -60 -26.5t-35 -66.5l-34 -214q-6 -41 13 -67.5t52 -26.5h37zM425 757h84
l-21 -127h-83zM232 757h83l-21 -127h-82z" />
    <glyph glyph-name="aring" unicode="&#xe5;" horiz-adv-x="500" 
d="M465 549h53l-87 -549h-57l-4 50q-59 -56 -119 -56h-58q-59 0 -89 50.5t-19 121.5l35 217q11 71 57 121.5t105 50.5h54q63 0 106 -59zM268 74q53 0 100 55l47 292q-28 54 -82 54h-38q-32 0 -60 -26.5t-35 -66.5l-34 -214q-6 -41 13 -67.5t52 -26.5h37zM257 718q6 45 41 77
t83 32h12q45 0 68.5 -32t16.5 -77l-3 -18q-6 -45 -40.5 -77t-79.5 -32h-12q-47 0 -71.5 32t-17.5 77zM414 705l1 9q4 23 -7.5 37.5t-30.5 14.5h-5q-19 0 -35 -15t-19 -37l-1 -9q-4 -23 7 -38t30 -15h5q20 0 36 15t19 38z" />
    <glyph glyph-name="ae" unicode="&#xe6;" horiz-adv-x="781" 
d="M783 401l-26 -161h-289l-12 -76q-7 -40 13 -65t54 -25h46q33 0 60 25t34 63l1 5h82l-3 -21q-10 -63 -60.5 -107.5t-119.5 -44.5h-55q-92 0 -126 73q-70 -73 -142 -73h-52q-57 0 -87 39t-21 93l9 55q9 58 57.5 93t113.5 44l142 20l11 67q5 30 -13 50t-45 20h-50
q-27 0 -49.5 -16.5t-26.5 -44.5l-3 -21h-81l3 25q9 58 57 97.5t113 39.5h54q62 0 99 -55q59 55 126 55h54q69 0 105.5 -45t26.5 -109zM255 74q64 0 115 59l20 130l-132 -22q-33 -6 -59 -25.5t-30 -44.5l-6 -35q-4 -26 11 -44t40 -18h41zM586 475q-32 0 -60 -21t-33 -55
l-12 -79h207l10 64q7 40 -12.5 65.5t-53.5 25.5h-46z" />
    <glyph glyph-name="ccedilla" unicode="&#xe7;" horiz-adv-x="487" 
d="M483 365h-83l3 19q7 40 -12.5 65.5t-53.5 25.5h-38q-34 0 -61.5 -25.5t-33.5 -65.5l-35 -220q-7 -40 13 -65t54 -25h38q33 0 60.5 25t34.5 65l3 20h82l-5 -28q-11 -67 -60 -114.5t-115 -47.5h-7l-18 -35q50 -12 50 -68q0 -43 -28 -70.5t-90 -27.5h-47l9 54h49q56 0 56 36
q0 13 -9.5 23.5t-26.5 10.5h-39l40 77q-68 1 -102.5 48t-24.5 114l38 234q11 68 61.5 116.5t118.5 48.5h59q66 0 100 -48.5t24 -116.5z" />
    <glyph glyph-name="egrave" unicode="&#xe8;" 
d="M496 390l-25 -150h-290l-12 -76q-7 -40 13 -65t54 -25h47q34 0 62.5 25.5t32.5 64.5v3h82l-2 -11q-10 -66 -59.5 -114t-115.5 -48h-69q-68 0 -103 47.5t-25 114.5l38 234q11 68 61.5 116.5t118.5 48.5h68q66 0 100 -48.5t24 -116.5zM204 384l-12 -72h209l11 72
q6 40 -13 65.5t-53 25.5h-47q-34 0 -61.5 -25.5t-33.5 -65.5zM238 696l40 76l191 -114l-35 -65z" />
    <glyph glyph-name="eacute" unicode="&#xe9;" 
d="M496 390l-25 -150h-290l-12 -76q-7 -40 13 -65t54 -25h47q34 0 62.5 25.5t32.5 64.5v3h82l-2 -11q-10 -66 -59.5 -114t-115.5 -48h-69q-68 0 -103 47.5t-25 114.5l38 234q11 68 61.5 116.5t118.5 48.5h68q66 0 100 -48.5t24 -116.5zM204 384l-12 -72h209l11 72
q6 40 -13 65.5t-53 25.5h-47q-34 0 -61.5 -25.5t-33.5 -65.5zM460 772l17 -76l-228 -103l-16 65z" />
    <glyph glyph-name="ecircumflex" unicode="&#xea;" 
d="M496 390l-25 -150h-290l-12 -76q-7 -40 13 -65t54 -25h47q34 0 62.5 25.5t32.5 64.5v3h82l-2 -11q-10 -66 -59.5 -114t-115.5 -48h-69q-68 0 -103 47.5t-25 114.5l38 234q11 68 61.5 116.5t118.5 48.5h68q66 0 100 -48.5t24 -116.5zM204 384l-12 -72h209l11 72
q6 40 -13 65.5t-53 25.5h-47q-34 0 -61.5 -25.5t-33.5 -65.5zM359 758h17l107 -96l-36 -69l-93 80l-117 -80l-17 64z" />
    <glyph glyph-name="edieresis" unicode="&#xeb;" 
d="M496 390l-25 -150h-290l-12 -76q-7 -40 13 -65t54 -25h47q34 0 62.5 25.5t32.5 64.5v3h82l-2 -11q-10 -66 -59.5 -114t-115.5 -48h-69q-68 0 -103 47.5t-25 114.5l38 234q11 68 61.5 116.5t118.5 48.5h68q66 0 100 -48.5t24 -116.5zM204 384l-12 -72h209l11 72
q6 40 -13 65.5t-53 25.5h-47q-34 0 -61.5 -25.5t-33.5 -65.5zM422 757h84l-21 -127h-83zM229 757h83l-21 -127h-82z" />
    <glyph glyph-name="igrave" unicode="&#xec;" horiz-adv-x="227" 
d="M159 549h81l-86 -549h-82zM107 696l40 76l191 -114l-35 -65z" />
    <glyph glyph-name="iacute" unicode="&#xed;" horiz-adv-x="227" 
d="M327 772l17 -76l-228 -103l-16 65zM159 549h81l-86 -549h-82z" />
    <glyph glyph-name="icircumflex" unicode="&#xee;" horiz-adv-x="227" 
d="M226 758h17l107 -96l-36 -69l-93 80l-117 -80l-17 64zM159 549h81l-86 -549h-82z" />
    <glyph glyph-name="idieresis" unicode="&#xef;" horiz-adv-x="227" 
d="M96 757h83l-21 -127h-82zM289 757h84l-21 -127h-83zM159 549h81l-86 -549h-82z" />
    <glyph glyph-name="eth" unicode="&#xf0;" horiz-adv-x="537" 
d="M517 677l69 68l18 -25l-66 -66q30 -41 21 -95l-65 -410q-10 -64 -63.5 -109.5t-125.5 -45.5h-80q-70 0 -107.5 45.5t-27.5 109.5l21 132q10 64 62 109.5t122 45.5h80q33 0 75 -33l22 138q3 26 -4 43l-76 -75l-18 26l74 74q-18 13 -41 13h-185l13 84h190q57 0 92 -29z
M193 263l-15 -96q-6 -40 14 -64.5t56 -24.5h66q35 0 63.5 24.5t34.5 64.5l15 96q7 40 -13.5 64.5t-55.5 24.5h-66q-36 0 -64.5 -24.5t-34.5 -64.5z" />
    <glyph glyph-name="ntilde" unicode="&#xf1;" horiz-adv-x="503" 
d="M432 0h-82l63 391q6 39 -13 61.5t-53 22.5h-20q-61 0 -108 -58l-65 -417h-82l87 549h57l3 -55q66 61 134 61h30q62 0 92.5 -45.5t19.5 -114.5zM276 619h-64l5 36q8 47 25 69t52 22q27 0 69.5 -27t62.5 -27q21 0 24 23l4 26h64l-8 -51q-12 -73 -74 -73q-33 0 -76.5 25
t-56.5 25q-19 0 -24 -32z" />
    <glyph glyph-name="ograve" unicode="&#xf2;" 
d="M236 74h47q33 0 60.5 25t34.5 65l34 220q7 40 -12.5 65.5t-53.5 25.5h-47q-34 0 -61.5 -25.5t-33.5 -65.5l-35 -220q-7 -40 13 -65t54 -25zM283 -6h-69q-68 0 -103 47.5t-25 114.5l38 234q11 68 61.5 116.5t118.5 48.5h68q66 0 100 -48.5t23 -116.5l-37 -234
q-10 -66 -59.5 -114t-115.5 -48zM236 696l40 76l191 -114l-35 -65z" />
    <glyph glyph-name="oacute" unicode="&#xf3;" 
d="M460 772l17 -76l-228 -103l-16 65zM236 74h47q33 0 60.5 25t34.5 65l34 220q7 40 -12.5 65.5t-53.5 25.5h-47q-34 0 -61.5 -25.5t-33.5 -65.5l-35 -220q-7 -40 13 -65t54 -25zM283 -6h-69q-68 0 -103 47.5t-25 114.5l38 234q11 68 61.5 116.5t118.5 48.5h68
q66 0 100 -48.5t23 -116.5l-37 -234q-10 -66 -59.5 -114t-115.5 -48z" />
    <glyph glyph-name="ocircumflex" unicode="&#xf4;" 
d="M359 758h17l107 -96l-36 -69l-93 80l-117 -80l-17 64zM236 74h47q33 0 60.5 25t34.5 65l34 220q7 40 -12.5 65.5t-53.5 25.5h-47q-34 0 -61.5 -25.5t-33.5 -65.5l-35 -220q-7 -40 13 -65t54 -25zM283 -6h-69q-68 0 -103 47.5t-25 114.5l38 234q11 68 61.5 116.5
t118.5 48.5h68q66 0 100 -48.5t23 -116.5l-37 -234q-10 -66 -59.5 -114t-115.5 -48z" />
    <glyph glyph-name="otilde" unicode="&#xf5;" 
d="M236 74h47q33 0 60.5 25t34.5 65l34 220q7 40 -12.5 65.5t-53.5 25.5h-47q-34 0 -61.5 -25.5t-33.5 -65.5l-35 -220q-7 -40 13 -65t54 -25zM283 -6h-69q-68 0 -103 47.5t-25 114.5l38 234q11 68 61.5 116.5t118.5 48.5h68q66 0 100 -48.5t23 -116.5l-37 -234
q-10 -66 -59.5 -114t-115.5 -48zM265 619h-64l5 36q8 47 25 69t52 22q27 0 69.5 -27t62.5 -27q21 0 24 23l4 26h64l-8 -51q-12 -73 -74 -73q-33 0 -76.5 25t-56.5 25q-19 0 -24 -32z" />
    <glyph glyph-name="odieresis" unicode="&#xf6;" 
d="M229 757h83l-21 -127h-82zM422 757h84l-21 -127h-83zM236 74h47q33 0 60.5 25t34.5 65l34 220q7 40 -12.5 65.5t-53.5 25.5h-47q-34 0 -61.5 -25.5t-33.5 -65.5l-35 -220q-7 -40 13 -65t54 -25zM283 -6h-69q-68 0 -103 47.5t-25 114.5l38 234q11 68 61.5 116.5
t118.5 48.5h68q66 0 100 -48.5t23 -116.5l-37 -234q-10 -66 -59.5 -114t-115.5 -48z" />
    <glyph glyph-name="oslash" unicode="&#xf8;" 
d="M60 -100h-41l94 139q-38 47 -27 117l38 234q11 68 61.5 116.5t118.5 48.5h68q43 0 73 -22l75 110h41l-91 -135q36 -47 25 -118l-37 -234q-10 -66 -59.5 -114t-115.5 -48h-69q-45 0 -76 22zM169 164q-4 -21 1 -40l223 332q-19 19 -47 19h-47q-34 0 -61.5 -25.5
t-33.5 -65.5zM236 74h47q33 0 60.5 25t34.5 65l34 220q3 21 -1 37l-222 -330q19 -17 47 -17z" />
    <glyph glyph-name="ugrave" unicode="&#xf9;" horiz-adv-x="498" 
d="M158 549h81l-62 -391q-6 -40 12.5 -62.5t51.5 -22.5h21q55 0 102 53l66 423h82l-87 -549h-57l-3 52q-63 -58 -130 -58h-28q-63 0 -93 45t-19 115zM225 696l40 76l191 -114l-35 -65z" />
    <glyph glyph-name="uacute" unicode="&#xfa;" horiz-adv-x="498" 
d="M158 549h81l-62 -391q-6 -40 12.5 -62.5t51.5 -22.5h21q55 0 102 53l66 423h82l-87 -549h-57l-3 52q-63 -58 -130 -58h-28q-63 0 -93 45t-19 115zM473 772l17 -76l-228 -103l-16 65z" />
    <glyph glyph-name="ucircumflex" unicode="&#xfb;" horiz-adv-x="498" 
d="M158 549h81l-62 -391q-6 -40 12.5 -62.5t51.5 -22.5h21q55 0 102 53l66 423h82l-87 -549h-57l-3 52q-63 -58 -130 -58h-28q-63 0 -93 45t-19 115zM354 758h17l107 -96l-36 -69l-93 80l-117 -80l-17 64z" />
    <glyph glyph-name="udieresis" unicode="&#xfc;" horiz-adv-x="498" 
d="M158 549h81l-62 -391q-6 -40 12.5 -62.5t51.5 -22.5h21q55 0 102 53l66 423h82l-87 -549h-57l-3 52q-63 -58 -130 -58h-28q-63 0 -93 45t-19 115zM420 757h84l-21 -127h-83zM227 757h83l-21 -127h-82z" />
    <glyph glyph-name="yacute" unicode="&#xfd;" horiz-adv-x="466" 
d="M178 -207h-84l99 209l-90 547h84l68 -417l199 417h84zM446 772l17 -76l-228 -103l-16 65z" />
    <glyph glyph-name="thorn" unicode="&#xfe;" horiz-adv-x="505" 
d="M121 -207h-82l152 957h82l-38 -239q53 44 108 44h53q60 0 90 -46t20 -111l-39 -246q-10 -65 -55 -111.5t-105 -46.5h-58q-53 0 -90 42zM310 475q-47 0 -90 -54l-46 -292q24 -55 74 -55h46q33 0 60.5 26.5t34.5 67.5l33 214q7 40 -12 66.5t-52 26.5h-48z" />
    <glyph glyph-name="ydieresis" unicode="&#xff;" horiz-adv-x="466" 
d="M178 -207h-84l99 209l-90 547h84l68 -417l199 417h84zM408 757h84l-21 -127h-83zM215 757h83l-21 -127h-82z" />
    <glyph glyph-name="Amacron" unicode="&#x100;" horiz-adv-x="591" 
d="M365 704h84l106 -704h-86l-27 191h-235l-86 -191h-85zM387 587l-142 -313h186zM556 875l-13 -88h-261l13 88h261z" />
    <glyph glyph-name="amacron" unicode="&#x101;" horiz-adv-x="500" 
d="M465 549h53l-87 -549h-57l-4 50q-59 -56 -119 -56h-58q-59 0 -89 50.5t-19 121.5l35 217q11 71 57 121.5t105 50.5h54q63 0 106 -59zM268 74q53 0 100 55l47 292q-28 54 -82 54h-38q-32 0 -60 -26.5t-35 -66.5l-34 -214q-6 -41 13 -67.5t52 -26.5h37zM506 710l-13 -81
h-261l13 81h261z" />
    <glyph glyph-name="Abreve" unicode="&#x102;" horiz-adv-x="591" 
d="M365 704h84l106 -704h-86l-27 191h-235l-86 -191h-85zM387 587l-142 -313h186zM504 891h67l-6 -33q-6 -40 -37.5 -69.5t-67.5 -29.5h-92q-37 0 -58.5 29t-14.5 70l5 33h67l-3 -19q-2 -14 4.5 -23.5t18.5 -9.5h80q12 0 22.5 10t11.5 23z" />
    <glyph glyph-name="abreve" unicode="&#x103;" horiz-adv-x="500" 
d="M465 549h53l-87 -549h-57l-4 50q-59 -56 -119 -56h-58q-59 0 -89 50.5t-19 121.5l35 217q11 71 57 121.5t105 50.5h54q63 0 106 -59zM268 74q53 0 100 55l47 292q-28 54 -82 54h-38q-32 0 -60 -26.5t-35 -66.5l-34 -214q-6 -41 13 -67.5t52 -26.5h37zM429 750h67l-5 -34
q-8 -44 -41.5 -76t-73.5 -32h-75q-41 0 -64.5 32t-16.5 76l5 34h67l-4 -26q-2 -18 6.5 -31t23.5 -13h63q15 0 28.5 13t16.5 31z" />
    <glyph glyph-name="Aogonek" unicode="&#x104;" horiz-adv-x="591" 
d="M546 -137l-8 -55h-40q-96 0 -96 68q0 60 67 124l-27 191h-235l-86 -191h-85l329 704h84l106 -704h-9q-85 -62 -85 -109q0 -28 45 -28h40zM387 587l-142 -313h186z" />
    <glyph glyph-name="aogonek" unicode="&#x105;" horiz-adv-x="500" 
d="M424 -137l-8 -55h-40q-96 0 -96 68q0 72 92 145l-2 29q-59 -56 -119 -56h-58q-59 0 -89 50.5t-19 121.5l35 217q11 71 57 121.5t105 50.5h54q63 0 106 -59l23 53h53l-87 -549h-7q-85 -62 -85 -109q0 -28 45 -28h40zM268 74q53 0 100 55l47 292q-28 54 -82 54h-38
q-32 0 -60 -26.5t-35 -66.5l-34 -214q-6 -41 13 -67.5t52 -26.5h37z" />
    <glyph glyph-name="Cacute" unicode="&#x106;" horiz-adv-x="561" 
d="M446 229h85l-12 -80q-10 -63 -62.5 -109t-123.5 -46h-103q-73 0 -111.5 45.5t-28.5 109.5l64 402q10 64 63 109.5t126 45.5h103q71 0 109 -46t28 -109l-13 -76h-84l9 58q6 40 -14.5 64.5t-56.5 24.5h-89q-36 0 -64.5 -24.5t-34.5 -64.5l-58 -366q-6 -40 14 -64.5
t56 -24.5h90q36 0 64.5 25t34.5 64zM524 925l17 -83l-221 -84l-16 74z" />
    <glyph glyph-name="cacute" unicode="&#x107;" horiz-adv-x="485" 
d="M451 772l17 -76l-228 -103l-16 65zM483 365h-83l3 19q7 40 -12.5 65.5t-53.5 25.5h-38q-34 0 -61.5 -25.5t-33.5 -65.5l-35 -220q-7 -40 13 -65t54 -25h38q33 0 60.5 25t34.5 65l3 20h82l-5 -28q-11 -67 -60 -114.5t-115 -47.5h-60q-68 0 -103 47.5t-25 114.5l38 234
q11 68 61.5 116.5t118.5 48.5h59q66 0 100 -48.5t24 -116.5z" />
    <glyph glyph-name="Ccaron" unicode="&#x10c;" horiz-adv-x="561" 
d="M446 229h85l-12 -80q-10 -63 -62.5 -109t-123.5 -46h-103q-73 0 -111.5 45.5t-28.5 109.5l64 402q10 64 63 109.5t126 45.5h103q71 0 109 -46t28 -109l-13 -76h-84l9 58q6 40 -14.5 64.5t-56.5 24.5h-89q-36 0 -64.5 -24.5t-34.5 -64.5l-58 -366q-6 -40 14 -64.5
t56 -24.5h90q36 0 64.5 25t34.5 64zM413 754h-15l-121 90l40 72l102 -70l127 70l14 -78z" />
    <glyph glyph-name="ccaron" unicode="&#x10d;" horiz-adv-x="485" 
d="M342 593h-17l-107 101l37 64l92 -79l118 79l15 -69zM483 365h-83l3 19q7 40 -12.5 65.5t-53.5 25.5h-38q-34 0 -61.5 -25.5t-33.5 -65.5l-35 -220q-7 -40 13 -65t54 -25h38q33 0 60.5 25t34.5 65l3 20h82l-5 -28q-11 -67 -60 -114.5t-115 -47.5h-60q-68 0 -103 47.5
t-25 114.5l38 234q11 68 61.5 116.5t118.5 48.5h59q66 0 100 -48.5t24 -116.5z" />
    <glyph glyph-name="Dcaron" unicode="&#x10e;" horiz-adv-x="583" 
d="M357 0h-280l111 700h280q71 0 108 -45.5t27 -109.5l-61 -390q-10 -64 -62 -109.5t-123 -45.5zM446 616h-187l-84 -532h186q36 0 64.5 24.5t34.5 64.5l56 354q7 40 -13.5 64.5t-56.5 24.5zM398 754h-15l-121 90l40 72l102 -70l127 70l14 -78z" />
    <glyph glyph-name="dcaron" unicode="&#x10f;" horiz-adv-x="723" 
d="M433 0h-57l-4 50q-58 -56 -119 -56h-57q-60 0 -90 50.5t-19 121.5l35 217q12 71 57.5 121.5t104.5 50.5h54q52 0 93 -43l38 238h82zM270 74q53 0 100 55l47 293q-30 53 -82 53h-38q-32 0 -59.5 -26.5t-34.5 -66.5l-34 -214q-7 -41 12 -67.5t52 -26.5h37zM615 471l14 86
q21 6 37 26t19 40l21 128h81l-21 -128q-10 -63 -53 -103.5t-98 -48.5z" />
    <glyph glyph-name="Dcroat" unicode="&#x110;" horiz-adv-x="583" 
d="M77 0l51 324h-65l13 81h65l47 295h280q71 0 108 -45.5t27 -109.5l-61 -390q-10 -64 -62 -109.5t-123 -45.5h-280zM364 405l-13 -81h-138l-38 -240h186q36 0 64.5 24.5t34.5 64.5l56 354q6 40 -14 64.5t-56 24.5h-186l-34 -211h138z" />
    <glyph glyph-name="dcroat" unicode="&#x111;" horiz-adv-x="505" 
d="M433 0h-57l-4 50q-58 -56 -119 -56h-57q-60 0 -90 50.5t-19 121.5l35 217q12 71 57.5 121.5t104.5 50.5h54q52 0 93 -43l15 97h-182l10 65h183l12 76h82l-12 -76h81l-10 -65h-81zM270 74q53 0 100 55l47 293q-30 53 -82 53h-38q-32 0 -59.5 -26.5t-34.5 -66.5l-34 -214
q-7 -41 12 -67.5t52 -26.5h37z" />
    <glyph glyph-name="Emacron" unicode="&#x112;" horiz-adv-x="522" 
d="M466 84l-13 -84h-376l111 701h367l-13 -84h-282l-34 -214h256l-13 -84h-257l-37 -235h291zM527 875l-13 -88h-261l13 88h261z" />
    <glyph glyph-name="emacron" unicode="&#x113;" 
d="M496 390l-25 -150h-290l-12 -76q-7 -40 13 -65t54 -25h47q34 0 62.5 25.5t32.5 64.5v3h82l-2 -11q-10 -66 -59.5 -114t-115.5 -48h-69q-68 0 -103 47.5t-25 114.5l38 234q11 68 61.5 116.5t118.5 48.5h68q66 0 100 -48.5t24 -116.5zM204 384l-12 -72h209l11 72
q6 40 -13 65.5t-53 25.5h-47q-34 0 -61.5 -25.5t-33.5 -65.5zM493 710l-13 -81h-261l13 81h261z" />
    <glyph glyph-name="Edotaccent" unicode="&#x116;" horiz-adv-x="522" 
d="M466 84l-13 -84h-376l111 701h367l-13 -84h-282l-34 -214h256l-13 -84h-257l-37 -235h291zM363 899h82l-19 -122h-82z" />
    <glyph glyph-name="edotaccent" unicode="&#x117;" 
d="M496 390l-25 -150h-290l-12 -76q-7 -40 13 -65t54 -25h47q34 0 62.5 25.5t32.5 64.5v3h82l-2 -11q-10 -66 -59.5 -114t-115.5 -48h-69q-68 0 -103 47.5t-25 114.5l38 234q11 68 61.5 116.5t118.5 48.5h68q66 0 100 -48.5t24 -116.5zM204 384l-12 -72h209l11 72
q6 40 -13 65.5t-53 25.5h-47q-34 0 -61.5 -25.5t-33.5 -65.5zM323 757h81l-20 -127h-81z" />
    <glyph glyph-name="Eogonek" unicode="&#x118;" horiz-adv-x="522" 
d="M466 84l-13 -84h-7q-85 -62 -85 -109q0 -28 45 -28h40l-8 -55h-40q-96 0 -96 68q0 61 68 124h-293l111 701h367l-13 -84h-282l-34 -214h256l-13 -84h-257l-37 -235h291z" />
    <glyph glyph-name="eogonek" unicode="&#x119;" 
d="M496 390l-25 -150h-290l-12 -76q-7 -40 13 -65t54 -25h47q34 0 62.5 25.5t32.5 64.5v3h82l-2 -11q-8 -55 -45 -99t-89 -57q-84 -62 -84 -109q0 -28 45 -28h40l-8 -55h-40q-96 0 -96 68q0 58 62 118h-29q-68 0 -103 47.5t-25 114.5l38 234q11 68 61.5 116.5t118.5 48.5h68
q66 0 100 -48.5t24 -116.5zM204 384l-12 -72h209l11 72q6 40 -13 65.5t-53 25.5h-47q-34 0 -61.5 -25.5t-33.5 -65.5z" />
    <glyph glyph-name="Ecaron" unicode="&#x11a;" horiz-adv-x="522" 
d="M466 84l-13 -84h-376l111 701h367l-13 -84h-282l-34 -214h256l-13 -84h-257l-37 -235h291zM388 754h-15l-121 90l40 72l102 -70l127 70l14 -78z" />
    <glyph glyph-name="ecaron" unicode="&#x11b;" 
d="M496 390l-25 -150h-290l-12 -76q-7 -40 13 -65t54 -25h47q34 0 62.5 25.5t32.5 64.5v3h82l-2 -11q-10 -66 -59.5 -114t-115.5 -48h-69q-68 0 -103 47.5t-25 114.5l38 234q11 68 61.5 116.5t118.5 48.5h68q66 0 100 -48.5t24 -116.5zM204 384l-12 -72h209l11 72
q6 40 -13 65.5t-53 25.5h-47q-34 0 -61.5 -25.5t-33.5 -65.5zM350 593h-17l-107 101l37 64l92 -79l118 79l15 -69z" />
    <glyph glyph-name="Gbreve" unicode="&#x11e;" horiz-adv-x="573" 
d="M582 475h-85l9 58q7 40 -13.5 64.5t-56.5 24.5h-101q-36 0 -64.5 -24.5t-34.5 -64.5l-58 -366q-6 -40 14 -64.5t56 -24.5h101q36 0 64.5 24.5t34.5 64.5l17 112h-139l13 84h225l-34 -214q-10 -64 -62 -109.5t-123 -45.5h-115q-73 0 -111.5 45.5t-28.5 109.5l64 402
q10 64 63 109.5t126 45.5h115q71 0 108.5 -45.5t27.5 -109.5zM493 891h67l-6 -33q-6 -40 -37.5 -69.5t-67.5 -29.5h-92q-37 0 -58.5 29t-14.5 70l5 33h67l-3 -19q-2 -14 4.5 -23.5t18.5 -9.5h80q12 0 22.5 10t11.5 23z" />
    <glyph glyph-name="gbreve" unicode="&#x11f;" horiz-adv-x="505" 
d="M520 549l-95 -601q-10 -64 -62 -109.5t-123 -45.5h-46q-72 0 -111.5 44.5t-30.5 105.5l2 12h82l-1 -7q-5 -34 16 -57t56 -23h38q36 0 65 25t35 65l12 79q-53 -43 -104 -43h-57q-60 0 -90 50.5t-18 121.5l34 217q12 71 58 121.5t105 50.5h53q63 0 106 -59l20 53h56z
M271 74q52 0 101 56l46 290q-28 55 -82 55h-38q-33 0 -60.5 -26.5t-33.5 -66.5l-34 -214q-7 -41 11.5 -67.5t52.5 -26.5h37zM438 750h67l-5 -34q-8 -44 -41.5 -76t-73.5 -32h-75q-41 0 -64.5 32t-16.5 76l5 34h67l-4 -26q-2 -18 6.5 -31t23.5 -13h63q15 0 28.5 13t16.5 31z
" />
    <glyph glyph-name="uni0122" unicode="&#x122;" horiz-adv-x="573" 
d="M582 475h-85l9 58q7 40 -13.5 64.5t-56.5 24.5h-101q-36 0 -64.5 -24.5t-34.5 -64.5l-58 -366q-6 -40 14 -64.5t56 -24.5h101q36 0 64.5 24.5t34.5 64.5l17 112h-139l13 84h225l-34 -214q-10 -64 -62 -109.5t-123 -45.5h-115q-73 0 -111.5 45.5t-28.5 109.5l64 402
q10 64 63 109.5t126 45.5h115q71 0 108.5 -45.5t27.5 -109.5zM171 -255l-13 -86q55 7 98 47.5t54 104.5l20 128h-81l-21 -128q-3 -20 -19 -40t-38 -26z" />
    <glyph glyph-name="uni0123" unicode="&#x123;" horiz-adv-x="505" 
d="M520 549l-95 -601q-10 -64 -62 -109.5t-123 -45.5h-46q-72 0 -111.5 44.5t-30.5 105.5l2 12h82l-1 -7q-5 -34 16 -57t56 -23h38q36 0 65 25t35 65l12 79q-53 -43 -104 -43h-57q-60 0 -90 50.5t-18 121.5l34 217q12 71 58 121.5t105 50.5h53q63 0 106 -59l20 53h56z
M271 74q52 0 101 56l46 290q-28 55 -82 55h-38q-33 0 -60.5 -26.5t-33.5 -66.5l-34 -214q-7 -41 11.5 -67.5t52.5 -26.5h37zM474 898l-13 -86q-22 -6 -38 -26t-19 -40l-21 -128h-81l20 128q11 64 54 104.5t98 47.5z" />
    <glyph glyph-name="Imacron" unicode="&#x12a;" horiz-adv-x="239" 
d="M162 0h-85l111 701h85zM378 833l-13 -88h-261l13 88h261z" />
    <glyph glyph-name="imacron" unicode="&#x12b;" horiz-adv-x="227" 
d="M159 549h81l-86 -549h-82zM360 710l-13 -81h-261l13 81h261z" />
    <glyph glyph-name="Iogonek" unicode="&#x12e;" horiz-adv-x="239" 
d="M152 -137l-8 -55h-40q-96 0 -96 68q0 61 69 125l111 700h85l-111 -701h-10q-85 -62 -85 -109q0 -28 45 -28h40z" />
    <glyph glyph-name="iogonek" unicode="&#x12f;" horiz-adv-x="227" 
d="M143 -137l-8 -55h-40q-96 0 -96 68q0 63 74 129l86 544h81l-86 -549h-11q-85 -62 -85 -109q0 -28 45 -28h40zM191 750h82l-21 -127h-81z" />
    <glyph glyph-name="Idotaccent" unicode="&#x130;" horiz-adv-x="239" 
d="M162 0h-85l111 701h85zM220 899h82l-19 -122h-82z" />
    <glyph glyph-name="dotlessi" unicode="&#x131;" horiz-adv-x="227" 
d="M159 549h81l-86 -549h-82z" />
    <glyph glyph-name="uni0136" unicode="&#x136;" horiz-adv-x="556" 
d="M162 0h-85l111 700h85l-48 -305h82l200 305h94l-227 -341l155 -359h-96l-129 311h-93zM160 -255l-13 -86q55 7 98 47.5t54 104.5l20 128h-81l-21 -128q-3 -20 -19 -40t-38 -26z" />
    <glyph glyph-name="uni0137" unicode="&#x137;" horiz-adv-x="476" 
d="M464 0h-92l-121 272h-54l-43 -272h-82l119 750h82l-64 -398h56l162 197h97l-204 -233zM133 -255l-13 -86q55 7 98 47.5t54 104.5l20 128h-81l-21 -128q-3 -20 -19 -40t-38 -26z" />
    <glyph glyph-name="Lacute" unicode="&#x139;" horiz-adv-x="451" 
d="M438 84l-13 -84h-348l111 701h85l-98 -617h263zM344 925l17 -83l-221 -84l-16 74z" />
    <glyph glyph-name="lacute" unicode="&#x13a;" horiz-adv-x="227" 
d="M350 946l17 -83l-221 -84l-16 74zM191 750h82l-119 -750h-82z" />
    <glyph glyph-name="uni013B" unicode="&#x13b;" horiz-adv-x="451" 
d="M438 84l-13 -84h-348l111 701h85l-98 -617h263zM126 -255l-13 -86q55 7 98 47.5t54 104.5l20 128h-81l-21 -128q-3 -20 -19 -40t-38 -26z" />
    <glyph glyph-name="uni013C" unicode="&#x13c;" horiz-adv-x="227" 
d="M-12 -255l-13 -86q55 7 98 47.5t54 104.5l20 128h-81l-21 -128q-3 -20 -19 -40t-38 -26zM191 750h82l-119 -750h-82z" />
    <glyph glyph-name="Lcaron" unicode="&#x13d;" horiz-adv-x="451" 
d="M438 84l-13 -84h-348l111 701h85l-98 -617h263zM242 754h-15l-121 90l40 72l102 -70l127 70l14 -78z" />
    <glyph glyph-name="lcaron" unicode="&#x13e;" horiz-adv-x="445" 
d="M336 471l14 86q21 6 37 26t19 40l21 128h81l-21 -128q-10 -63 -53 -103.5t-98 -48.5zM191 750h82l-119 -750h-82z" />
    <glyph glyph-name="Lslash" unicode="&#x141;" horiz-adv-x="451" 
d="M438 84l-13 -84h-348l43 274l-83 -59l16 100l83 59l52 327h85l-43 -274l132 92l-16 -100l-132 -92l-39 -243h263z" />
    <glyph glyph-name="lslash" unicode="&#x142;" horiz-adv-x="227" 
d="M191 750h82l-48 -301q84 59 92 65l-16 -100l-92 -64l-55 -350h-82l47 299l-92 -66l16 101l92 65z" />
    <glyph glyph-name="Nacute" unicode="&#x143;" horiz-adv-x="594" 
d="M162 0h-85l111 701h85l187 -532l84 532h84l-111 -701h-87l-185 527zM542 925l17 -83l-221 -84l-16 74z" />
    <glyph glyph-name="nacute" unicode="&#x144;" horiz-adv-x="503" 
d="M432 0h-82l63 391q6 39 -13 61.5t-53 22.5h-20q-61 0 -108 -58l-65 -417h-82l87 549h57l3 -55q66 61 134 61h30q62 0 92.5 -45.5t19.5 -114.5zM464 772l17 -76l-228 -103l-16 65z" />
    <glyph glyph-name="uni0145" unicode="&#x145;" horiz-adv-x="594" 
d="M162 0h-85l111 701h85l187 -532l84 532h84l-111 -701h-87l-185 527zM192 -255l-13 -86q55 7 98 47.5t54 104.5l20 128h-81l-21 -128q-3 -20 -19 -40t-38 -26z" />
    <glyph glyph-name="uni0146" unicode="&#x146;" horiz-adv-x="503" 
d="M432 0h-82l63 391q6 39 -13 61.5t-53 22.5h-20q-61 0 -108 -58l-65 -417h-82l87 549h57l3 -55q66 61 134 61h30q62 0 92.5 -45.5t19.5 -114.5zM137 -255l-13 -86q55 7 98 47.5t54 104.5l20 128h-81l-21 -128q-3 -20 -19 -40t-38 -26z" />
    <glyph glyph-name="Ncaron" unicode="&#x147;" horiz-adv-x="594" 
d="M162 0h-85l111 701h85l187 -532l84 532h84l-111 -701h-87l-185 527zM423 754h-15l-121 90l40 72l102 -70l127 70l14 -78z" />
    <glyph glyph-name="ncaron" unicode="&#x148;" horiz-adv-x="503" 
d="M432 0h-82l63 391q6 39 -13 61.5t-53 22.5h-20q-61 0 -108 -58l-65 -417h-82l87 549h57l3 -55q66 61 134 61h30q62 0 92.5 -45.5t19.5 -114.5zM361 593h-17l-107 101l37 64l92 -79l118 79l15 -69z" />
    <glyph glyph-name="Omacron" unicode="&#x14c;" horiz-adv-x="573" 
d="M248 78h101q36 0 64.5 24.5t34.5 64.5l58 366q7 40 -13.5 64.5t-56.5 24.5h-101q-36 0 -64.5 -24.5t-34.5 -64.5l-58 -366q-6 -40 14 -64.5t56 -24.5zM345 -6h-115q-73 0 -111.5 45.5t-28.5 109.5l64 402q10 64 63 109.5t126 45.5h115q71 0 108.5 -45.5t27.5 -109.5
l-64 -402q-10 -64 -62 -109.5t-123 -45.5zM552 876l-13 -88h-261l13 88h261z" />
    <glyph glyph-name="omacron" unicode="&#x14d;" 
d="M488 710l-13 -81h-261l13 81h261zM236 74h47q33 0 60.5 25t34.5 65l34 220q7 40 -12.5 65.5t-53.5 25.5h-47q-34 0 -61.5 -25.5t-33.5 -65.5l-35 -220q-7 -40 13 -65t54 -25zM283 -6h-69q-68 0 -103 47.5t-25 114.5l38 234q11 68 61.5 116.5t118.5 48.5h68
q66 0 100 -48.5t23 -116.5l-37 -234q-10 -66 -59.5 -114t-115.5 -48z" />
    <glyph glyph-name="Ohungarumlaut" unicode="&#x150;" horiz-adv-x="573" 
d="M367 922l56 -44l-111 -131l-47 39zM529 922l56 -44l-111 -131l-47 39zM248 78h101q36 0 64.5 24.5t34.5 64.5l58 366q7 40 -13.5 64.5t-56.5 24.5h-101q-36 0 -64.5 -24.5t-34.5 -64.5l-58 -366q-6 -40 14 -64.5t56 -24.5zM345 -6h-115q-73 0 -111.5 45.5t-28.5 109.5
l64 402q10 64 63 109.5t126 45.5h115q71 0 108.5 -45.5t27.5 -109.5l-64 -402q-10 -64 -62 -109.5t-123 -45.5z" />
    <glyph glyph-name="ohungarumlaut" unicode="&#x151;" 
d="M341 799l56 -45l-147 -162l-46 39zM503 799l56 -45l-147 -162l-46 39zM236 74h47q33 0 60.5 25t34.5 65l34 220q7 40 -12.5 65.5t-53.5 25.5h-47q-34 0 -61.5 -25.5t-33.5 -65.5l-35 -220q-7 -40 13 -65t54 -25zM283 -6h-69q-68 0 -103 47.5t-25 114.5l38 234
q11 68 61.5 116.5t118.5 48.5h68q66 0 100 -48.5t23 -116.5l-37 -234q-10 -66 -59.5 -114t-115.5 -48z" />
    <glyph glyph-name="OE" unicode="&#x152;" horiz-adv-x="866" 
d="M810 84l-13 -84h-566q-73 0 -111.5 45.5t-28.5 109.5l62 391q10 64 63 109.5t126 45.5h557l-13 -84h-282l-34 -214h256l-13 -84h-257l-37 -235h291zM179 173q-6 -40 14 -64.5t56 -24.5h185l84 533h-184q-36 0 -64.5 -25t-34.5 -65z" />
    <glyph glyph-name="oe" unicode="&#x153;" horiz-adv-x="784" 
d="M785 390l-25 -150h-289l-15 -93q-5 -31 16.5 -52t52.5 -21h47q34 0 62.5 25.5t32.5 64.5v3h82l-2 -11q-10 -66 -59.5 -114t-115.5 -48h-69q-68 0 -104 49q-51 -49 -116 -49h-69q-68 0 -103 47.5t-25 114.5l38 234q11 68 61.5 116.5t118.5 48.5h68q66 0 101 -50
q52 50 120 50h68q66 0 100 -48.5t24 -116.5zM236 74h47q31 0 58 19.5t32 52.5l39 238q7 40 -12.5 65.5t-53.5 25.5h-47q-34 0 -61.5 -25.5t-33.5 -65.5l-35 -220q-7 -40 13 -65t54 -25zM588 475q-32 0 -59.5 -21.5t-32.5 -55.5l-13 -86h207l11 72q6 40 -13 65.5t-53 25.5
h-47z" />
    <glyph glyph-name="Racute" unicode="&#x154;" horiz-adv-x="569" 
d="M162 0h-85l111 700h256q73 0 113 -43t30 -104l-23 -146q-8 -45 -43 -84t-86 -54l71 -269h-89l-69 261h-145zM422 616h-163l-42 -271h169q35 0 63 23t34 57l17 109q6 38 -16.5 60t-61.5 22zM515 925l17 -83l-221 -84l-16 74z" />
    <glyph glyph-name="racute" unicode="&#x155;" horiz-adv-x="340" 
d="M413 552l-13 -80h-57q-31 0 -66.5 -22t-61.5 -59l-61 -391h-82l87 549h57l1 -72q73 75 150 75h46zM393 772l17 -76l-228 -103l-16 65z" />
    <glyph glyph-name="uni0156" unicode="&#x156;" horiz-adv-x="569" 
d="M162 0h-85l111 700h256q73 0 113 -43t30 -104l-23 -146q-8 -45 -43 -84t-86 -54l71 -269h-89l-69 261h-145zM422 616h-163l-42 -271h169q35 0 63 23t34 57l17 109q6 38 -16.5 60t-61.5 22zM169 -255l-13 -86q55 7 98 47.5t54 104.5l20 128h-81l-21 -128q-3 -20 -19 -40
t-38 -26z" />
    <glyph glyph-name="uni0157" unicode="&#x157;" horiz-adv-x="340" 
d="M413 552l-13 -80h-57q-31 0 -66.5 -22t-61.5 -59l-61 -391h-82l87 549h57l1 -72q73 75 150 75h46zM-8 -255l-13 -86q55 7 98 47.5t54 104.5l20 128h-81l-21 -128q-3 -20 -19 -40t-38 -26z" />
    <glyph glyph-name="Rcaron" unicode="&#x158;" horiz-adv-x="569" 
d="M162 0h-85l111 700h256q73 0 113 -43t30 -104l-23 -146q-8 -45 -43 -84t-86 -54l71 -269h-89l-69 261h-145zM422 616h-163l-42 -271h169q35 0 63 23t34 57l17 109q6 38 -16.5 60t-61.5 22zM391 754h-15l-121 90l40 72l102 -70l127 70l14 -78z" />
    <glyph glyph-name="rcaron" unicode="&#x159;" horiz-adv-x="340" 
d="M413 552l-13 -80h-57q-31 0 -66.5 -22t-61.5 -59l-61 -391h-82l87 549h57l1 -72q73 75 150 75h46zM286 593h-17l-107 101l37 64l92 -79l118 79l15 -69z" />
    <glyph glyph-name="Sacute" unicode="&#x15a;" horiz-adv-x="547" 
d="M87 203h84l-6 -36q-7 -40 17.5 -64.5t66.5 -24.5h72q44 0 76 22t38 62l6 37q1 10 -2 19.5t-13.5 19t-19.5 16.5t-28.5 17t-30 15t-35.5 17q-37 17 -64 34t-52.5 40.5t-36.5 55t-5 67.5l10 64q9 58 58.5 100t117.5 42h81q73 0 112.5 -44t29.5 -106l-11 -71h-84l8 53
q6 37 -16.5 60.5t-61.5 23.5h-58q-35 0 -62.5 -21t-32.5 -55l-6 -39q-5 -33 24.5 -59t85.5 -52q45 -21 67.5 -33.5t56 -36.5t46.5 -52t8 -61l-11 -69q-10 -66 -65.5 -108t-134.5 -42h-85q-78 0 -120.5 45.5t-32.5 109.5zM511 925l17 -83l-221 -84l-16 74z" />
    <glyph glyph-name="sacute" unicode="&#x15b;" horiz-adv-x="485" 
d="M454 773l17 -76l-228 -103l-16 65zM366 131l5 29q2 13 -4.5 23.5t-24.5 20.5t-32 15.5t-42 15.5q-32 11 -53.5 22t-44 28t-32 41.5t-4.5 55.5l8 45q8 52 52 90t106 38h56q62 0 95 -39.5t24 -97.5l-4 -24h-77l3 20q4 27 -13.5 44t-45.5 17h-43q-25 0 -45.5 -15.5
t-24.5 -37.5l-5 -30q-3 -14 2.5 -25t21.5 -21t28.5 -15.5t37.5 -15.5q29 -11 44 -17.5t39 -20.5t35.5 -27.5t19 -35.5t3.5 -48l-7 -41q-8 -53 -54 -92t-108 -39h-76q-65 0 -99.5 40t-25.5 95l5 28h80l-3 -22q-4 -26 14.5 -43.5t49.5 -17.5h62q28 0 50 17t27 40z" />
    <glyph glyph-name="Scedilla" unicode="&#x15e;" horiz-adv-x="547" 
d="M87 203h84l-6 -36q-7 -40 17.5 -64.5t66.5 -24.5h72q44 0 76 22t38 62l6 37q1 10 -2 19.5t-13.5 19t-19.5 16.5t-28.5 17t-30 15t-35.5 17q-37 17 -64 34t-52.5 40.5t-36.5 55t-5 67.5l10 64q9 58 58.5 100t117.5 42h81q73 0 112.5 -44t29.5 -106l-11 -71h-84l8 53
q6 37 -16.5 60.5t-61.5 23.5h-58q-35 0 -62.5 -21t-32.5 -55l-6 -39q-5 -33 24.5 -59t85.5 -52q45 -21 67.5 -33.5t56 -36.5t46.5 -52t8 -61l-11 -69q-10 -66 -65.5 -108t-134.5 -42h-4l-18 -35q50 -12 50 -68q0 -43 -28 -70.5t-90 -27.5h-47l9 54h49q56 0 56 36
q0 13 -9.5 23.5t-26.5 10.5h-39l40 77h-27q-78 0 -120.5 45.5t-32.5 109.5z" />
    <glyph glyph-name="scedilla" unicode="&#x15f;" horiz-adv-x="485" 
d="M366 131l5 29q2 13 -4.5 23.5t-24.5 20.5t-32 15.5t-42 15.5q-32 11 -53.5 22t-44 28t-32 41.5t-4.5 55.5l8 45q8 52 52 90t106 38h56q62 0 95 -39.5t24 -97.5l-4 -24h-77l3 20q4 27 -13.5 44t-45.5 17h-43q-25 0 -45.5 -15.5t-24.5 -37.5l-5 -30q-3 -14 2.5 -25
t21.5 -21t28.5 -15.5t37.5 -15.5q29 -11 44 -17.5t39 -20.5t35.5 -27.5t19 -35.5t3.5 -48l-7 -41q-8 -53 -54 -92t-108 -39h-7l-18 -35q50 -12 50 -68q0 -43 -28 -70.5t-90 -27.5h-47l9 54h49q56 0 56 36q0 13 -9.5 23.5t-26.5 10.5h-39l40 77h-15q-65 0 -99.5 40t-25.5 95
l5 28h80l-3 -22q-4 -26 14.5 -43.5t49.5 -17.5h62q28 0 50 17t27 40z" />
    <glyph glyph-name="Scaron" unicode="&#x160;" horiz-adv-x="547" 
d="M87 203h84l-6 -36q-7 -40 17.5 -64.5t66.5 -24.5h72q44 0 76 22t38 62l6 37q1 10 -2 19.5t-13.5 19t-19.5 16.5t-28.5 17t-30 15t-35.5 17q-37 17 -64 34t-52.5 40.5t-36.5 55t-5 67.5l10 64q9 58 58.5 100t117.5 42h81q73 0 112.5 -44t29.5 -106l-11 -71h-84l8 53
q6 37 -16.5 60.5t-61.5 23.5h-58q-35 0 -62.5 -21t-32.5 -55l-6 -39q-5 -33 24.5 -59t85.5 -52q45 -21 67.5 -33.5t56 -36.5t46.5 -52t8 -61l-11 -69q-10 -66 -65.5 -108t-134.5 -42h-85q-78 0 -120.5 45.5t-32.5 109.5zM398 754h-15l-121 90l40 72l102 -70l127 70l14 -78z
" />
    <glyph glyph-name="scaron" unicode="&#x161;" 
d="M348 594h-17l-107 101l37 64l92 -79l118 79l15 -69zM368 131l5 29q2 13 -4.5 23.5t-24.5 20.5t-32 15.5t-42 15.5q-32 11 -53.5 22t-44 28t-32 41.5t-4.5 55.5l8 45q8 52 52 90t106 38h56q62 0 95 -39.5t24 -97.5l-4 -24h-77l3 20q4 27 -13.5 44t-45.5 17h-43
q-25 0 -45.5 -15.5t-24.5 -37.5l-5 -30q-3 -14 2.5 -25t21.5 -21t28.5 -15.5t37.5 -15.5q29 -11 44 -17.5t39 -20.5t35.5 -27.5t19 -35.5t3.5 -48l-7 -41q-8 -53 -54 -92t-108 -39h-76q-65 0 -99.5 40t-25.5 95l5 28h80l-3 -22q-4 -26 14.5 -43.5t49.5 -17.5h62q28 0 50 17
t27 40z" />
    <glyph glyph-name="uni0162" unicode="&#x162;" horiz-adv-x="456" 
d="M276 0h-85l98 617h-166l13 84h406l-13 -84h-155zM105 -255l-13 -86q55 7 98 47.5t54 104.5l20 128h-81l-21 -128q-3 -20 -19 -40t-38 -26z" />
    <glyph glyph-name="uni0163" unicode="&#x163;" horiz-adv-x="280" 
d="M337 549l-13 -80h-92l-49 -308q-5 -38 16.5 -63t60.5 -25l-13 -79q-81 0 -119.5 43.5t-25.5 123.5l49 308h-63l13 80h64l47 151h57l-24 -151h92zM50 -255l-13 -86q55 7 98 47.5t54 104.5l20 128h-81l-21 -128q-3 -20 -19 -40t-38 -26z" />
    <glyph glyph-name="Tcaron" unicode="&#x164;" horiz-adv-x="456" 
d="M276 0h-85l98 617h-166l13 84h406l-13 -84h-155zM345 754h-15l-121 90l40 72l102 -70l127 70l14 -78z" />
    <glyph glyph-name="tcaron" unicode="&#x165;" horiz-adv-x="498" 
d="M337 549l-13 -80h-92l-49 -308q-5 -38 16.5 -63t60.5 -25l-13 -79q-81 0 -119.5 43.5t-25.5 123.5l49 308h-63l13 80h64l47 151h57l-24 -151h92zM390 471l14 86q21 6 37 26t19 40l21 128h81l-21 -128q-10 -63 -53 -103.5t-98 -48.5z" />
    <glyph glyph-name="Umacron" unicode="&#x16a;" horiz-adv-x="582" 
d="M533 149q-10 -64 -62 -109.5t-123 -45.5h-112q-72 0 -111 45.5t-29 109.5l87 552h86l-85 -534q-6 -40 14.5 -64.5t55.5 -24.5h98q36 0 64.5 24.5t34.5 64.5l84 534h86zM552 875l-13 -88h-261l13 88h261z" />
    <glyph glyph-name="umacron" unicode="&#x16b;" horiz-adv-x="498" 
d="M158 549h81l-62 -391q-6 -40 12.5 -62.5t51.5 -22.5h21q55 0 102 53l66 423h82l-87 -549h-57l-3 52q-63 -58 -130 -58h-28q-63 0 -93 45t-19 115zM488 710l-13 -81h-261l13 81h261z" />
    <glyph glyph-name="Uring" unicode="&#x16e;" horiz-adv-x="582" 
d="M318 876q8 44 43 76.5t81 32.5h12q46 0 70 -32.5t16 -76.5l-3 -19q-8 -45 -41.5 -77t-79.5 -32h-12q-47 0 -72 32.5t-17 76.5zM475 862l2 9q5 23 -6.5 38t-31.5 15h-5q-19 0 -34.5 -14.5t-20.5 -38.5l-2 -9q-4 -23 8 -38t31 -15h5q19 0 34.5 15t19.5 38zM533 149
q-10 -64 -62 -109.5t-123 -45.5h-112q-72 0 -111 45.5t-29 109.5l87 552h86l-85 -534q-6 -40 14.5 -64.5t55.5 -24.5h98q36 0 64.5 24.5t34.5 64.5l84 534h86z" />
    <glyph glyph-name="uring" unicode="&#x16f;" horiz-adv-x="498" 
d="M158 549h81l-62 -391q-6 -40 12.5 -62.5t51.5 -22.5h21q55 0 102 53l66 423h82l-87 -549h-57l-3 52q-63 -58 -130 -58h-28q-63 0 -93 45t-19 115zM249 718q6 45 41 77t83 32h12q45 0 68.5 -32t16.5 -77l-3 -18q-6 -45 -40.5 -77t-79.5 -32h-12q-47 0 -71.5 32t-17.5 77z
M406 705l1 9q4 23 -7.5 37.5t-30.5 14.5h-5q-19 0 -35 -15t-19 -37l-1 -9q-4 -23 7 -38t30 -15h5q20 0 36 15t19 38z" />
    <glyph glyph-name="Uhungarumlaut" unicode="&#x170;" horiz-adv-x="582" 
d="M376 921l56 -44l-111 -131l-47 39zM538 921l56 -44l-111 -131l-47 39zM533 149q-10 -64 -62 -109.5t-123 -45.5h-112q-72 0 -111 45.5t-29 109.5l87 552h86l-85 -534q-6 -40 14.5 -64.5t55.5 -24.5h98q36 0 64.5 24.5t34.5 64.5l84 534h86z" />
    <glyph glyph-name="uhungarumlaut" unicode="&#x171;" horiz-adv-x="498" 
d="M158 549h81l-62 -391q-6 -40 12.5 -62.5t51.5 -22.5h21q55 0 102 53l66 423h82l-87 -549h-57l-3 52q-63 -58 -130 -58h-28q-63 0 -93 45t-19 115zM509 799l56 -45l-147 -162l-46 39zM347 799l56 -45l-147 -162l-46 39z" />
    <glyph glyph-name="Uogonek" unicode="&#x172;" horiz-adv-x="582" 
d="M533 149q-9 -55 -50.5 -98.5t-100.5 -53.5q-81 -62 -81 -106q0 -28 45 -28h40l-8 -55h-40q-96 0 -96 68q0 58 62 118h-68q-72 0 -111 45.5t-29 109.5l87 552h86l-85 -534q-6 -40 14.5 -64.5t55.5 -24.5h98q36 0 64.5 24.5t34.5 64.5l84 534h86z" />
    <glyph glyph-name="uogonek" unicode="&#x173;" horiz-adv-x="498" 
d="M425 0h-7q-85 -62 -85 -109q0 -28 45 -28h40l-8 -55h-40q-96 0 -96 68q0 72 93 145l-2 31q-63 -58 -130 -58h-28q-63 0 -93 45t-19 115l63 395h81l-62 -391q-6 -40 12.5 -62.5t51.5 -22.5h21q55 0 102 53l66 423h82z" />
    <glyph glyph-name="Ydieresis" unicode="&#x178;" horiz-adv-x="560" 
d="M327 0h-85l44 285l-139 416h87l109 -329l208 329h85l-264 -417zM475 903h88l-20 -126h-89zM287 903h89l-21 -126h-88z" />
    <glyph glyph-name="Zacute" unicode="&#x179;" horiz-adv-x="529" 
d="M491 84l-13 -84h-427l13 84l408 533h-314l13 84h409l-13 -84l-401 -533h325zM506 925l17 -83l-221 -84l-16 74z" />
    <glyph glyph-name="zacute" unicode="&#x17a;" horiz-adv-x="449" 
d="M478 549l-12 -80l-311 -389h262l-13 -80h-356l12 80l310 389h-237l12 80h333zM427 772l17 -76l-228 -103l-16 65z" />
    <glyph glyph-name="Zdotaccent" unicode="&#x17b;" horiz-adv-x="529" 
d="M491 84l-13 -84h-427l13 84l408 533h-314l13 84h409l-13 -84l-401 -533h325zM365 899h82l-19 -122h-82z" />
    <glyph glyph-name="zdotaccent" unicode="&#x17c;" horiz-adv-x="449" 
d="M296 757h81l-20 -127h-81zM478 549l-12 -80l-311 -389h262l-13 -80h-356l13 80l309 389h-237l12 80h333z" />
    <glyph glyph-name="Zcaron" unicode="&#x17d;" horiz-adv-x="542" 
d="M497 84l-13 -84h-427l13 84l408 533h-314l13 84h409l-13 -84l-401 -533h325zM396 754h-15l-121 90l40 72l102 -70l127 70l14 -78z" />
    <glyph glyph-name="zcaron" unicode="&#x17e;" horiz-adv-x="449" 
d="M478 549l-12 -80l-311 -389h262l-13 -80h-356l13 80l309 389h-237l12 80h333zM329 593h-17l-107 101l37 64l92 -79l118 79l15 -69z" />
    <glyph glyph-name="uni0218" unicode="&#x218;" horiz-adv-x="547" 
d="M87 203h84l-6 -36q-7 -40 17.5 -64.5t66.5 -24.5h72q44 0 76 22t38 62l6 37q1 10 -2 19.5t-13.5 19t-19.5 16.5t-28.5 17t-30 15t-35.5 17q-37 17 -64 34t-52.5 40.5t-36.5 55t-5 67.5l10 64q9 58 58.5 100t117.5 42h81q73 0 112.5 -44t29.5 -106l-11 -71h-84l8 53
q6 37 -16.5 60.5t-61.5 23.5h-58q-35 0 -62.5 -21t-32.5 -55l-6 -39q-5 -33 24.5 -59t85.5 -52q45 -21 67.5 -33.5t56 -36.5t46.5 -52t8 -61l-11 -69q-10 -66 -65.5 -108t-134.5 -42h-85q-78 0 -120.5 45.5t-32.5 109.5zM159 -255l-13 -86q55 7 98 47.5t54 104.5l20 128h-81
l-21 -128q-3 -20 -19 -40t-38 -26z" />
    <glyph glyph-name="uni0219" unicode="&#x219;" horiz-adv-x="485" 
d="M366 131l5 29q2 13 -4.5 23.5t-24.5 20.5t-32 15.5t-42 15.5q-32 11 -53.5 22t-44 28t-32 41.5t-4.5 55.5l8 45q8 52 52 90t106 38h56q62 0 95 -39.5t24 -97.5l-4 -24h-77l3 20q4 27 -13.5 44t-45.5 17h-43q-25 0 -45.5 -15.5t-24.5 -37.5l-5 -30q-3 -14 2.5 -25
t21.5 -21t28.5 -15.5t37.5 -15.5q29 -11 44 -17.5t39 -20.5t35.5 -27.5t19 -35.5t3.5 -48l-7 -41q-8 -53 -54 -92t-108 -39h-76q-65 0 -99.5 40t-25.5 95l5 28h80l-3 -22q-4 -26 14.5 -43.5t49.5 -17.5h62q28 0 50 17t27 40zM124 -255l-13 -86q55 7 98 47.5t54 104.5l20 128
h-81l-21 -128q-3 -20 -19 -40t-38 -26z" />
    <glyph glyph-name="uni021A" unicode="&#x21a;" horiz-adv-x="456" 
d="M276 0h-85l98 617h-166l13 84h406l-13 -84h-155zM103 -255l-13 -86q55 7 98 47.5t54 104.5l20 128h-81l-21 -128q-3 -20 -19 -40t-38 -26z" />
    <glyph glyph-name="uni021B" unicode="&#x21b;" horiz-adv-x="280" 
d="M337 549l-13 -80h-92l-49 -308q-5 -38 16.5 -63t60.5 -25l-13 -79q-81 0 -119.5 43.5t-25.5 123.5l49 308h-63l13 80h64l47 151h57l-24 -151h92zM43 -255l-13 -86q55 7 98 47.5t54 104.5l20 128h-81l-21 -128q-3 -20 -19 -40t-38 -26z" />
    <glyph glyph-name="circumflex" unicode="&#x2c6;" horiz-adv-x="341" 
d="M282 758h17l107 -96l-36 -69l-93 80l-117 -80l-17 64z" />
    <glyph glyph-name="caron" unicode="&#x2c7;" horiz-adv-x="341" 
d="M273 593h-17l-107 101l37 64l92 -79l118 79l15 -69z" />
    <glyph glyph-name="breve" unicode="&#x2d8;" horiz-adv-x="387" 
d="M381 750h67l-5 -34q-8 -44 -41.5 -76t-73.5 -32h-75q-41 0 -64.5 32t-16.5 76l5 34h67l-4 -26q-2 -18 6.5 -31t23.5 -13h63q15 0 28.5 13t16.5 31z" />
    <glyph glyph-name="dotaccent" unicode="&#x2d9;" horiz-adv-x="197" 
d="M178 757h81l-20 -127h-81z" />
    <glyph glyph-name="ring" unicode="&#x2da;" horiz-adv-x="293" 
d="M151 718q6 45 41 77t83 32h12q45 0 68.5 -32t16.5 -77l-3 -18q-6 -45 -40.5 -77t-79.5 -32h-12q-47 0 -71.5 32t-17.5 77zM308 705l1 9q4 23 -7.5 37.5t-30.5 14.5h-5q-19 0 -35 -15t-19 -37l-1 -9q-4 -23 7 -38t30 -15h5q20 0 36 15t19 38z" />
    <glyph glyph-name="ogonek" unicode="&#x2db;" horiz-adv-x="237" 
d="M181 -137l-8 -55h-40q-96 0 -96 68q0 73 95 147l56 -18q-92 -66 -92 -114q0 -28 45 -28h40z" />
    <glyph glyph-name="tilde" unicode="&#x2dc;" horiz-adv-x="367" 
d="M203 619h-64l5 36q8 47 25 69t52 22q27 0 69.5 -27t62.5 -27q21 0 24 23l4 26h64l-8 -51q-12 -73 -74 -73q-33 0 -76.5 25t-56.5 25q-19 0 -24 -32z" />
    <glyph glyph-name="hungarumlaut" unicode="&#x2dd;" horiz-adv-x="457" 
d="M298 799l56 -45l-147 -162l-46 39zM460 799l56 -45l-147 -162l-46 39z" />
    <glyph glyph-name="uni0401" unicode="&#x401;" horiz-adv-x="522" 
d="M466 84l-13 -84h-376l111 701h367l-13 -84h-282l-34 -214h256l-13 -84h-257l-37 -235h291zM270 903h89l-21 -126h-88zM458 903h88l-20 -126h-89z" />
    <glyph glyph-name="uni0402" unicode="&#x402;" horiz-adv-x="668" 
d="M533 701l-13 -84h-156l-29 -186q54 39 95 39h97q71 0 108.5 -45.5t27.5 -109.5l-26 -163q-10 -64 -62 -109.5t-123 -45.5h-53l13 84h44q36 0 64.5 25t34.5 64l20 126q7 40 -13.5 65t-57.5 25h-92q-35 0 -63 -25t-34 -65l-48 -296h-85l97 617h-166l13 84h407z" />
    <glyph glyph-name="uni0403" unicode="&#x403;" horiz-adv-x="427" 
d="M162 0h-85l111 701h335l-13 -85h-251zM486 925l17 -83l-221 -84l-16 74z" />
    <glyph glyph-name="uni0404" unicode="&#x404;" horiz-adv-x="573" 
d="M454 204h85l-9 -55q-10 -64 -62 -109.5t-123 -45.5h-115q-73 0 -111.5 45.5t-28.5 109.5l64 402q10 64 63 109.5t126 45.5h115q71 0 108.5 -45.5t27.5 -109.5l-8 -51h-85l5 33q7 40 -13.5 64.5t-56.5 24.5h-101q-36 0 -64.5 -24.5t-34.5 -64.5l-21 -130h210l-14 -84h-209
l-24 -152q-6 -40 14 -64.5t56 -24.5h101q36 0 64 24.5t35 64.5z" />
    <glyph glyph-name="uni0405" unicode="&#x405;" horiz-adv-x="547" 
d="M87 203h84l-6 -36q-7 -40 17.5 -64.5t66.5 -24.5h72q44 0 76 22t38 62l6 37q1 7 -0.5 14t-5.5 13t-8.5 11.5t-13.5 11.5t-15.5 10.5t-19.5 11t-20.5 10t-22.5 11l-23 11.5q-38 19 -63.5 35t-52 40t-37.5 55t-5 67l10 64q9 58 58.5 100t117.5 42h81q73 0 112.5 -44
t29.5 -106l-11 -71h-84l8 53q6 37 -16.5 60.5t-61.5 23.5h-58q-35 0 -62.5 -21t-32.5 -55l-6 -39q-5 -33 24.5 -59t85.5 -52q45 -21 67.5 -33.5t56 -36.5t46.5 -52t8 -61l-11 -69q-10 -66 -65.5 -108t-134.5 -42h-85q-78 0 -120.5 45.5t-32.5 109.5z" />
    <glyph glyph-name="uni0406" unicode="&#x406;" horiz-adv-x="239" 
d="M162 0h-85l111 701h85z" />
    <glyph glyph-name="uni0407" unicode="&#x407;" horiz-adv-x="239" 
d="M162 0h-85l111 701h85zM124 903h89l-21 -126h-88zM312 903h88l-20 -126h-89z" />
    <glyph glyph-name="uni0408" unicode="&#x408;" horiz-adv-x="249" 
d="M198 700h85l-114 -715q-14 -90 -73 -141t-144 -51h-37l13 82h37q44 0 78 31t42 79z" />
    <glyph glyph-name="uni0409" unicode="&#x409;" horiz-adv-x="935" 
d="M209 701h438l-46 -288h180q74 0 112.5 -52.5t26.5 -127.5l-9 -56q-12 -74 -65 -125.5t-124 -51.5h-270l97 617h-270l-72 -453q-12 -79 -63.5 -123t-126.5 -44h-9l13 82h9q34 0 61 23.5t32 61.5zM760 330h-172l-39 -246h178q36 0 63.5 24.5t34.5 64.5l11 64q7 41 -15.5 67
t-60.5 26z" />
    <glyph glyph-name="uni040A" unicode="&#x40a;" horiz-adv-x="916" 
d="M162 0h-85l111 701h85l-47 -297h271l47 297h84l-46 -288h180q73 0 111.5 -52.5t26.5 -127.5l-9 -56q-12 -74 -65 -125.5t-123 -51.5h-270l51 321h-271zM740 330h-171l-39 -246h177q36 0 64 24.5t35 64.5l10 64q6 41 -16 67t-60 26z" />
    <glyph glyph-name="uni040B" unicode="&#x40b;" horiz-adv-x="668" 
d="M267 0h-85l97 617h-166l13 84h407l-13 -84h-156l-29 -186q54 39 95 39h97q71 0 108.5 -45.5t27.5 -109.5l-50 -315h-84l46 296q7 40 -13.5 65t-57.5 25h-92q-35 0 -63 -25t-34 -65z" />
    <glyph glyph-name="uni040C" unicode="&#x40c;" horiz-adv-x="556" 
d="M162 0h-85l111 700h85l-48 -305h82l200 305h94l-227 -341l155 -359h-96l-129 311h-93zM519 925l17 -83l-221 -84l-16 74z" />
    <glyph glyph-name="uni040E" unicode="&#x40e;" horiz-adv-x="530" 
d="M513 700h84l-300 -513q-57 -99 -83 -128q-53 -59 -134 -59h-17l13 82h13q38 0 70 33.5t64 88.5l32 54l-103 442h88l75 -340zM463 891h67l-6 -33q-6 -40 -37.5 -69.5t-67.5 -29.5h-92q-37 0 -58.5 29t-14.5 70l5 33h67l-3 -19q-2 -14 4.5 -23.5t18.5 -9.5h80q12 0 22.5 10
t11.5 23z" />
    <glyph glyph-name="uni040F" unicode="&#x40f;" horiz-adv-x="594" 
d="M188 701h85l-98 -617h271l98 617h84l-111 -701h-178l-19 -123h-84l19 123h-178z" />
    <glyph glyph-name="uni0410" unicode="&#x410;" horiz-adv-x="591" 
d="M365 704h84l106 -704h-86l-27 191h-235l-86 -191h-85zM387 587l-142 -313h186z" />
    <glyph glyph-name="uni0411" unicode="&#x411;" horiz-adv-x="559" 
d="M523 701l-13 -85h-251l-32 -203h180q73 0 111.5 -52.5t26.5 -127.5l-9 -56q-12 -74 -65 -125.5t-123 -51.5h-271l111 701h335zM384 330h-170l-39 -246h177q36 0 64 24.5t35 64.5l10 64q6 41 -16 67t-61 26z" />
    <glyph glyph-name="uni0412" unicode="&#x412;" horiz-adv-x="559" 
d="M348 0h-271l111 700h230q71 0 108 -48.5t26 -116.5l-8 -52q-11 -69 -72 -113q41 -20 60.5 -60t11.5 -88l-8 -45q-12 -74 -65 -125.5t-123 -51.5zM383 319h-171l-37 -235h177q36 0 64 24.5t35 64.5l8 54q6 40 -16 66t-60 26zM397 616h-138l-34 -214h138q35 0 63.5 23.5
t33.5 60.5l7 46q5 37 -15 60.5t-55 23.5z" />
    <glyph glyph-name="uni0413" unicode="&#x413;" horiz-adv-x="428" 
d="M162 0h-85l111 701h335l-13 -85h-251z" />
    <glyph glyph-name="uni0414" unicode="&#x414;" horiz-adv-x="546" 
d="M529 84l-33 -207h-85l19 123h-328l-19 -124h-85l33 208h68q121 277 182 617h282l-97 -617h63zM348 617q-64 -291 -166 -533h198l84 533h-116z" />
    <glyph glyph-name="uni0415" unicode="&#x415;" horiz-adv-x="522" 
d="M466 84l-13 -84h-376l111 701h367l-13 -84h-282l-34 -214h256l-13 -84h-257l-37 -235h291z" />
    <glyph glyph-name="uni0416" unicode="&#x416;" horiz-adv-x="875" 
d="M177 700h95l103 -305h83l48 305h85l-48 -305h82l200 305h95l-228 -341l155 -359h-97l-128 311h-93l-49 -311h-85l49 311h-92l-227 -311h-97l269 359z" />
    <glyph glyph-name="uni0417" unicode="&#x417;" horiz-adv-x="555" 
d="M513 154q-10 -65 -62.5 -112.5t-123.5 -47.5h-101q-73 0 -112 45.5t-29 109.5l8 47h85l-5 -28q-6 -40 14.5 -65t55.5 -25h89q35 0 64 26.5t36 68.5l9 59q6 40 -16.5 65t-61.5 25h-82l14 83h74q33 0 58.5 22.5t31.5 57.5l9 57q6 35 -12 57.5t-49 22.5h-72
q-30 0 -54.5 -22.5t-30.5 -57.5l-4 -25h-85l7 43q9 59 58.5 102.5t116.5 43.5h87q66 0 101 -43.5t25 -102.5l-14 -90q-9 -62 -67 -102q31 -19 45 -51t8 -67z" />
    <glyph glyph-name="uni0418" unicode="&#x418;" horiz-adv-x="594" 
d="M517 0h-84l83 524l-354 -524h-85l111 701h85l-83 -521l351 521h87z" />
    <glyph glyph-name="uni0419" unicode="&#x419;" horiz-adv-x="594" 
d="M519 891h67l-6 -33q-6 -40 -37.5 -69.5t-67.5 -29.5h-92q-37 0 -58.5 29t-14.5 70l5 33h67l-3 -19q-2 -14 4.5 -23.5t18.5 -9.5h80q12 0 22.5 10t11.5 23zM517 0h-84l83 524l-354 -524h-85l111 701h85l-83 -521l351 521h87z" />
    <glyph glyph-name="uni041A" unicode="&#x41a;" horiz-adv-x="556" 
d="M162 0h-85l111 700h85l-48 -305h82l200 305h94l-227 -341l155 -359h-96l-129 311h-93z" />
    <glyph glyph-name="uni041B" unicode="&#x41b;" horiz-adv-x="613" 
d="M648 701l-111 -701h-85l97 617h-261l-72 -453q-13 -79 -64.5 -123t-127.5 -44h-9l13 82h9q35 0 62 23.5t32 61.5l85 537h432z" />
    <glyph glyph-name="uni041C" unicode="&#x41c;" horiz-adv-x="731" 
d="M174 0h-85l111 701h89l118 -446l258 446h87l-111 -701h-85l81 515l-211 -365h-74l-97 365z" />
    <glyph glyph-name="uni041D" unicode="&#x41d;" horiz-adv-x="594" 
d="M162 0h-85l111 701h85l-47 -297h271l47 297h84l-111 -701h-84l51 321h-271z" />
    <glyph glyph-name="uni041E" unicode="&#x41e;" horiz-adv-x="573" 
d="M248 78h101q36 0 64.5 24.5t34.5 64.5l58 366q7 40 -13.5 64.5t-56.5 24.5h-101q-36 0 -64.5 -24.5t-34.5 -64.5l-58 -366q-6 -40 14 -64.5t56 -24.5zM345 -6h-115q-73 0 -111.5 45.5t-28.5 109.5l64 402q10 64 63 109.5t126 45.5h115q71 0 108.5 -45.5t27.5 -109.5
l-64 -402q-10 -64 -62 -109.5t-123 -45.5z" />
    <glyph glyph-name="uni041F" unicode="&#x41f;" horiz-adv-x="594" 
d="M162 0h-85l111 701h440l-111 -701h-84l97 617h-271z" />
    <glyph glyph-name="uni0420" unicode="&#x420;" horiz-adv-x="543" 
d="M162 0h-85l111 700h247q74 0 114 -43t30 -104l-24 -146q-10 -62 -62 -108t-122 -46h-169zM413 616h-154l-44 -279h161q34 0 63 25t35 63l17 109q6 38 -16.5 60t-61.5 22z" />
    <glyph glyph-name="uni0421" unicode="&#x421;" horiz-adv-x="573" 
d="M446 229h85l-12 -80q-10 -63 -62.5 -109t-123.5 -46h-103q-73 0 -111.5 45.5t-28.5 109.5l64 402q10 64 63 109.5t126 45.5h103q71 0 109 -46t28 -109l-13 -76h-84l9 58q6 40 -14.5 64.5t-56.5 24.5h-89q-36 0 -64.5 -24.5t-34.5 -64.5l-58 -366q-6 -40 14 -64.5
t56 -24.5h90q36 0 64.5 25t34.5 64z" />
    <glyph glyph-name="uni0422" unicode="&#x422;" horiz-adv-x="456" 
d="M276 0h-85l98 617h-166l13 84h406l-13 -84h-155z" />
    <glyph glyph-name="uni0423" unicode="&#x423;" horiz-adv-x="519" 
d="M513 700h84l-300 -513q-57 -99 -83 -128q-53 -59 -134 -59h-17l13 82h13q38 0 70 33.5t64 88.5l32 54l-103 442h88l75 -340z" />
    <glyph glyph-name="uni0424" unicode="&#x424;" horiz-adv-x="653" 
d="M371 0h-84l11 74h-64q-73 0 -111.5 45.5t-28.5 109.5l38 242q10 64 63.5 109.5t126.5 45.5h64l12 75h84l-12 -75h66q70 0 107.5 -45.5t27.5 -109.5l-38 -242q-10 -63 -62.5 -109t-122.5 -46h-66zM251 158h61l61 384h-61q-35 0 -63.5 -24.5t-34.5 -64.5l-33 -206
q-6 -40 14.5 -64.5t55.5 -24.5zM513 542h-56l-61 -384h56q36 0 64.5 24.5t34.5 64.5l33 206q6 40 -14.5 64.5t-56.5 24.5z" />
    <glyph glyph-name="uni0425" unicode="&#x425;" horiz-adv-x="602" 
d="M552 700h95l-239 -342l143 -358h-95l-112 280l-205 -280h-94l265 365l-133 335h95l102 -256z" />
    <glyph glyph-name="uni0426" unicode="&#x426;" horiz-adv-x="612" 
d="M273 701l-98 -617h271l98 617h84l-98 -617h63l-32 -207h-84l18 123h-418l111 701h85z" />
    <glyph glyph-name="uni0427" unicode="&#x427;" horiz-adv-x="553" 
d="M165 701h85l-46 -287q-6 -40 14 -65t56 -25h84q35 0 63 25t35 65l46 287h85l-111 -701h-85l45 286q-55 -45 -109 -45h-82q-68 0 -103.5 45t-25.5 109z" />
    <glyph glyph-name="uni0428" unicode="&#x428;" horiz-adv-x="862" 
d="M812 701h85l-111 -701h-709l111 701h85l-98 -617h227l98 617h85l-98 -617h227z" />
    <glyph glyph-name="uni0429" unicode="&#x429;" horiz-adv-x="879" 
d="M812 701h85l-98 -617h63l-32 -207h-85l19 123h-687l111 701h85l-98 -617h227l98 617h85l-98 -617h227z" />
    <glyph glyph-name="uni042A" unicode="&#x42a;" horiz-adv-x="670" 
d="M458 0h-270l97 616h-172l13 85h256l-46 -288h181q74 0 112 -52.5t26 -127.5l-9 -56q-12 -74 -65 -125.5t-123 -51.5zM495 330h-172l-39 -246h178q36 0 64 24.5t35 64.5l10 64q7 41 -15.5 67t-60.5 26z" />
    <glyph glyph-name="uni042B" unicode="&#x42b;" horiz-adv-x="775" 
d="M348 0h-271l111 701h85l-46 -288h180q73 0 111.5 -52.5t26.5 -127.5l-9 -56q-12 -74 -65 -125.5t-123 -51.5zM384 330h-170l-39 -246h177q36 0 64 24.5t35 64.5l10 64q6 41 -16 67t-61 26zM697 0h-84l111 701h84z" />
    <glyph glyph-name="uni042C" unicode="&#x42c;" horiz-adv-x="560" 
d="M348 0h-271l111 701h85l-46 -288h180q73 0 111.5 -52.5t26.5 -127.5l-9 -56q-12 -74 -65 -125.5t-123 -51.5zM384 330h-170l-39 -246h177q36 0 64 24.5t35 64.5l10 64q6 41 -16 67t-61 26z" />
    <glyph glyph-name="uni042D" unicode="&#x42d;" horiz-adv-x="583" 
d="M104 204h85l-6 -37q-7 -40 13.5 -64.5t56.5 -24.5h102q36 0 64 24.5t34 64.5l24 152h-210l14 84h209l21 130q7 40 -13.5 64.5t-55.5 24.5h-102q-36 0 -64.5 -24.5t-34.5 -64.5l-5 -33h-85l8 51q10 64 62 109.5t122 45.5h116q72 0 111 -45.5t29 -109.5l-64 -402
q-10 -64 -63.5 -109.5t-125.5 -45.5h-116q-70 0 -107.5 45.5t-27.5 109.5z" />
    <glyph glyph-name="uni042E" unicode="&#x42e;" horiz-adv-x="855" 
d="M162 0h-85l111 701h85l-47 -297h186l24 147q10 64 63.5 109.5t125.5 45.5h116q70 0 107.5 -45.5t27.5 -109.5l-64 -402q-10 -64 -62 -109.5t-122 -45.5h-116q-72 0 -111 45.5t-29 109.5l27 172h-186zM530 78h102q35 0 63.5 24.5t35.5 64.5l57 366q7 40 -13.5 64.5
t-55.5 24.5h-102q-36 0 -64.5 -24.5t-34.5 -64.5l-58 -366q-6 -40 14 -64.5t56 -24.5z" />
    <glyph glyph-name="uni042F" unicode="&#x42f;" horiz-adv-x="563" 
d="M486 0h-85l41 261h-144l-152 -261h-90l157 268q-47 15 -70 54t-16 85l24 146q10 61 63 104t126 43h257zM232 534l-17 -109q-6 -33 15 -56.5t56 -23.5h170l42 271h-161q-40 0 -69.5 -22t-35.5 -60z" />
    <glyph glyph-name="uni0430" unicode="&#x430;" horiz-adv-x="500" 
d="M465 549h53l-87 -549h-57l-4 50q-59 -56 -119 -56h-58q-59 0 -89 50.5t-19 121.5l35 217q11 71 57 121.5t105 50.5h54q63 0 106 -59zM268 74q53 0 100 55l47 292q-28 54 -82 54h-38q-32 0 -60 -26.5t-35 -66.5l-34 -214q-6 -41 13 -67.5t52 -26.5h37z" />
    <glyph glyph-name="uni0431" unicode="&#x431;" 
d="M280 -6h-64q-69 0 -105.5 44.5t-26.5 105.5l41 259q9 61 60 105t120 44h94q11 0 20.5 8.5t11.5 22.5l1 10h76l-6 -41q-5 -32 -29.5 -55.5t-60.5 -23.5h-118q-32 0 -58.5 -24.5t-31.5 -61.5l-6 -34q38 22 78 22h64q67 0 103 -44t26 -105l-14 -82q-10 -62 -59 -106
t-116 -44zM231 74h55q31 0 58 24.5t32 60.5l8 50q6 38 -12.5 62t-49.5 24h-56q-32 0 -58 -24t-32 -62l-8 -50q-6 -36 12.5 -60.5t50.5 -24.5z" />
    <glyph glyph-name="uni0432" unicode="&#x432;" horiz-adv-x="496" 
d="M72 0l87 549h208q62 0 95 -41.5t24 -97.5l-6 -36q-7 -48 -54 -85q57 -45 46 -109l-7 -40q-9 -58 -54 -99t-107 -41h-232zM340 240h-149l-25 -160h149q24 0 44.5 19.5t25.5 48.5l5 29q4 27 -11 45t-39 18zM353 469h-126l-24 -150h130q25 0 44 19t23 49l3 18q4 27 -11 45.5
t-39 18.5z" />
    <glyph glyph-name="uni0433" unicode="&#x433;" horiz-adv-x="374" 
d="M154 0h-82l87 549h289l-12 -80h-209z" />
    <glyph glyph-name="uni0434" unicode="&#x434;" horiz-adv-x="505" 
d="M491 80l-32 -203h-82l19 123h-305l-19 -124h-82l32 204h72q94 190 145 469h262l-74 -469h64zM303 469q-56 -235 -127 -389h170l61 389h-104z" />
    <glyph glyph-name="uni0435" unicode="&#x435;" 
d="M496 390l-25 -150h-290l-12 -76q-7 -40 13 -65t54 -25h47q34 0 62.5 25.5t32.5 64.5v3h82l-2 -11q-10 -66 -59.5 -114t-115.5 -48h-69q-68 0 -103 47.5t-25 114.5l38 234q11 68 61.5 116.5t118.5 48.5h68q66 0 100 -48.5t24 -116.5zM204 384l-12 -72h209l11 72
q6 40 -13 65.5t-53 25.5h-47q-34 0 -61.5 -25.5t-33.5 -65.5z" />
    <glyph glyph-name="uni0436" unicode="&#x436;" horiz-adv-x="737" 
d="M131 549h92l103 -225h53l36 225h81l-36 -225h54l172 225h93l-207 -259l149 -290h-94l-118 245h-61l-39 -245h-81l39 245h-62l-196 -245h-92l239 290z" />
    <glyph glyph-name="uni0437" unicode="&#x437;" 
d="M230 237l13 79h79q25 0 46 18t25 45l4 22q5 29 -10 48.5t-40 19.5h-51q-25 0 -46.5 -19.5t-25.5 -48.5l-2 -16h-82l4 25q9 56 53.5 97.5t103.5 41.5h61q61 0 94 -41.5t24 -97.5l-8 -44q-7 -42 -51 -81q52 -37 43 -93l-10 -58q-9 -57 -55 -98.5t-107 -41.5h-96
q-60 0 -91.5 41t-22.5 99l4 24h81l-2 -16q-4 -29 11 -48.5t39 -19.5h87q24 0 45.5 19.5t25.5 48.5l6 31q4 27 -11 45.5t-40 18.5h-98z" />
    <glyph glyph-name="uni0438" unicode="&#x438;" horiz-adv-x="516" 
d="M154 0h-82l87 549h81l-61 -387l270 386h81l-87 -548h-81l61 386z" />
    <glyph glyph-name="uni0439" unicode="&#x439;" horiz-adv-x="516" 
d="M154 0h-82l87 549h81l-61 -387l270 386h81l-87 -548h-81l61 386zM450 750h67l-5 -34q-8 -44 -41.5 -76t-73.5 -32h-75q-41 0 -64.5 32t-16.5 76l5 34h67l-4 -26q-2 -18 6.5 -31t23.5 -13h63q15 0 28.5 13t16.5 31z" />
    <glyph glyph-name="uni043A" unicode="&#x43a;" horiz-adv-x="482" 
d="M466 0h-94l-119 245h-61l-38 -245h-82l87 549h81l-35 -225h53l174 225h92l-207 -259z" />
    <glyph glyph-name="uni043B" unicode="&#x43b;" horiz-adv-x="523" 
d="M176 549l362 -1l-87 -548h-82l74 469h-199l-50 -313q-12 -77 -62 -119.5t-123 -42.5h-5l12 79h6q32 0 58.5 23.5t32.5 59.5z" />
    <glyph glyph-name="uni043C" unicode="&#x43c;" horiz-adv-x="636" 
d="M154 0h-82l87 549h101l93 -324l196 324h101l-87 -549h-81l64 408l-168 -279h-81l-80 277z" />
    <glyph glyph-name="uni043D" unicode="&#x43d;" horiz-adv-x="516" 
d="M154 0h-82l87 549h81l-35 -220h209l35 219h81l-87 -548h-81l39 249h-208z" />
    <glyph glyph-name="uni043E" unicode="&#x43e;" 
d="M236 74h47q33 0 60.5 25t34.5 65l34 220q7 40 -12.5 65.5t-53.5 25.5h-47q-34 0 -61.5 -25.5t-33.5 -65.5l-35 -220q-7 -40 13 -65t54 -25zM283 -6h-69q-68 0 -103 47.5t-25 114.5l38 234q11 68 61.5 116.5t118.5 48.5h68q66 0 100 -48.5t23 -116.5l-37 -234
q-10 -66 -59.5 -114t-115.5 -48z" />
    <glyph glyph-name="uni043F" unicode="&#x43f;" horiz-adv-x="516" 
d="M154 0h-82l87 549h371l-87 -549h-81l74 469h-209z" />
    <glyph glyph-name="uni0440" unicode="&#x440;" horiz-adv-x="505" 
d="M159 549h57l2 -52q63 58 125 58h53q60 0 90 -50.5t18 -121.5l-35 -217q-11 -71 -56.5 -121.5t-105.5 -50.5h-58q-52 0 -90 43l-38 -244h-82zM319 475q-52 0 -100 -56l-45 -289q27 -56 84 -56h36q33 0 60.5 26.5t34.5 67.5l33 214q7 40 -12 66.5t-52 26.5h-39z" />
    <glyph glyph-name="uni0441" unicode="&#x441;" 
d="M485 365h-83l3 19q7 40 -12.5 65.5t-53.5 25.5h-38q-34 0 -61.5 -25.5t-33.5 -65.5l-35 -220q-7 -40 13 -65t54 -25h38q33 0 60.5 25t34.5 65l3 20h82l-5 -28q-11 -67 -60 -114.5t-115 -47.5h-60q-68 0 -103 47.5t-25 114.5l38 234q11 68 61.5 116.5t118.5 48.5h59
q66 0 100 -48.5t24 -116.5z" />
    <glyph glyph-name="uni0442" unicode="&#x442;" horiz-adv-x="405" 
d="M88 469l12 80h378l-12 -80h-149l-74 -469h-82l74 469h-147z" />
    <glyph glyph-name="uni0443" unicode="&#x443;" horiz-adv-x="432" 
d="M112 549h83l76 -264l139 264h82l-185 -360q-47 -92 -104.5 -142t-135.5 -50h-4l12 79h4q37 0 73.5 30t63.5 75z" />
    <glyph glyph-name="uni0444" unicode="&#x444;" horiz-adv-x="784" 
d="M566 -6h-56q-42 0 -75 18l-35 -219h-82l34 218q-36 -17 -76 -17h-55q-71 0 -108.5 45.5t-27.5 109.5l40 252q10 63 62 108.5t122 45.5h56q38 0 71 -18l34 213h82l-34 -213q39 18 81 18h55q69 0 105.5 -45t26.5 -109l-40 -252q-10 -64 -61 -109.5t-119 -45.5zM236 74h47
q31 0 58.5 20t32.5 53l39 249q5 33 -15.5 56t-51.5 23h-47q-34 0 -61 -25.5t-34 -65.5l-35 -220q-7 -40 13 -65t54 -25zM525 74h46q34 0 61.5 25t33.5 65l36 220q7 40 -13 65.5t-54 25.5h-46q-33 0 -60.5 -23t-33.5 -59l-37 -238q-6 -36 14 -58.5t53 -22.5z" />
    <glyph glyph-name="uni0445" unicode="&#x445;" horiz-adv-x="490" 
d="M122 0h-93l215 283l-116 266h93l82 -190l137 190h94l-196 -270l121 -279h-92l-89 204z" />
    <glyph glyph-name="uni0446" unicode="&#x446;" horiz-adv-x="530" 
d="M493 -112h-82l18 112h-357l87 549h81l-74 -469h208l75 469h81l-75 -469h69z" />
    <glyph glyph-name="uni0447" unicode="&#x447;" horiz-adv-x="484" 
d="M128 549h82l-34 -210q-6 -39 13.5 -61t52.5 -22h25q64 0 113 55l37 237h82l-87 -548h-81l35 225q-65 -49 -132 -49h-34q-60 0 -89 42.5t-19 106.5z" />
    <glyph glyph-name="uni0448" unicode="&#x448;" horiz-adv-x="716" 
d="M72 0l87 549h81l-74 -469h163l75 469h82l-75 -469h163l75 469h81l-86 -549h-572z" />
    <glyph glyph-name="uni0449" unicode="&#x449;" horiz-adv-x="728" 
d="M693 -112h-82l17 112h-556l87 549h81l-74 -469h163l75 469h82l-75 -469h163l75 469h81l-74 -469h68z" />
    <glyph glyph-name="uni044A" unicode="&#x44a;" horiz-adv-x="571" 
d="M88 469l12 80h230l-30 -187h141q66 0 101 -43.5t25 -103.5l-11 -68q-9 -60 -58 -103.5t-114 -43.5h-223l74 469h-147zM421 282h-134l-32 -202h135q31 0 56.5 23.5t30.5 59.5l5 36q6 37 -12 60t-49 23z" />
    <glyph glyph-name="uni044B" unicode="&#x44b;" horiz-adv-x="682" 
d="M295 0h-223l87 549h81l-30 -187h142q65 0 100 -43.5t26 -103.5l-11 -68q-10 -60 -58.5 -103.5t-113.5 -43.5zM609 0h-82l86 549h82zM332 282h-134l-32 -202h135q31 0 56.5 23.5t30.5 59.5l5 36q6 37 -12 60t-49 23z" />
    <glyph glyph-name="uni044C" unicode="&#x44c;" horiz-adv-x="482" 
d="M295 0h-223l87 549h81l-30 -187h142q65 0 100 -43.5t26 -103.5l-11 -68q-10 -60 -58.5 -103.5t-113.5 -43.5zM332 282h-134l-32 -202h135q31 0 56.5 23.5t30.5 59.5l5 36q6 37 -12 60t-49 23z" />
    <glyph glyph-name="uni044D" unicode="&#x44d;" 
d="M202 375h-81l4 26q10 63 60.5 108.5t119.5 45.5h55q71 0 109 -45.5t28 -108.5l-40 -252q-10 -63 -62.5 -109t-123.5 -46h-55q-69 0 -105 45.5t-26 109.5l4 26h82l-2 -11q-7 -39 13 -64.5t54 -25.5h47q34 0 61 25t34 65l12 79h-159l13 80h158l10 61q7 40 -12.5 65.5
t-53.5 25.5h-47q-34 0 -61 -25.5t-34 -65.5z" />
    <glyph glyph-name="uni044E" unicode="&#x44e;" horiz-adv-x="727" 
d="M154 0h-82l87 549h81l-35 -220h142l12 72q10 64 61.5 109t122.5 45h55q69 0 105.5 -45.5t26.5 -108.5l-40 -252q-10 -63 -61 -109t-120 -46h-55q-71 0 -108 45.5t-27 109.5l16 100h-142zM469 74h47q33 0 60.5 25t34.5 65l35 220q6 40 -13.5 65.5t-53.5 25.5h-47
q-34 0 -61 -25.5t-34 -65.5l-35 -220q-6 -40 13.5 -65t53.5 -25z" />
    <glyph glyph-name="uni044F" unicode="&#x44f;" horiz-adv-x="485" 
d="M283 549h217l-87 -549h-81l29 189h-104l-124 -189h-84l128 196q-42 15 -62.5 51t-12.5 79l11 76q10 61 57.5 104t112.5 43zM186 344q-5 -32 11.5 -53.5t44.5 -21.5h132l31 200h-132q-28 0 -51 -21.5t-29 -54.5z" />
    <glyph glyph-name="uni0451" unicode="&#x451;" 
d="M496 390l-25 -150h-290l-12 -76q-7 -40 13 -65t54 -25h47q34 0 62.5 25.5t32.5 64.5v3h82l-2 -11q-10 -66 -59.5 -114t-115.5 -48h-69q-68 0 -103 47.5t-25 114.5l38 234q11 68 61.5 116.5t118.5 48.5h68q66 0 100 -48.5t24 -116.5zM204 384l-12 -72h209l11 72
q6 40 -13 65.5t-53 25.5h-47q-34 0 -61.5 -25.5t-33.5 -65.5zM422 757h84l-21 -127h-83zM229 757h83l-21 -127h-82z" />
    <glyph glyph-name="uni0452" unicode="&#x452;" horiz-adv-x="508" 
d="M229 -207l13 79h7q38 0 69.5 27.5t38.5 70.5l63 401q6 39 -13 61.5t-53 22.5h-24q-65 0 -114 -57l-63 -398h-81l96 607h-57l9 55h57l14 88h81l-14 -88h186l-9 -55h-186l-20 -123q67 51 134 51h34q59 0 88 -42.5t18 -106.5l-65 -416q-13 -84 -68 -130.5t-134 -46.5h-7z
" />
    <glyph glyph-name="uni0453" unicode="&#x453;" horiz-adv-x="374" 
d="M154 0h-82l87 549h289l-12 -80h-209zM433 772l17 -76l-228 -103l-16 65z" />
    <glyph glyph-name="uni0454" unicode="&#x454;" 
d="M493 375h-83l2 9q7 40 -12.5 65.5t-53.5 25.5h-47q-34 0 -61 -25.5t-34 -65.5l-10 -62h161l-13 -80h-161l-12 -78q-7 -40 13 -65t54 -25h47q33 0 60 25t34 65l2 11h82l-4 -26q-10 -63 -61 -109t-120 -46h-55q-71 0 -108.5 45.5t-27.5 109.5l40 252q10 63 62 108.5
t122 45.5h56q68 0 105 -45.5t27 -108.5z" />
    <glyph glyph-name="uni0455" unicode="&#x455;" horiz-adv-x="492" 
d="M366 131l5 29q1 8 -0.5 15t-8 13t-11.5 10.5t-17.5 10t-19 8.5t-23 9t-23.5 9q-32 12 -53.5 22.5t-44.5 28t-32 41.5t-4 55l8 45q8 52 52 90t106 38h56q62 0 95 -39.5t24 -97.5l-4 -24h-77l3 20q4 27 -13.5 44t-45.5 17h-43q-25 0 -45.5 -15.5t-24.5 -37.5l-5 -30
q-3 -14 2.5 -25t21.5 -21t28.5 -15.5t37.5 -15.5q29 -11 44 -17.5t39 -20.5t35.5 -27.5t19 -35.5t3.5 -48l-7 -41q-8 -53 -54 -92t-108 -39h-76q-65 0 -99.5 40t-25.5 95l5 28h80l-3 -22q-4 -26 14.5 -43.5t49.5 -17.5h62q28 0 50 17t27 40z" />
    <glyph glyph-name="uni0456" unicode="&#x456;" horiz-adv-x="227" 
d="M159 549h81l-86 -549h-82zM191 750h82l-21 -127h-81z" />
    <glyph glyph-name="uni0457" unicode="&#x457;" horiz-adv-x="227" 
d="M96 757h83l-21 -127h-82zM289 757h84l-21 -127h-83zM159 549h81l-86 -549h-82z" />
    <glyph glyph-name="uni0458" unicode="&#x458;" horiz-adv-x="227" 
d="M160 549h81l-93 -591q-13 -79 -68 -122t-137 -43l12 79q41 0 73 24t39 62zM191 750h82l-21 -127h-81z" />
    <glyph glyph-name="uni0459" unicode="&#x459;" horiz-adv-x="788" 
d="M176 549l371 -1l-30 -186h140q66 0 101 -43.5t25 -103.5l-11 -68q-9 -60 -58 -103.5t-114 -43.5h-222l74 469h-208l-50 -313q-12 -77 -62 -119.5t-123 -42.5h-6l13 79h6q32 0 58.5 23.5t32.5 59.5zM638 282h-134l-32 -202h134q31 0 56.5 23.5t30.5 59.5l6 36
q5 37 -12.5 60t-48.5 23z" />
    <glyph glyph-name="uni045A" unicode="&#x45a;" horiz-adv-x="772" 
d="M154 0h-82l87 549h81l-35 -220h209l35 220h81l-30 -187h141q66 0 101 -43.5t25 -103.5l-11 -68q-9 -60 -58 -103.5t-114 -43.5h-222l39 249h-208zM622 282h-135l-32 -202h135q31 0 56.5 23.5t30.5 59.5l5 36q5 37 -12 60t-48 23z" />
    <glyph glyph-name="uni045B" unicode="&#x45b;" horiz-adv-x="511" 
d="M111 603l9 55h56l15 92h82l-15 -92h199l-9 -55h-199l-19 -119q67 51 133 51h35q59 0 88 -42t19 -107l-62 -386h-81l59 371q6 39 -13 61.5t-53 22.5h-25q-64 0 -113 -57l-63 -398h-82l95 603h-56z" />
    <glyph glyph-name="uni045C" unicode="&#x45c;" horiz-adv-x="482" 
d="M466 0h-94l-119 245h-61l-38 -245h-82l87 549h81l-35 -225h53l174 225h92l-207 -259zM460 772l17 -76l-228 -103l-16 65z" />
    <glyph glyph-name="uni045E" unicode="&#x45e;" horiz-adv-x="441" 
d="M118 549h83l76 -264l139 264h82l-185 -360q-47 -92 -104.5 -142t-135.5 -50h-4l12 79h4q37 0 73.5 30t63.5 75zM410 750h67l-5 -34q-8 -44 -41.5 -76t-73.5 -32h-75q-41 0 -64.5 32t-16.5 76l5 34h67l-4 -26q-2 -18 6.5 -31t23.5 -13h63q15 0 28.5 13t16.5 31z" />
    <glyph glyph-name="uni045F" unicode="&#x45f;" horiz-adv-x="516" 
d="M279 -121h-81l19 121h-145l87 549h81l-74 -469h208l75 469h81l-87 -549h-145z" />
    <glyph glyph-name="uni0490" unicode="&#x490;" horiz-adv-x="428" 
d="M162 0h-85l111 701h251l19 119h84l-32 -204h-251z" />
    <glyph glyph-name="uni0491" unicode="&#x491;" horiz-adv-x="374" 
d="M470 689l-34 -220h-209l-73 -469h-82l87 549h207l22 140h82z" />
    <glyph glyph-name="endash" unicode="&#x2013;" horiz-adv-x="501" 
d="M505 341l-13 -81h-401l13 81h401z" />
    <glyph glyph-name="emdash" unicode="&#x2014;" horiz-adv-x="770" 
d="M775 341l-13 -81h-671l13 81h671z" />
    <glyph glyph-name="quoteleft" unicode="&#x2018;" horiz-adv-x="218" 
d="M301 751l-14 -86q-21 -6 -37 -25.5t-19 -40.5l-20 -128h-82l21 128q10 63 53 103.5t98 48.5z" />
    <glyph glyph-name="quoteright" unicode="&#x2019;" horiz-adv-x="218" 
d="M110 471l14 86q21 6 37 26t19 40l21 128h81l-21 -128q-10 -63 -53 -103.5t-98 -48.5z" />
    <glyph glyph-name="quotesinglbase" unicode="&#x201a;" horiz-adv-x="219" 
d="M-2 -152l14 85q22 6 38 26t19 41l20 127h81l-20 -127q-10 -64 -53.5 -104.5t-98.5 -47.5z" />
    <glyph glyph-name="quotedblleft" unicode="&#x201c;" horiz-adv-x="351" 
d="M445 751l-13 -86q-22 -6 -38 -25.5t-19 -40.5l-21 -128h-81l20 128q11 63 54 103.5t98 48.5zM292 751l-13 -86q-22 -6 -37.5 -25.5t-18.5 -40.5l-21 -128h-81l20 128q11 63 53.5 103.5t97.5 48.5z" />
    <glyph glyph-name="quotedblright" unicode="&#x201d;" horiz-adv-x="351" 
d="M110 471l14 86q21 6 37 26t19 40l21 128h81l-21 -128q-10 -63 -53 -103.5t-98 -48.5zM262 471l14 86q21 6 37.5 26t19.5 40l20 128h81l-20 -128q-11 -63 -54 -103.5t-98 -48.5z" />
    <glyph glyph-name="quotedblbase" unicode="&#x201e;" horiz-adv-x="381" 
d="M-2 -152l14 85q22 6 38 26t19 41l20 127h81l-20 -127q-10 -64 -53.5 -104.5t-98.5 -47.5zM160 -152l14 85q22 6 38 26t19 41l20 127h81l-20 -127q-11 -64 -54 -104.5t-98 -47.5z" />
    <glyph glyph-name="dagger" unicode="&#x2020;" horiz-adv-x="456" 
d="M238 -190h-82l100 634h-165l13 82h165l42 264h82l-42 -264h168l-13 -82h-168z" />
    <glyph glyph-name="daggerdbl" unicode="&#x2021;" horiz-adv-x="456" 
d="M238 -190h-82l43 274h-165l13 82h165l43 268h-166l13 82h166l43 274h82l-43 -274h167l-13 -82h-167l-43 -268h168l-13 -82h-168z" />
    <glyph glyph-name="bullet" unicode="&#x2022;" horiz-adv-x="289" 
d="M200 208h-45q-34 0 -53.5 27.5t-13.5 65.5l7 45q6 38 34 65.5t62 27.5h45q34 0 53.5 -27.5t13.5 -65.5l-7 -45q-6 -38 -34.5 -65.5t-61.5 -27.5z" />
    <glyph glyph-name="ellipsis" unicode="&#x2026;" horiz-adv-x="656" 
d="M89 127h81l-20 -127h-81zM307 127h82l-20 -127h-82zM526 127h82l-20 -127h-82z" />
    <glyph glyph-name="perthousand" unicode="&#x2030;" horiz-adv-x="968" 
d="M222 449h25q15 0 27.5 12t14.5 30l16 100q3 18 -6 29.5t-24 11.5h-24q-15 0 -27.5 -11.5t-15.5 -29.5l-16 -100q-2 -19 6.5 -30.5t23.5 -11.5zM240 376h-31q-47 0 -72.5 30t-19.5 73l20 123q6 42 41.5 73t82.5 31h31q46 0 70 -31t17 -73l-19 -123q-7 -43 -40.5 -73
t-79.5 -30zM256 0h-78l350 701h79zM512 67h24q15 0 28 12t16 30l16 100q3 18 -6 29.5t-25 11.5h-24q-15 0 -27.5 -11.5t-14.5 -29.5l-17 -100q-3 -18 6 -30t24 -12zM530 -6h-31q-48 0 -73 30t-18 73l19 123q7 42 42 73t83 31h31q46 0 69.5 -31t17.5 -73l-20 -123
q-6 -43 -39.5 -73t-80.5 -30zM808 67h24q15 0 27.5 12t15.5 30l17 100q2 18 -7 29.5t-24 11.5h-24q-15 0 -27 -11.5t-15 -29.5l-17 -100q-2 -19 6.5 -30.5t23.5 -11.5zM826 -6h-31q-48 0 -73 30t-18 73l19 123q7 42 42 73t83 31h31q46 0 69.5 -31t17.5 -73l-19 -123
q-7 -43 -40.5 -73t-80.5 -30z" />
    <glyph glyph-name="guilsinglleft" unicode="&#x2039;" horiz-adv-x="375" 
d="M84 224l15 97l302 181l-15 -95l-222 -135l179 -133l-14 -95z" />
    <glyph glyph-name="guilsinglright" unicode="&#x203a;" horiz-adv-x="375" 
d="M377 321l-16 -97l-301 -180l16 95l221 133l-179 135l15 95z" />
    <glyph glyph-name="fraction" unicode="&#x2044;" horiz-adv-x="369" 
d="M99 0h-88l365 700h89z" />
    <glyph glyph-name="Euro" unicode="&#x20ac;" horiz-adv-x="603" 
d="M395 293l-10 -66h-169l-9 -60q-6 -40 14.5 -64.5t56.5 -24.5h101q36 0 64 24.5t35 64.5l9 62h86l-13 -80q-10 -64 -62 -109.5t-123 -45.5h-115q-72 0 -111 45.5t-29 109.5l12 78h-75l10 66h76l17 111h-75l10 67h76l13 80q10 64 63 109.5t126 45.5h115q70 0 108 -46
t28 -109l-12 -76h-86l10 58q6 40 -14.5 64.5t-56.5 24.5h-101q-36 0 -64 -24.5t-35 -64.5l-10 -62h168l-11 -67h-168l-17 -111h168z" />
    <glyph glyph-name="uni2116" unicode="&#x2116;" horiz-adv-x="872" 
d="M162 0h-85l111 701h85l188 -522l83 522h84l-111 -701h-87l-186 517zM771 275h-32q-47 0 -71.5 29.5t-17.5 71.5l20 128q7 41 41 71t80 30h32q45 0 69.5 -30t17.5 -71l-20 -128q-6 -42 -40 -71.5t-79 -29.5zM751 335h24q19 0 35 15t20 38l16 104q4 23 -7.5 38t-30.5 15
h-24q-20 0 -35.5 -14.5t-19.5 -38.5l-16 -104q-4 -24 7 -38.5t31 -14.5zM615 151l12 76h239l-11 -76h-240z" />
    <glyph glyph-name="trademark" unicode="&#x2122;" horiz-adv-x="648" 
d="M383 335h-49l56 356h55l67 -229l137 229h55l-56 -356h-50l38 243l-104 -174h-56l-54 180zM212 335h-50l48 302h-82l9 54h210l-9 -54h-78z" />
    <glyph glyph-name="minus" unicode="&#x2212;" horiz-adv-x="398" 
d="M422 378l-13 -81h-326l13 81h326z" />
    <glyph glyph-name="apple" unicode="&#xf8ff;" horiz-adv-x="692" 
d="M54 288q0 119 84.5 203.5t203.5 84.5t203.5 -84.5t84.5 -203.5t-84.5 -203.5t-203.5 -84.5t-203.5 84.5t-84.5 203.5zM274 115h131l1 6l-49 10v189h27q27 0 40.5 -17.5t13.5 -42.5q0 -59 -46 -59h-14v-7h18q32 0 52 19t20 52q0 63 -77 63h-34v75l102 -5l17 -54l11 2
l-5 73h-282l-6 -73l11 -2l18 54l102 5v-272l-49 -10z" />
    <glyph glyph-name="grave.case" horiz-adv-x="288" 
d="M164 842l42 83l191 -93l-38 -74z" />
    <glyph glyph-name="acute.case" horiz-adv-x="295" 
d="M387 925l17 -83l-221 -84l-16 74z" />
    <glyph glyph-name="dieresis.case" horiz-adv-x="364" 
d="M187 903h89l-21 -126h-88zM375 903h88l-20 -126h-89z" />
    <glyph glyph-name="circumflex.case" horiz-adv-x="368" 
d="M322 925h15l122 -84l-40 -78l-104 71l-125 -71l-16 73z" />
    <glyph glyph-name="tilde.case" horiz-adv-x="374" 
d="M233 771h-69l6 38q7 48 24.5 70.5t54.5 22.5q25 0 65.5 -26.5t64.5 -26.5q16 0 21 20l4 28h68l-8 -53q-12 -76 -77 -76q-27 0 -70 25t-61 25q-15 0 -20 -28z" />
    <glyph glyph-name="macron.case" horiz-adv-x="372" 
d="M448 875l-13 -88h-261l13 88h261z" />
    <glyph glyph-name="breve.case" horiz-adv-x="387" 
d="M404 891h67l-6 -33q-6 -40 -37.5 -69.5t-67.5 -29.5h-92q-37 0 -58.5 29t-14.5 70l5 33h67l-3 -19q-2 -14 4.5 -23.5t18.5 -9.5h80q12 0 22.5 10t11.5 23z" />
    <glyph glyph-name="dotaccent.case" horiz-adv-x="207" 
d="M204 899h82l-19 -122h-82z" />
    <glyph glyph-name="ring.case" horiz-adv-x="311" 
d="M179 874q8 44 43 76.5t81 32.5h12q46 0 70 -32.5t16 -76.5l-3 -19q-8 -45 -41.5 -77t-79.5 -32h-12q-47 0 -72 32.5t-17 76.5zM336 860l2 9q5 23 -6.5 38t-31.5 15h-5q-19 0 -34.5 -14.5t-20.5 -38.5l-2 -9q-4 -23 8 -38t31 -15h5q19 0 34.5 15t19.5 38z" />
    <glyph glyph-name="hungarumlaut.case" horiz-adv-x="426" 
d="M292 936l56 -44l-111 -131l-47 39zM454 936l56 -44l-111 -131l-47 39z" />
    <glyph glyph-name="caron.case" horiz-adv-x="368" 
d="M311 754h-15l-121 90l40 72l102 -70l127 70l14 -78z" />
    <glyph glyph-name="subcomma" horiz-adv-x="225" 
d="M23 -341l13 86q22 6 38 26t19 40l21 128h81l-20 -128q-11 -64 -54 -104.5t-98 -47.5z" />
    </font>
</defs>
</svg>
